{
  "version": "1.1.6",
  "modules": [
    {
      "id": 1,
      "plugin": "Core",
      "version": "1.1.6",
      "model": "AudioInterface",
      "params": [],
      "leftModuleId": 77,
      "data": {
        "audio": {
          "driver": 5,
          "deviceName": "Apple Inc.: External Headphones",
          "offset": 0,
          "maxChannels": 8,
          "sampleRate": 44100,
          "blockSize": 256
        }
      },
      "pos": [
        107,
        0
      ]
    },
    {
      "id": 2,
      "plugin": "Fundamental",
      "version": "1.4.0",
      "model": "VCMixer",
      "params": [
        {
          "id": 0,
          "value": 2.0
        },
        {
          "id": 1,
          "value": 1.0
        },
        {
          "id": 2,
          "value": 0.321180254
        },
        {
          "id": 3,
          "value": 1.0
        },
        {
          "id": 4,
          "value": 1.0
        }
      ],
      "leftModuleId": 70,
      "pos": [
        87,
        1
      ]
    },
    {
      "id": 6,
      "plugin": "Fundamental",
      "version": "1.4.0",
      "model": "ADSR",
      "params": [
        {
          "id": 0,
          "value": 0.0
        },
        {
          "id": 1,
          "value": 0.73799932
        },
        {
          "id": 2,
          "value": 0.1065
        },
        {
          "id": 3,
          "value": 0.477499843
        }
      ],
      "leftModuleId": 66,
      "rightModuleId": 67,
      "pos": [
        49,
        1
      ]
    },
    {
      "id": 3,
      "plugin": "Fundamental",
      "version": "1.4.0",
      "model": "VCO",
      "params": [
        {
          "id": 0,
          "value": 1.0
        },
        {
          "id": 1,
          "value": 1.0
        },
        {
          "id": 2,
          "value": -32.4000282
        },
        {
          "id": 3,
          "value": 0.0
        },
        {
          "id": 4,
          "value": 0.572999358
        },
        {
          "id": 5,
          "value": 0.5
        },
        {
          "id": 6,
          "value": 0.0
        }
      ],
      "rightModuleId": 72,
      "pos": [
        28,
        1
      ]
    },
    {
      "id": 66,
      "plugin": "Fundamental",
      "version": "1.4.0",
      "model": "VCA-1",
      "params": [
        {
          "id": 0,
          "value": 1.0
        },
        {
          "id": 1,
          "value": 1.0
        }
      ],
      "leftModuleId": 72,
      "rightModuleId": 6,
      "pos": [
        46,
        1
      ]
    },
    {
      "id": 67,
      "plugin": "Fundamental",
      "version": "1.4.0",
      "model": "ADSR",
      "params": [
        {
          "id": 0,
          "value": 0.0
        },
        {
          "id": 1,
          "value": 0.375999749
        },
        {
          "id": 2,
          "value": 0.0
        },
        {
          "id": 3,
          "value": 0.0
        }
      ],
      "leftModuleId": 6,
      "rightModuleId": 68,
      "pos": [
        57,
        1
      ]
    },
    {
      "id": 68,
      "plugin": "Fundamental",
      "version": "1.4.0",
      "model": "Noise",
      "params": [],
      "leftModuleId": 67,
      "rightModuleId": 71,
      "pos": [
        65,
        1
      ]
    },
    {
      "id": 69,
      "plugin": "Fundamental",
      "version": "1.4.0",
      "model": "VCA-1",
      "params": [
        {
          "id": 0,
          "value": 1.0
        },
        {
          "id": 1,
          "value": 1.0
        }
      ],
      "leftModuleId": 71,
      "rightModuleId": 70,
      "pos": [
        76,
        1
      ]
    },
    {
      "id": 70,
      "plugin": "Fundamental",
      "version": "1.4.0",
      "model": "ADSR",
      "params": [
        {
          "id": 0,
          "value": 0.0
        },
        {
          "id": 1,
          "value": 0.208998814
        },
        {
          "id": 2,
          "value": 0.0
        },
        {
          "id": 3,
          "value": 0.493502468
        }
      ],
      "leftModuleId": 69,
      "rightModuleId": 2,
      "pos": [
        79,
        1
      ]
    },
    {
      "id": 71,
      "plugin": "Fundamental",
      "version": "1.4.0",
      "model": "VCF",
      "params": [
        {
          "id": 0,
          "value": 0.903999925
        },
        {
          "id": 1,
          "value": 0.5
        },
        {
          "id": 2,
          "value": 0.259500146
        },
        {
          "id": 3,
          "value": 0.0
        },
        {
          "id": 4,
          "value": 0.0915000513
        }
      ],
      "leftModuleId": 68,
      "rightModuleId": 69,
      "pos": [
        68,
        1
      ]
    },
    {
      "id": 72,
      "plugin": "Fundamental",
      "version": "1.4.0",
      "model": "VCF",
      "params": [
        {
          "id": 0,
          "value": 0.633000374
        },
        {
          "id": 1,
          "value": 0.5
        },
        {
          "id": 2,
          "value": 0.0
        },
        {
          "id": 3,
          "value": 0.0
        },
        {
          "id": 4,
          "value": 0.0
        }
      ],
      "leftModuleId": 3,
      "rightModuleId": 66,
      "pos": [
        38,
        1
      ]
    },
    {
      "id": 73,
      "plugin": "Fundamental",
      "version": "1.4.0",
      "model": "SEQ3",
      "params": [
        {
          "id": 0,
          "value": 2.54000163
        },
        {
          "id": 1,
          "value": 0.0
        },
        {
          "id": 2,
          "value": 0.0
        },
        {
          "id": 3,
          "value": 8.0
        },
        {
          "id": 4,
          "value": 0.0
        },
        {
          "id": 5,
          "value": 0.569999933
        },
        {
          "id": 6,
          "value": 0.479999959
        },
        {
          "id": 7,
          "value": 1.1699996
        },
        {
          "id": 8,
          "value": 0.705000043
        },
        {
          "id": 9,
          "value": 0.0
        },
        {
          "id": 10,
          "value": 1.54499924
        },
        {
          "id": 11,
          "value": 0.0
        },
        {
          "id": 12,
          "value": 0.0
        },
        {
          "id": 13,
          "value": 0.0
        },
        {
          "id": 14,
          "value": 0.0
        },
        {
          "id": 15,
          "value": 0.0
        },
        {
          "id": 16,
          "value": 0.0
        },
        {
          "id": 17,
          "value": 0.0
        },
        {
          "id": 18,
          "value": 0.0
        },
        {
          "id": 19,
          "value": 0.0
        },
        {
          "id": 20,
          "value": 0.0
        },
        {
          "id": 21,
          "value": 0.0
        },
        {
          "id": 22,
          "value": 0.0
        },
        {
          "id": 23,
          "value": 0.0
        },
        {
          "id": 24,
          "value": 0.0
        },
        {
          "id": 25,
          "value": 0.0
        },
        {
          "id": 26,
          "value": 0.0
        },
        {
          "id": 27,
          "value": 0.0
        },
        {
          "id": 28,
          "value": 0.0
        },
        {
          "id": 29,
          "value": 0.0
        },
        {
          "id": 30,
          "value": 0.0
        },
        {
          "id": 31,
          "value": 0.0
        },
        {
          "id": 32,
          "value": 0.0
        },
        {
          "id": 33,
          "value": 0.0
        },
        {
          "id": 34,
          "value": 0.0
        },
        {
          "id": 35,
          "value": 0.0
        }
      ],
      "leftModuleId": 82,
      "rightModuleId": 74,
      "data": {
        "running": false,
        "gates": [
          1,
          1,
          1,
          1,
          1,
          1,
          1,
          1
        ]
      },
      "pos": [
        20,
        0
      ]
    },
    {
      "id": 74,
      "plugin": "Fundamental",
      "version": "1.4.0",
      "model": "Quantizer",
      "params": [],
      "leftModuleId": 73,
      "rightModuleId": 75,
      "data": {
        "enabledNotes": [
          true,
          false,
          true,
          false,
          true,
          true,
          false,
          true,
          false,
          true,
          false,
          true
        ]
      },
      "pos": [
        42,
        0
      ]
    },
    {
      "id": 75,
      "plugin": "Fundamental",
      "version": "1.4.0",
      "model": "VCO",
      "params": [
        {
          "id": 0,
          "value": 1.0
        },
        {
          "id": 1,
          "value": 1.0
        },
        {
          "id": 2,
          "value": 0.0
        },
        {
          "id": 3,
          "value": 0.0
        },
        {
          "id": 4,
          "value": 0.0
        },
        {
          "id": 5,
          "value": 0.5
        },
        {
          "id": 6,
          "value": 0.250499964
        }
      ],
      "leftModuleId": 74,
      "rightModuleId": 76,
      "pos": [
        45,
        0
      ]
    },
    {
      "id": 76,
      "plugin": "Fundamental",
      "version": "1.4.0",
      "model": "VCF",
      "params": [
        {
          "id": 0,
          "value": 0.5
        },
        {
          "id": 1,
          "value": 0.5
        },
        {
          "id": 2,
          "value": 0.0
        },
        {
          "id": 3,
          "value": 0.0
        },
        {
          "id": 4,
          "value": 0.0
        }
      ],
      "leftModuleId": 75,
      "rightModuleId": 78,
      "pos": [
        55,
        0
      ]
    },
    {
      "id": 77,
      "plugin": "Fundamental",
      "version": "1.4.0",
      "model": "VCMixer",
      "params": [
        {
          "id": 0,
          "value": 1.30300045
        },
        {
          "id": 1,
          "value": 1.08611631
        },
        {
          "id": 2,
          "value": 0.929138184
        },
        {
          "id": 3,
          "value": 0.966058493
        },
        {
          "id": 4,
          "value": 0.958836496
        }
      ],
      "rightModuleId": 1,
      "pos": [
        97,
        0
      ]
    },
    {
      "id": 78,
      "plugin": "Fundamental",
      "version": "1.4.0",
      "model": "VCA-1",
      "params": [
        {
          "id": 0,
          "value": 1.0
        },
        {
          "id": 1,
          "value": 1.0
        }
      ],
      "leftModuleId": 76,
      "rightModuleId": 79,
      "pos": [
        63,
        0
      ]
    },
    {
      "id": 79,
      "plugin": "Fundamental",
      "version": "1.4.0",
      "model": "ADSR",
      "params": [
        {
          "id": 0,
          "value": 0.0
        },
        {
          "id": 1,
          "value": 0.619999945
        },
        {
          "id": 2,
          "value": 0.0
        },
        {
          "id": 3,
          "value": 0.00150000001
        }
      ],
      "leftModuleId": 78,
      "rightModuleId": 80,
      "pos": [
        66,
        0
      ]
    },
    {
      "id": 80,
      "plugin": "Fundamental",
      "version": "1.4.0",
      "model": "LFO",
      "params": [
        {
          "id": 0,
          "value": 1.0
        },
        {
          "id": 1,
          "value": 1.0
        },
        {
          "id": 2,
          "value": -2.26699901
        },
        {
          "id": 3,
          "value": 0.0
        },
        {
          "id": 4,
          "value": 0.0
        },
        {
          "id": 5,
          "value": 0.5
        },
        {
          "id": 6,
          "value": 0.0
        }
      ],
      "leftModuleId": 79,
      "pos": [
        74,
        0
      ]
    },
    {
      "id": 81,
      "plugin": "Fundamental",
      "version": "1.4.0",
      "model": "Delay",
      "params": [
        {
          "id": 0,
          "value": 0.634139597
        },
        {
          "id": 1,
          "value": 0.573500037
        },
        {
          "id": 2,
          "value": 0.777499795
        },
        {
          "id": 3,
          "value": 1.0
        }
      ],
      "pos": [
        87,
        0
      ]
    },
    {
      "id": 82,
      "plugin": "AS",
      "version": "1.0.4",
      "model": "BPMCalc",
      "params": [
        {
          "id": 0,
          "value": 120.0
        }
      ],
      "rightModuleId": 73,
      "pos": [
        0,
        0
      ]
    },
    {
      "id": 83,
      "plugin": "AudibleInstruments",
      "version": "1.3.1",
      "model": "Links",
      "params": [],
      "pos": [
        20,
        1
      ]
    },
    {
      "id": 91,
      "plugin": "Fundamental",
      "version": "1.4.0",
      "model": "VCO",
      "params": [
        {
          "id": 0,
          "value": 1.0
        },
        {
          "id": 1,
          "value": 1.0
        },
        {
          "id": 2,
          "value": -10.8539991
        },
        {
          "id": 3,
          "value": 0.0
        },
        {
          "id": 4,
          "value": 0.222000062
        },
        {
          "id": 5,
          "value": 0.5
        },
        {
          "id": 6,
          "value": 0.0
        }
      ],
      "rightModuleId": 92,
      "pos": [
        28,
        2
      ]
    },
    {
      "id": 92,
      "plugin": "Fundamental",
      "version": "1.4.0",
      "model": "ADSR",
      "params": [
        {
          "id": 0,
          "value": 0.0
        },
        {
          "id": 1,
          "value": 0.432499945
        },
        {
          "id": 2,
          "value": 0.0
        },
        {
          "id": 3,
          "value": 0.403999865
        }
      ],
      "leftModuleId": 91,
      "rightModuleId": 93,
      "pos": [
        38,
        2
      ]
    },
    {
      "id": 93,
      "plugin": "Fundamental",
      "version": "1.4.0",
      "model": "ADSR",
      "params": [
        {
          "id": 0,
          "value": 0.0
        },
        {
          "id": 1,
          "value": 0.234499946
        },
        {
          "id": 2,
          "value": 0.0
        },
        {
          "id": 3,
          "value": 0.388999909
        }
      ],
      "leftModuleId": 92,
      "rightModuleId": 94,
      "pos": [
        46,
        2
      ]
    },
    {
      "id": 94,
      "plugin": "Fundamental",
      "version": "1.4.0",
      "model": "Noise",
      "params": [],
      "leftModuleId": 93,
      "rightModuleId": 95,
      "pos": [
        54,
        2
      ]
    },
    {
      "id": 95,
      "plugin": "Fundamental",
      "version": "1.4.0",
      "model": "VCF",
      "params": [
        {
          "id": 0,
          "value": 0.768999696
        },
        {
          "id": 1,
          "value": 0.5
        },
        {
          "id": 2,
          "value": 0.306000084
        },
        {
          "id": 3,
          "value": 0.0
        },
        {
          "id": 4,
          "value": 0.0
        }
      ],
      "leftModuleId": 94,
      "rightModuleId": 96,
      "pos": [
        57,
        2
      ]
    },
    {
      "id": 96,
      "plugin": "Fundamental",
      "version": "1.4.0",
      "model": "ADSR",
      "params": [
        {
          "id": 0,
          "value": 0.0
        },
        {
          "id": 1,
          "value": 0.387499958
        },
        {
          "id": 2,
          "value": 0.0
        },
        {
          "id": 3,
          "value": 0.615499854
        }
      ],
      "leftModuleId": 95,
      "rightModuleId": 97,
      "pos": [
        65,
        2
      ]
    },
    {
      "id": 97,
      "plugin": "Fundamental",
      "version": "1.4.0",
      "model": "VCMixer",
      "params": [
        {
          "id": 0,
          "value": 1.0
        },
        {
          "id": 1,
          "value": 1.0
        },
        {
          "id": 2,
          "value": 0.444214404
        },
        {
          "id": 3,
          "value": 1.0
        },
        {
          "id": 4,
          "value": 1.0
        }
      ],
      "leftModuleId": 96,
      "pos": [
        73,
        2
      ]
    }
  ],
  "cables": [
    {
      "id": 160,
      "outputModuleId": 6,
      "outputId": 0,
      "inputModuleId": 66,
      "inputId": 0,
      "color": "#0c8e15"
    },
    {
      "id": 162,
      "outputModuleId": 66,
      "outputId": 0,
      "inputModuleId": 2,
      "inputId": 1,
      "color": "#0986ad"
    },
    {
      "id": 163,
      "outputModuleId": 67,
      "outputId": 0,
      "inputModuleId": 3,
      "inputId": 1,
      "color": "#0c8e15"
    },
    {
      "id": 168,
      "outputModuleId": 69,
      "outputId": 0,
      "inputModuleId": 2,
      "inputId": 2,
      "color": "#c91847"
    },
    {
      "id": 169,
      "outputModuleId": 70,
      "outputId": 0,
      "inputModuleId": 69,
      "inputId": 0,
      "color": "#0986ad"
    },
    {
      "id": 171,
      "outputModuleId": 68,
      "outputId": 1,
      "inputModuleId": 71,
      "inputId": 3,
      "color": "#c91847"
    },
    {
      "id": 172,
      "outputModuleId": 71,
      "outputId": 1,
      "inputModuleId": 69,
      "inputId": 1,
      "color": "#0986ad"
    },
    {
      "id": 173,
      "outputModuleId": 3,
      "outputId": 0,
      "inputModuleId": 72,
      "inputId": 3,
      "color": "#c9b70e"
    },
    {
      "id": 174,
      "outputModuleId": 72,
      "outputId": 0,
      "inputModuleId": 66,
      "inputId": 1,
      "color": "#0c8e15"
    },
    {
      "id": 175,
      "outputModuleId": 73,
      "outputId": 1,
      "inputModuleId": 74,
      "inputId": 0,
      "color": "#c91847"
    },
    {
      "id": 176,
      "outputModuleId": 74,
      "outputId": 0,
      "inputModuleId": 75,
      "inputId": 0,
      "color": "#0986ad"
    },
    {
      "id": 177,
      "outputModuleId": 75,
      "outputId": 3,
      "inputModuleId": 76,
      "inputId": 3,
      "color": "#c9b70e"
    },
    {
      "id": 164,
      "outputModuleId": 2,
      "outputId": 0,
      "inputModuleId": 77,
      "inputId": 4,
      "color": "#c91847"
    },
    {
      "id": 181,
      "outputModuleId": 77,
      "outputId": 0,
      "inputModuleId": 1,
      "inputId": 1,
      "color": "#c91847"
    },
    {
      "id": 182,
      "outputModuleId": 77,
      "outputId": 0,
      "inputModuleId": 1,
      "inputId": 0,
      "color": "#c91847"
    },
    {
      "id": 183,
      "outputModuleId": 73,
      "outputId": 0,
      "inputModuleId": 79,
      "inputId": 4,
      "color": "#0986ad"
    },
    {
      "id": 184,
      "outputModuleId": 79,
      "outputId": 0,
      "inputModuleId": 78,
      "inputId": 0,
      "color": "#c9b70e"
    },
    {
      "id": 185,
      "outputModuleId": 76,
      "outputId": 0,
      "inputModuleId": 78,
      "inputId": 1,
      "color": "#0c8e15"
    },
    {
      "id": 186,
      "outputModuleId": 78,
      "outputId": 0,
      "inputModuleId": 77,
      "inputId": 1,
      "color": "#c91847"
    },
    {
      "id": 187,
      "outputModuleId": 80,
      "outputId": 1,
      "inputModuleId": 75,
      "inputId": 3,
      "color": "#0986ad"
    },
    {
      "id": 188,
      "outputModuleId": 77,
      "outputId": 1,
      "inputModuleId": 81,
      "inputId": 4,
      "color": "#c9b70e"
    },
    {
      "id": 190,
      "outputModuleId": 73,
      "outputId": 0,
      "inputModuleId": 82,
      "inputId": 0,
      "color": "#c91847"
    },
    {
      "id": 170,
      "outputModuleId": 83,
      "outputId": 3,
      "inputModuleId": 70,
      "inputId": 4,
      "color": "#c9b70e"
    },
    {
      "id": 166,
      "outputModuleId": 83,
      "outputId": 4,
      "inputModuleId": 67,
      "inputId": 4,
      "color": "#0986ad"
    },
    {
      "id": 156,
      "outputModuleId": 83,
      "outputId": 3,
      "inputModuleId": 6,
      "inputId": 4,
      "color": "#0986ad"
    },
    {
      "id": 191,
      "outputModuleId": 73,
      "outputId": 4,
      "inputModuleId": 83,
      "inputId": 1,
      "color": "#0986ad"
    },
    {
      "id": 189,
      "outputModuleId": 81,
      "outputId": 0,
      "inputModuleId": 77,
      "inputId": 2,
      "color": "#0c8e15"
    },
    {
      "id": 208,
      "outputModuleId": 97,
      "outputId": 0,
      "inputModuleId": 77,
      "inputId": 3,
      "color": "#c91847"
    },
    {
      "id": 209,
      "outputModuleId": 91,
      "outputId": 1,
      "inputModuleId": 97,
      "inputId": 1,
      "color": "#c91847"
    },
    {
      "id": 210,
      "outputModuleId": 92,
      "outputId": 0,
      "inputModuleId": 97,
      "inputId": 5,
      "color": "#0c8e15"
    },
    {
      "id": 211,
      "outputModuleId": 93,
      "outputId": 0,
      "inputModuleId": 91,
      "inputId": 1,
      "color": "#c91847"
    },
    {
      "id": 212,
      "outputModuleId": 94,
      "outputId": 0,
      "inputModuleId": 95,
      "inputId": 3,
      "color": "#0986ad"
    },
    {
      "id": 213,
      "outputModuleId": 95,
      "outputId": 1,
      "inputModuleId": 97,
      "inputId": 2,
      "color": "#c91847"
    },
    {
      "id": 214,
      "outputModuleId": 96,
      "outputId": 0,
      "inputModuleId": 97,
      "inputId": 6,
      "color": "#0c8e15"
    },
    {
      "id": 207,
      "outputModuleId": 83,
      "outputId": 1,
      "inputModuleId": 96,
      "inputId": 4,
      "color": "#0c8e15"
    },
    {
      "id": 206,
      "outputModuleId": 83,
      "outputId": 2,
      "inputModuleId": 93,
      "inputId": 4,
      "color": "#c9b70e"
    },
    {
      "id": 205,
      "outputModuleId": 83,
      "outputId": 0,
      "inputModuleId": 92,
      "inputId": 4,
      "color": "#0986ad"
    },
    {
      "id": 215,
      "outputModuleId": 73,
      "outputId": 8,
      "inputModuleId": 83,
      "inputId": 0,
      "color": "#c91847"
    },
    {
      "id": 192,
      "outputModuleId": 73,
      "outputId": 7,
      "inputModuleId": 83,
      "inputId": 2,
      "color": "#c9b70e"
    }
  ]
}