{
  "version": "1.1.6",
  "modules": [
    {
      "id": 0,
      "plugin": "Core",
      "version": "1.1.6",
      "model": "AudioInterface",
      "params": [],
      "leftModuleId": 1,
      "data": {
        "audio": {
          "driver": 5,
          "deviceName": "Apple Inc.: External Headphones",
          "offset": 0,
          "maxChannels": 8,
          "sampleRate": 44100,
          "blockSize": 4096
        }
      },
      "pos": [
        50,
        0
      ]
    },
    {
      "id": 1,
      "plugin": "cf",
      "version": "1.1.1",
      "model": "MASTER",
      "params": [
        {
          "id": 0,
          "value": 4.12999964
        },
        {
          "id": 1,
          "value": 0.0
        }
      ],
      "rightModuleId": 0,
      "data": {
        "onstate": 1
      },
      "pos": [
        44,
        0
      ]
    },
    {
      "id": 2,
      "plugin": "Valley",
      "version": "1.0.1",
      "model": "Plateau",
      "params": [
        {
          "id": 0,
          "value": 1.0
        },
        {
          "id": 1,
          "value": 0.395000011
        },
        {
          "id": 2,
          "value": 0.0
        },
        {
          "id": 3,
          "value": 6.57999897
        },
        {
          "id": 4,
          "value": 10.0
        },
        {
          "id": 5,
          "value": 0.5
        },
        {
          "id": 6,
          "value": 10.0
        },
        {
          "id": 7,
          "value": 0.356921554
        },
        {
          "id": 8,
          "value": 10.0
        },
        {
          "id": 9,
          "value": 7.03000116
        },
        {
          "id": 10,
          "value": 0.0
        },
        {
          "id": 11,
          "value": 0.5
        },
        {
          "id": 12,
          "value": 0.0
        },
        {
          "id": 13,
          "value": 0.0
        },
        {
          "id": 14,
          "value": 0.0
        },
        {
          "id": 15,
          "value": 0.0
        },
        {
          "id": 16,
          "value": 0.0
        },
        {
          "id": 17,
          "value": 1.0
        },
        {
          "id": 18,
          "value": 1.0
        },
        {
          "id": 19,
          "value": 1.0
        },
        {
          "id": 20,
          "value": 1.0
        },
        {
          "id": 21,
          "value": 1.0
        },
        {
          "id": 22,
          "value": 1.0
        },
        {
          "id": 23,
          "value": 1.0
        },
        {
          "id": 24,
          "value": 1.0
        },
        {
          "id": 25,
          "value": 1.0
        },
        {
          "id": 26,
          "value": 1.0
        },
        {
          "id": 27,
          "value": 1.0
        },
        {
          "id": 28,
          "value": 1.0
        },
        {
          "id": 29,
          "value": 0.0
        },
        {
          "id": 30,
          "value": 0.0
        }
      ],
      "leftModuleId": 7,
      "data": {
        "frozen": false,
        "freezeToggle": false,
        "panelStyle": 0,
        "tuned": 0,
        "diffuseInput": 0,
        "preDelayCVSens": 0,
        "inputSensitivity": 0,
        "outputSaturation": 0
      },
      "pos": [
        91,
        2
      ]
    },
    {
      "id": 3,
      "plugin": "MSM",
      "version": "1.0.0",
      "model": "DualDelay",
      "params": [
        {
          "id": 0,
          "value": 0.0
        },
        {
          "id": 1,
          "value": 0.0
        },
        {
          "id": 2,
          "value": 0.674799979
        },
        {
          "id": 3,
          "value": 0.674799979
        },
        {
          "id": 4,
          "value": 0.0
        },
        {
          "id": 5,
          "value": 0.0
        },
        {
          "id": 6,
          "value": 1.0
        },
        {
          "id": 7,
          "value": 0.0
        },
        {
          "id": 8,
          "value": 1.0
        },
        {
          "id": 9,
          "value": 0.0
        },
        {
          "id": 10,
          "value": 0.5
        },
        {
          "id": 11,
          "value": 0.5
        },
        {
          "id": 12,
          "value": 0.5
        },
        {
          "id": 13,
          "value": 0.5
        },
        {
          "id": 14,
          "value": 0.0
        },
        {
          "id": 15,
          "value": 0.0
        },
        {
          "id": 16,
          "value": 0.0
        },
        {
          "id": 17,
          "value": 0.0
        }
      ],
      "leftModuleId": 4,
      "rightModuleId": 12,
      "data": {
        "Theme": 0,
        "DISPLAYA": 0,
        "DISPLAYB": 0
      },
      "pos": [
        54,
        2
      ]
    },
    {
      "id": 4,
      "plugin": "cf",
      "version": "1.1.1",
      "model": "MASTER",
      "params": [
        {
          "id": 0,
          "value": 3.59000063
        },
        {
          "id": 1,
          "value": 0.0
        }
      ],
      "leftModuleId": 17,
      "rightModuleId": 3,
      "data": {
        "onstate": 1
      },
      "pos": [
        48,
        2
      ]
    },
    {
      "id": 5,
      "plugin": "Geodesics",
      "version": "1.2.0",
      "model": "BlackHoles",
      "params": [
        {
          "id": 0,
          "value": 0.0
        },
        {
          "id": 1,
          "value": 0.0
        },
        {
          "id": 2,
          "value": 0.0
        },
        {
          "id": 3,
          "value": 0.0
        },
        {
          "id": 4,
          "value": -1.0
        },
        {
          "id": 5,
          "value": 0.0419999957
        },
        {
          "id": 6,
          "value": 0.0
        },
        {
          "id": 7,
          "value": 0.0
        },
        {
          "id": 8,
          "value": 0.0
        },
        {
          "id": 9,
          "value": 0.0
        },
        {
          "id": 10,
          "value": 0.0
        },
        {
          "id": 11,
          "value": 0.0
        },
        {
          "id": 12,
          "value": 0.0
        }
      ],
      "leftModuleId": 18,
      "rightModuleId": 11,
      "data": {
        "panelTheme": 0,
        "isExponential0": 0.0,
        "isExponential1": 0.0,
        "wormhole": true,
        "cvMode": 3
      },
      "pos": [
        18,
        3
      ]
    },
    {
      "id": 6,
      "plugin": "MSM",
      "version": "1.0.0",
      "model": "Morph",
      "params": [
        {
          "id": 0,
          "value": 0.0
        },
        {
          "id": 1,
          "value": 0.0
        }
      ],
      "leftModuleId": 27,
      "data": {
        "Theme": 1
      },
      "pos": [
        97,
        4
      ]
    },
    {
      "id": 7,
      "plugin": "cf",
      "version": "1.1.1",
      "model": "MONO",
      "params": [
        {
          "id": 0,
          "value": 0.0
        },
        {
          "id": 1,
          "value": 3.90000176
        },
        {
          "id": 2,
          "value": 0.0
        },
        {
          "id": 3,
          "value": 0.0
        }
      ],
      "leftModuleId": 12,
      "rightModuleId": 2,
      "data": {
        "solostate": 0,
        "onstate": 1
      },
      "pos": [
        85,
        2
      ]
    },
    {
      "id": 8,
      "plugin": "Bogaudio",
      "version": "1.1.33",
      "model": "Bogaudio-LFO",
      "params": [
        {
          "id": 0,
          "value": -4.20400333
        },
        {
          "id": 1,
          "value": 0.0
        },
        {
          "id": 2,
          "value": 0.0
        },
        {
          "id": 3,
          "value": 0.0
        },
        {
          "id": 4,
          "value": 0.0
        },
        {
          "id": 5,
          "value": 1.0
        }
      ],
      "rightModuleId": 18,
      "pos": [
        5,
        3
      ]
    },
    {
      "id": 9,
      "plugin": "Befaco",
      "version": "1.0.1",
      "model": "EvenVCO",
      "params": [
        {
          "id": 0,
          "value": -3.0
        },
        {
          "id": 1,
          "value": 0.0
        },
        {
          "id": 2,
          "value": 0.0
        }
      ],
      "rightModuleId": 10,
      "pos": [
        57,
        3
      ]
    },
    {
      "id": 10,
      "plugin": "VultModulesFree",
      "version": "1.10.1",
      "model": "Tangents",
      "params": [
        {
          "id": 0,
          "value": 0.25287497
        },
        {
          "id": 1,
          "value": 0.379500121
        },
        {
          "id": 2,
          "value": 0.351000041
        },
        {
          "id": 3,
          "value": 0.0
        },
        {
          "id": 4,
          "value": 0.600000024
        },
        {
          "id": 5,
          "value": 0.0
        },
        {
          "id": 6,
          "value": 0.0
        }
      ],
      "leftModuleId": 9,
      "rightModuleId": 13,
      "pos": [
        65,
        3
      ]
    },
    {
      "id": 11,
      "plugin": "Fundamental",
      "version": "1.4.0",
      "model": "Scope",
      "params": [
        {
          "id": 0,
          "value": 0.0
        },
        {
          "id": 1,
          "value": 0.0
        },
        {
          "id": 2,
          "value": 0.0
        },
        {
          "id": 3,
          "value": 0.0
        },
        {
          "id": 4,
          "value": -7.30499983
        },
        {
          "id": 5,
          "value": 0.0
        },
        {
          "id": 6,
          "value": 0.0
        },
        {
          "id": 7,
          "value": 0.0
        }
      ],
      "leftModuleId": 5,
      "rightModuleId": 15,
      "data": {
        "lissajous": 0,
        "external": 0
      },
      "pos": [
        29,
        3
      ]
    },
    {
      "id": 12,
      "plugin": "cf",
      "version": "1.1.1",
      "model": "MONO",
      "params": [
        {
          "id": 0,
          "value": 0.0
        },
        {
          "id": 1,
          "value": 3.55499983
        },
        {
          "id": 2,
          "value": 0.0
        },
        {
          "id": 3,
          "value": 0.0
        }
      ],
      "leftModuleId": 3,
      "rightModuleId": 7,
      "data": {
        "solostate": 0,
        "onstate": 1
      },
      "pos": [
        79,
        2
      ]
    },
    {
      "id": 13,
      "plugin": "Befaco",
      "version": "1.0.1",
      "model": "EvenVCO",
      "params": [
        {
          "id": 0,
          "value": -2.0
        },
        {
          "id": 1,
          "value": 0.0
        },
        {
          "id": 2,
          "value": 0.0
        }
      ],
      "leftModuleId": 10,
      "rightModuleId": 14,
      "pos": [
        75,
        3
      ]
    },
    {
      "id": 14,
      "plugin": "VultModulesFree",
      "version": "1.10.1",
      "model": "Tangents",
      "params": [
        {
          "id": 0,
          "value": 0.25287497
        },
        {
          "id": 1,
          "value": 0.379500121
        },
        {
          "id": 2,
          "value": 0.351000041
        },
        {
          "id": 3,
          "value": 0.0
        },
        {
          "id": 4,
          "value": 0.600000024
        },
        {
          "id": 5,
          "value": 0.0
        },
        {
          "id": 6,
          "value": 0.0
        }
      ],
      "leftModuleId": 13,
      "pos": [
        83,
        3
      ]
    },
    {
      "id": 15,
      "plugin": "VultModulesFree",
      "version": "1.10.1",
      "model": "Splie",
      "params": [],
      "leftModuleId": 11,
      "pos": [
        42,
        3
      ]
    },
    {
      "id": 16,
      "plugin": "Bogaudio",
      "version": "1.1.33",
      "model": "Bogaudio-FMOp",
      "params": [
        {
          "id": 0,
          "value": 0.0
        },
        {
          "id": 1,
          "value": 0.0
        },
        {
          "id": 2,
          "value": 0.061499998
        },
        {
          "id": 3,
          "value": 0.316229999
        },
        {
          "id": 4,
          "value": 1.0
        },
        {
          "id": 5,
          "value": 0.107499957
        },
        {
          "id": 6,
          "value": 0.0
        },
        {
          "id": 7,
          "value": 0.291000038
        },
        {
          "id": 8,
          "value": 1.0
        },
        {
          "id": 9,
          "value": 1.0
        },
        {
          "id": 10,
          "value": 0.0
        },
        {
          "id": 11,
          "value": 0.0
        }
      ],
      "data": {
        "linearLevel": false
      },
      "pos": [
        46,
        3
      ]
    },
    {
      "id": 17,
      "plugin": "cf",
      "version": "1.1.1",
      "model": "MONO",
      "params": [
        {
          "id": 0,
          "value": 0.0
        },
        {
          "id": 1,
          "value": 4.07999992
        },
        {
          "id": 2,
          "value": 0.0
        },
        {
          "id": 3,
          "value": 0.0
        }
      ],
      "leftModuleId": 24,
      "rightModuleId": 4,
      "data": {
        "solostate": 0,
        "onstate": 1
      },
      "pos": [
        42,
        2
      ]
    },
    {
      "id": 18,
      "plugin": "SynthKit",
      "version": "1.0.1",
      "model": "1x8Splitter",
      "params": [],
      "leftModuleId": 8,
      "rightModuleId": 5,
      "pos": [
        15,
        3
      ]
    },
    {
      "id": 19,
      "plugin": "Bogaudio",
      "version": "1.1.33",
      "model": "Bogaudio-LFO",
      "params": [
        {
          "id": 0,
          "value": -4.55500031
        },
        {
          "id": 1,
          "value": 1.0
        },
        {
          "id": 2,
          "value": 0.0
        },
        {
          "id": 3,
          "value": 0.0
        },
        {
          "id": 4,
          "value": 1.0
        },
        {
          "id": 5,
          "value": 1.0
        }
      ],
      "pos": [
        5,
        2
      ]
    },
    {
      "id": 20,
      "plugin": "Geodesics",
      "version": "1.2.0",
      "model": "BlackHoles",
      "params": [
        {
          "id": 0,
          "value": 0.906999886
        },
        {
          "id": 1,
          "value": 0.454000026
        },
        {
          "id": 2,
          "value": -0.311999977
        },
        {
          "id": 3,
          "value": 0.366000086
        },
        {
          "id": 4,
          "value": 1.0
        },
        {
          "id": 5,
          "value": 1.0
        },
        {
          "id": 6,
          "value": 0.996999979
        },
        {
          "id": 7,
          "value": 1.0
        },
        {
          "id": 8,
          "value": 0.0
        },
        {
          "id": 9,
          "value": 0.0
        },
        {
          "id": 10,
          "value": 0.0
        },
        {
          "id": 11,
          "value": 0.0
        },
        {
          "id": 12,
          "value": 0.0
        }
      ],
      "leftModuleId": 21,
      "rightModuleId": 22,
      "data": {
        "panelTheme": 0,
        "isExponential0": 0.0,
        "isExponential1": 0.0,
        "wormhole": true,
        "cvMode": 3
      },
      "pos": [
        45,
        4
      ]
    },
    {
      "id": 21,
      "plugin": "21kHz",
      "version": "1.0.1",
      "model": "kHzPalmLoop",
      "params": [
        {
          "id": 0,
          "value": 8.0
        },
        {
          "id": 1,
          "value": 0.0
        },
        {
          "id": 2,
          "value": 0.0
        },
        {
          "id": 3,
          "value": 0.0
        },
        {
          "id": 4,
          "value": 0.0
        }
      ],
      "leftModuleId": 29,
      "rightModuleId": 20,
      "pos": [
        37,
        4
      ]
    },
    {
      "id": 22,
      "plugin": "Fundamental",
      "version": "1.4.0",
      "model": "Scope",
      "params": [
        {
          "id": 0,
          "value": -1.0
        },
        {
          "id": 1,
          "value": -0.570000291
        },
        {
          "id": 2,
          "value": 0.0
        },
        {
          "id": 3,
          "value": 0.0
        },
        {
          "id": 4,
          "value": -16.0
        },
        {
          "id": 5,
          "value": 0.0
        },
        {
          "id": 6,
          "value": -10.0
        },
        {
          "id": 7,
          "value": 0.0
        }
      ],
      "leftModuleId": 20,
      "rightModuleId": 23,
      "data": {
        "lissajous": 0,
        "external": 0
      },
      "pos": [
        56,
        4
      ]
    },
    {
      "id": 23,
      "plugin": "MSM",
      "version": "1.0.0",
      "model": "Phaser",
      "params": [
        {
          "id": 0,
          "value": 0.200000003
        },
        {
          "id": 1,
          "value": 0.400000006
        },
        {
          "id": 2,
          "value": 2.0
        },
        {
          "id": 3,
          "value": 0.0530000143
        },
        {
          "id": 4,
          "value": 0.91105032
        },
        {
          "id": 5,
          "value": 0.76099962
        },
        {
          "id": 6,
          "value": 0.0
        },
        {
          "id": 7,
          "value": 0.233500034
        },
        {
          "id": 8,
          "value": 0.5
        }
      ],
      "leftModuleId": 22,
      "rightModuleId": 25,
      "data": {
        "Theme": 1
      },
      "pos": [
        69,
        4
      ]
    },
    {
      "id": 24,
      "plugin": "cf",
      "version": "1.1.1",
      "model": "MONO",
      "params": [
        {
          "id": 0,
          "value": 0.0
        },
        {
          "id": 1,
          "value": 3.52500129
        },
        {
          "id": 2,
          "value": 0.0
        },
        {
          "id": 3,
          "value": 0.0
        }
      ],
      "rightModuleId": 17,
      "data": {
        "solostate": 0,
        "onstate": 1
      },
      "pos": [
        36,
        2
      ]
    },
    {
      "id": 25,
      "plugin": "AS",
      "version": "1.0.4",
      "model": "TremoloFx",
      "params": [
        {
          "id": 0,
          "value": 0.0
        },
        {
          "id": 1,
          "value": 1.75
        },
        {
          "id": 2,
          "value": 0.776000023
        },
        {
          "id": 3,
          "value": 0.0
        },
        {
          "id": 4,
          "value": 0.0
        }
      ],
      "leftModuleId": 23,
      "rightModuleId": 26,
      "data": {
        "as_FxBypass": [
          false
        ]
      },
      "pos": [
        75,
        4
      ]
    },
    {
      "id": 26,
      "plugin": "AS",
      "version": "1.0.4",
      "model": "SuperDriveFx",
      "params": [
        {
          "id": 0,
          "value": 1.0
        },
        {
          "id": 1,
          "value": 1.0
        },
        {
          "id": 2,
          "value": 0.223499954
        },
        {
          "id": 3,
          "value": 0.0
        }
      ],
      "leftModuleId": 25,
      "rightModuleId": 27,
      "data": {
        "as_FxBypass": [
          false
        ]
      },
      "pos": [
        81,
        4
      ]
    },
    {
      "id": 27,
      "plugin": "VultModulesFree",
      "version": "1.10.1",
      "model": "Debriatus",
      "params": [
        {
          "id": 0,
          "value": 0.406500071
        },
        {
          "id": 1,
          "value": 0.364500046
        },
        {
          "id": 2,
          "value": 0.291000009
        },
        {
          "id": 3,
          "value": 0.0
        },
        {
          "id": 4,
          "value": 0.0
        },
        {
          "id": 5,
          "value": 0.0
        },
        {
          "id": 6,
          "value": 0.0
        },
        {
          "id": 7,
          "value": 0.0
        }
      ],
      "leftModuleId": 26,
      "rightModuleId": 6,
      "pos": [
        87,
        4
      ]
    },
    {
      "id": 29,
      "plugin": "mscHack",
      "version": "1.0.2",
      "model": "ARP700",
      "params": [],
      "leftModuleId": 30,
      "rightModuleId": 21,
      "data": {
        "m_bPauseState": [
          false
        ],
        "m_CurrentPattern": [
          0
        ],
        "m_PatternSave": [
          7,
          0,
          3,
          7,
          10,
          12,
          15,
          19,
          1,
          0,
          0,
          1,
          0,
          0,
          1,
          0,
          0,
          1,
          0,
          0,
          1,
          0,
          0,
          1,
          0,
          0,
          1,
          0,
          0,
          4,
          0,
          0,
          4,
          0,
          0,
          4,
          0,
          0,
          4,
          0,
          0,
          4,
          0,
          0,
          4,
          0,
          0,
          4,
          0,
          0,
          0,
          0,
          0,
          0,
          0,
          0,
          0,
          0,
          0,
          0,
          0,
          0,
          0,
          0,
          0,
          0,
          0,
          0,
          0,
          0,
          0,
          0,
          0,
          0,
          0,
          0,
          0,
          0,
          0,
          0,
          0,
          0,
          0,
          0,
          0,
          0,
          0,
          0,
          -1,
          -1,
          -1,
          -1,
          -1,
          -1,
          -1,
          0,
          0,
          0,
          0,
          0,
          0,
          0,
          0,
          0,
          0,
          0,
          0,
          0,
          0,
          0,
          0,
          0,
          0,
          0,
          0,
          0,
          0,
          0,
          0,
          0,
          0,
          0,
          0,
          0,
          0,
          0,
          0,
          0,
          0,
          0,
          0,
          0,
          0,
          0,
          0,
          0,
          0,
          0,
          0,
          0,
          0,
          0,
          0,
          0,
          0,
          0,
          0,
          0,
          0,
          0,
          0,
          0,
          0,
          0,
          0,
          0,
          0,
          0,
          0,
          0,
          0,
          0,
          0,
          0,
          0,
          0,
          0,
          0,
          0,
          0,
          0,
          0,
          0,
          0,
          0,
          -1,
          -1,
          -1,
          -1,
          -1,
          -1,
          -1,
          0,
          0,
          0,
          0,
          0,
          0,
          0,
          0,
          0,
          0,
          0,
          0,
          0,
          0,
          0,
          0,
          0,
          0,
          0,
          0,
          0,
          0,
          0,
          0,
          0,
          0,
          0,
          0,
          0,
          0,
          0,
          0,
          0,
          0,
          0,
          0,
          0,
          0,
          0,
          0,
          0,
          0,
          0,
          0,
          0,
          0,
          0,
          0,
          0,
          0,
          0,
          0,
          0,
          0,
          0,
          0,
          0,
          0,
          0,
          0,
          0,
          0,
          0,
          0,
          0,
          0,
          0,
          0,
          0,
          0,
          0,
          0,
          0,
          0,
          0,
          0,
          0,
          0,
          0,
          0,
          -1,
          -1,
          -1,
          -1,
          -1,
          -1,
          -1,
          0,
          0,
          0,
          0,
          0,
          0,
          0,
          0,
          0,
          0,
          0,
          0,
          0,
          0,
          0,
          0,
          0,
          0,
          0,
          0,
          0,
          0,
          0,
          0,
          0,
          0,
          0,
          0,
          0,
          0,
          0,
          0,
          0,
          0,
          0,
          0,
          0,
          0,
          0,
          0,
          0,
          0,
          0,
          0,
          0,
          0,
          0,
          0,
          0,
          0,
          0,
          0,
          0,
          0,
          0,
          0,
          0,
          0,
          0,
          0,
          0,
          0,
          0,
          0,
          0,
          0,
          0,
          0,
          0,
          0,
          0,
          0,
          0,
          0,
          0,
          0,
          0,
          0,
          0,
          0,
          -1,
          -1,
          -1,
          -1,
          -1,
          -1,
          -1,
          0,
          0,
          0,
          0,
          0,
          0,
          0,
          0,
          0,
          0,
          0,
          0,
          0,
          0,
          0,
          0,
          0,
          0,
          0,
          0,
          0,
          0,
          0,
          0,
          0,
          0,
          0,
          0,
          0,
          0,
          0,
          0,
          0,
          0,
          0,
          0,
          0,
          0,
          0,
          0,
          0,
          0,
          0,
          0,
          0,
          0,
          0,
          0,
          0,
          0,
          0,
          0,
          0,
          0,
          0,
          0,
          0,
          0,
          0,
          0,
          0,
          0,
          0,
          0,
          0,
          0,
          0,
          0,
          0,
          0,
          0,
          0,
          0,
          0,
          0,
          0,
          0,
          0,
          0,
          0,
          -1,
          -1,
          -1,
          -1,
          -1,
          -1,
          -1,
          0,
          0,
          0,
          0,
          0,
          0,
          0,
          0,
          0,
          0,
          0,
          0,
          0,
          0,
          0,
          0,
          0,
          0,
          0,
          0,
          0,
          0,
          0,
          0,
          0,
          0,
          0,
          0,
          0,
          0,
          0,
          0,
          0,
          0,
          0,
          0,
          0,
          0,
          0,
          0,
          0,
          0,
          0,
          0,
          0,
          0,
          0,
          0,
          0,
          0,
          0,
          0,
          0,
          0,
          0,
          0,
          0,
          0,
          0,
          0,
          0,
          0,
          0,
          0,
          0,
          0,
          0,
          0,
          0,
          0,
          0,
          0,
          0,
          0,
          0,
          0,
          0,
          0,
          0,
          0,
          -1,
          -1,
          -1,
          -1,
          -1,
          -1,
          -1,
          0,
          0,
          0,
          0,
          0,
          0,
          0,
          0,
          0,
          0,
          0,
          0,
          0,
          0,
          0,
          0,
          0,
          0,
          0,
          0,
          0,
          0,
          0,
          0,
          0,
          0,
          0,
          0,
          0,
          0,
          0,
          0,
          0,
          0,
          0,
          0,
          0,
          0,
          0,
          0,
          0,
          0,
          0,
          0,
          0,
          0,
          0,
          0,
          0,
          0,
          0,
          0,
          0,
          0,
          0,
          0,
          0,
          0,
          0,
          0,
          0,
          0,
          0,
          0,
          0,
          0,
          0,
          0,
          0,
          0,
          0,
          0,
          0,
          0,
          0,
          0,
          0,
          0,
          0,
          0,
          -1,
          -1,
          -1,
          -1,
          -1,
          -1,
          -1,
          0,
          0,
          0,
          0,
          0,
          0,
          0,
          0,
          0,
          0,
          0,
          0,
          0,
          0,
          0,
          0,
          0,
          0,
          0,
          0,
          0,
          0,
          0,
          0,
          0,
          0,
          0,
          0,
          0,
          0,
          0,
          0,
          0,
          0,
          0,
          0,
          0,
          0,
          0,
          0,
          0,
          0,
          0,
          0,
          0,
          0,
          0,
          0,
          0,
          0,
          0,
          0,
          0,
          0,
          0,
          0,
          0,
          0,
          0,
          0,
          0,
          0,
          0,
          0,
          0,
          0,
          0,
          0,
          0,
          0,
          0,
          0,
          0,
          0,
          0,
          0,
          0,
          0,
          0,
          0,
          -1,
          -1,
          -1,
          -1,
          -1,
          -1,
          -1,
          0,
          0,
          0,
          0,
          0,
          0,
          0,
          0,
          0,
          0,
          0,
          0,
          0,
          0,
          0,
          0,
          0,
          0,
          0,
          0,
          0,
          0,
          0,
          0,
          0,
          0,
          0,
          0,
          0,
          0,
          0,
          0,
          0,
          0,
          0,
          0,
          0,
          0,
          0,
          0,
          0,
          0,
          0,
          0,
          0,
          0,
          0,
          0,
          0,
          0,
          0,
          0,
          0,
          0,
          0,
          0,
          0,
          0,
          0,
          0,
          0,
          0,
          0,
          0,
          0,
          0,
          0,
          0,
          0,
          0,
          0,
          0,
          0,
          0,
          0,
          0,
          0,
          0,
          0,
          0,
          -1,
          -1,
          -1,
          -1,
          -1,
          -1,
          -1,
          0,
          0,
          0,
          0,
          0,
          0,
          0,
          0,
          0,
          0,
          0,
          0,
          0,
          0,
          0,
          0,
          0,
          0,
          0,
          0,
          0,
          0,
          0,
          0,
          0,
          0,
          0,
          0,
          0,
          0,
          0,
          0,
          0,
          0,
          0,
          0,
          0,
          0,
          0,
          0,
          0,
          0,
          0,
          0,
          0,
          0,
          0,
          0,
          0,
          0,
          0,
          0,
          0,
          0,
          0,
          0,
          0,
          0,
          0,
          0,
          0,
          0,
          0,
          0,
          0,
          0,
          0,
          0,
          0,
          0,
          0,
          0,
          0,
          0,
          0,
          0,
          0,
          0,
          0,
          0,
          -1,
          -1,
          -1,
          -1,
          -1,
          -1,
          -1,
          0,
          0,
          0,
          0,
          0,
          0,
          0,
          0,
          0,
          0,
          0,
          0,
          0,
          0,
          0,
          0,
          0,
          0,
          0,
          0,
          0,
          0,
          0,
          0,
          0,
          0,
          0,
          0,
          0,
          0,
          0,
          0,
          0,
          0,
          0,
          0,
          0,
          0,
          0,
          0,
          0,
          0,
          0,
          0,
          0,
          0,
          0,
          0,
          0,
          0,
          0,
          0,
          0,
          0,
          0,
          0,
          0,
          0,
          0,
          0,
          0,
          0,
          0,
          0,
          0,
          0,
          0,
          0,
          0,
          0,
          0,
          0,
          0,
          0,
          0,
          0,
          0,
          0,
          0,
          0,
          -1,
          -1,
          -1,
          -1,
          -1,
          -1,
          -1,
          0,
          0,
          0,
          0,
          0,
          0,
          0,
          0,
          0,
          0,
          0,
          0,
          0,
          0,
          0,
          0,
          0,
          0,
          0,
          0,
          0,
          0,
          0,
          0,
          0,
          0,
          0,
          0,
          0,
          0,
          0,
          0,
          0,
          0,
          0,
          0,
          0,
          0,
          0,
          0,
          0,
          0,
          0,
          0,
          0,
          0,
          0,
          0,
          0,
          0,
          0,
          0,
          0,
          0,
          0,
          0,
          0,
          0,
          0,
          0,
          0,
          0,
          0,
          0,
          0,
          0,
          0,
          0,
          0,
          0,
          0,
          0,
          0,
          0,
          0,
          0,
          0,
          0,
          0,
          0,
          -1,
          -1,
          -1,
          -1,
          -1,
          -1,
          -1,
          0,
          0,
          0,
          0,
          0,
          0,
          0,
          0,
          0,
          0,
          0,
          0,
          0,
          0,
          0,
          0,
          0,
          0,
          0,
          0,
          0,
          0,
          0,
          0,
          0,
          0,
          0,
          0,
          0,
          0,
          0,
          0,
          0,
          0,
          0,
          0,
          0,
          0,
          0,
          0,
          0,
          0,
          0,
          0,
          0,
          0,
          0,
          0,
          0,
          0,
          0,
          0,
          0,
          0,
          0,
          0,
          0,
          0,
          0,
          0,
          0,
          0,
          0,
          0,
          0,
          0,
          0,
          0,
          0,
          0,
          0,
          0,
          0,
          0,
          0,
          0,
          0,
          0,
          0,
          0,
          -1,
          -1,
          -1,
          -1,
          -1,
          -1,
          -1,
          0,
          0,
          0,
          0,
          0,
          0,
          0,
          0,
          0,
          0,
          0,
          0,
          0,
          0,
          0,
          0,
          0,
          0,
          0,
          0,
          0,
          0,
          0,
          0,
          0,
          0,
          0,
          0,
          0,
          0,
          0,
          0,
          0,
          0,
          0,
          0,
          0,
          0,
          0,
          0,
          0,
          0,
          0,
          0,
          0,
          0,
          0,
          0,
          0,
          0,
          0,
          0,
          0,
          0,
          0,
          0,
          0,
          0,
          0,
          0,
          0,
          0,
          0,
          0,
          0,
          0,
          0,
          0,
          0,
          0,
          0,
          0,
          0,
          0,
          0,
          0,
          0,
          0,
          0,
          0,
          -1,
          -1,
          -1,
          -1,
          -1,
          -1,
          -1,
          0,
          0,
          0,
          0,
          0,
          0,
          0,
          0,
          0,
          0,
          0,
          0,
          0,
          0,
          0,
          0,
          0,
          0,
          0,
          0,
          0,
          0,
          0,
          0,
          0,
          0,
          0,
          0,
          0,
          0,
          0,
          0,
          0,
          0,
          0,
          0,
          0,
          0,
          0,
          0,
          0,
          0,
          0,
          0,
          0,
          0,
          0,
          0,
          0,
          0,
          0,
          0,
          0,
          0,
          0,
          0,
          0,
          0,
          0,
          0,
          0,
          0,
          0,
          0,
          0,
          0,
          0,
          0,
          0,
          0,
          0,
          0,
          0,
          0,
          0,
          0,
          0,
          0,
          0,
          0,
          -1,
          -1,
          -1,
          -1,
          -1,
          -1,
          -1,
          0,
          0,
          0,
          0,
          0,
          0,
          0,
          0,
          0,
          0,
          0,
          0,
          0,
          0,
          0,
          0,
          0,
          0,
          0,
          0,
          0,
          0,
          0,
          0,
          0,
          0,
          0,
          0,
          0,
          0,
          0,
          0,
          0,
          0,
          0,
          0,
          0,
          0,
          0,
          0,
          0,
          0,
          0,
          0,
          0,
          0,
          0,
          0,
          0,
          0,
          0,
          0,
          0,
          0,
          0,
          0,
          0,
          0,
          0,
          0,
          0,
          0,
          0,
          0,
          0,
          0,
          0,
          0,
          0,
          0,
          0,
          0,
          0,
          0,
          0,
          0,
          0,
          0,
          0
        ],
        "m_PatternsUsed": [
          15
        ]
      },
      "pos": [
        10,
        4
      ]
    },
    {
      "id": 30,
      "plugin": "ImpromptuModular",
      "version": "1.1.8",
      "model": "Clocked-Clkd",
      "params": [
        {
          "id": 0,
          "value": 0.0
        },
        {
          "id": 1,
          "value": 0.0
        },
        {
          "id": 2,
          "value": 0.0
        },
        {
          "id": 3,
          "value": 100.0
        },
        {
          "id": 4,
          "value": 0.0
        },
        {
          "id": 5,
          "value": 0.0
        },
        {
          "id": 6,
          "value": 0.0
        },
        {
          "id": 7,
          "value": 0.0
        },
        {
          "id": 8,
          "value": 0.0
        },
        {
          "id": 9,
          "value": 0.0
        }
      ],
      "rightModuleId": 29,
      "data": {
        "panelTheme": 1,
        "running": true,
        "bpmDetectionMode": false,
        "resetOnStartStop": 0,
        "ppqn": 4,
        "resetClockOutputsHigh": true,
        "momentaryRunInput": true,
        "displayIndex": 0,
        "trigOuts": [
          false,
          false,
          false,
          false
        ],
        "clockMaster": -1
      },
      "pos": [
        0,
        4
      ]
    }
  ],
  "cables": [
    {
      "id": 0,
      "outputModuleId": 1,
      "outputId": 2,
      "inputModuleId": 0,
      "inputId": 0,
      "color": "#0986ad"
    },
    {
      "id": 1,
      "outputModuleId": 1,
      "outputId": 3,
      "inputModuleId": 0,
      "inputId": 1,
      "color": "#c9b70e"
    },
    {
      "id": 2,
      "outputModuleId": 2,
      "outputId": 0,
      "inputModuleId": 1,
      "inputId": 2,
      "color": "#0986ad"
    },
    {
      "id": 3,
      "outputModuleId": 2,
      "outputId": 1,
      "inputModuleId": 1,
      "inputId": 3,
      "color": "#c9b70e"
    },
    {
      "id": 4,
      "outputModuleId": 3,
      "outputId": 0,
      "inputModuleId": 12,
      "inputId": 5,
      "color": "#c91847"
    },
    {
      "id": 5,
      "outputModuleId": 3,
      "outputId": 1,
      "inputModuleId": 12,
      "inputId": 6,
      "color": "#0c8e15"
    },
    {
      "id": 6,
      "outputModuleId": 4,
      "outputId": 2,
      "inputModuleId": 3,
      "inputId": 11,
      "color": "#c9b70e"
    },
    {
      "id": 7,
      "outputModuleId": 4,
      "outputId": 3,
      "inputModuleId": 3,
      "inputId": 12,
      "color": "#c91847"
    },
    {
      "id": 8,
      "outputModuleId": 9,
      "outputId": 3,
      "inputModuleId": 10,
      "inputId": 0,
      "color": "#c9b70e"
    },
    {
      "id": 9,
      "outputModuleId": 8,
      "outputId": 4,
      "inputModuleId": 5,
      "inputId": 8,
      "color": "#0c8e15"
    },
    {
      "id": 10,
      "outputModuleId": 15,
      "outputId": 1,
      "inputModuleId": 11,
      "inputId": 0,
      "color": "#0986ad"
    },
    {
      "id": 11,
      "outputModuleId": 8,
      "outputId": 0,
      "inputModuleId": 5,
      "inputId": 9,
      "color": "#c9b70e"
    },
    {
      "id": 12,
      "outputModuleId": 5,
      "outputId": 1,
      "inputModuleId": 5,
      "inputId": 11,
      "color": "#c91847"
    },
    {
      "id": 13,
      "outputModuleId": 15,
      "outputId": 0,
      "inputModuleId": 10,
      "inputId": 3,
      "color": "#0986ad"
    },
    {
      "id": 14,
      "outputModuleId": 10,
      "outputId": 0,
      "inputModuleId": 7,
      "inputId": 8,
      "color": "#c9b70e"
    },
    {
      "id": 15,
      "outputModuleId": 18,
      "outputId": 0,
      "inputModuleId": 5,
      "inputId": 10,
      "color": "#c9b70e"
    },
    {
      "id": 16,
      "outputModuleId": 15,
      "outputId": 3,
      "inputModuleId": 11,
      "inputId": 1,
      "color": "#0c8e15"
    },
    {
      "id": 17,
      "outputModuleId": 12,
      "outputId": 1,
      "inputModuleId": 7,
      "inputId": 5,
      "color": "#c9b70e"
    },
    {
      "id": 18,
      "outputModuleId": 12,
      "outputId": 2,
      "inputModuleId": 7,
      "inputId": 6,
      "color": "#c91847"
    },
    {
      "id": 19,
      "outputModuleId": 13,
      "outputId": 3,
      "inputModuleId": 14,
      "inputId": 0,
      "color": "#0c8e15"
    },
    {
      "id": 20,
      "outputModuleId": 14,
      "outputId": 0,
      "inputModuleId": 12,
      "inputId": 8,
      "color": "#0986ad"
    },
    {
      "id": 21,
      "outputModuleId": 5,
      "outputId": 8,
      "inputModuleId": 15,
      "inputId": 0,
      "color": "#c9b70e"
    },
    {
      "id": 22,
      "outputModuleId": 5,
      "outputId": 4,
      "inputModuleId": 15,
      "inputId": 1,
      "color": "#c91847"
    },
    {
      "id": 23,
      "outputModuleId": 15,
      "outputId": 4,
      "inputModuleId": 14,
      "inputId": 3,
      "color": "#0c8e15"
    },
    {
      "id": 24,
      "outputModuleId": 5,
      "outputId": 9,
      "inputModuleId": 16,
      "inputId": 5,
      "color": "#c9b70e"
    },
    {
      "id": 25,
      "outputModuleId": 16,
      "outputId": 0,
      "inputModuleId": 17,
      "inputId": 8,
      "color": "#0986ad"
    },
    {
      "id": 26,
      "outputModuleId": 5,
      "outputId": 5,
      "inputModuleId": 16,
      "inputId": 4,
      "color": "#c9b70e"
    },
    {
      "id": 27,
      "outputModuleId": 7,
      "outputId": 1,
      "inputModuleId": 2,
      "inputId": 0,
      "color": "#0986ad"
    },
    {
      "id": 28,
      "outputModuleId": 7,
      "outputId": 2,
      "inputModuleId": 2,
      "inputId": 1,
      "color": "#c9b70e"
    },
    {
      "id": 29,
      "outputModuleId": 17,
      "outputId": 1,
      "inputModuleId": 4,
      "inputId": 2,
      "color": "#c91847"
    },
    {
      "id": 30,
      "outputModuleId": 17,
      "outputId": 2,
      "inputModuleId": 4,
      "inputId": 3,
      "color": "#0c8e15"
    },
    {
      "id": 31,
      "outputModuleId": 8,
      "outputId": 2,
      "inputModuleId": 18,
      "inputId": 0,
      "color": "#c9b70e"
    },
    {
      "id": 32,
      "outputModuleId": 18,
      "outputId": 1,
      "inputModuleId": 3,
      "inputId": 0,
      "color": "#c91847"
    },
    {
      "id": 33,
      "outputModuleId": 19,
      "outputId": 3,
      "inputModuleId": 16,
      "inputId": 2,
      "color": "#0c8e15"
    },
    {
      "id": 34,
      "outputModuleId": 21,
      "outputId": 0,
      "inputModuleId": 20,
      "inputId": 0,
      "color": "#0986ad"
    },
    {
      "id": 35,
      "outputModuleId": 21,
      "outputId": 1,
      "inputModuleId": 20,
      "inputId": 1,
      "color": "#c9b70e"
    },
    {
      "id": 36,
      "outputModuleId": 21,
      "outputId": 3,
      "inputModuleId": 20,
      "inputId": 2,
      "color": "#c91847"
    },
    {
      "id": 37,
      "outputModuleId": 21,
      "outputId": 2,
      "inputModuleId": 20,
      "inputId": 3,
      "color": "#0c8e15"
    },
    {
      "id": 38,
      "outputModuleId": 20,
      "outputId": 8,
      "inputModuleId": 22,
      "inputId": 0,
      "color": "#0986ad"
    },
    {
      "id": 39,
      "outputModuleId": 20,
      "outputId": 4,
      "inputModuleId": 23,
      "inputId": 3,
      "color": "#c9b70e"
    },
    {
      "id": 40,
      "outputModuleId": 24,
      "outputId": 1,
      "inputModuleId": 17,
      "inputId": 5,
      "color": "#c91847"
    },
    {
      "id": 41,
      "outputModuleId": 24,
      "outputId": 2,
      "inputModuleId": 17,
      "inputId": 6,
      "color": "#0c8e15"
    },
    {
      "id": 42,
      "outputModuleId": 23,
      "outputId": 0,
      "inputModuleId": 6,
      "inputId": 0,
      "color": "#c9b70e"
    },
    {
      "id": 43,
      "outputModuleId": 20,
      "outputId": 5,
      "inputModuleId": 25,
      "inputId": 0,
      "color": "#c91847"
    },
    {
      "id": 44,
      "outputModuleId": 15,
      "outputId": 5,
      "inputModuleId": 25,
      "inputId": 2,
      "color": "#0986ad"
    },
    {
      "id": 45,
      "outputModuleId": 25,
      "outputId": 0,
      "inputModuleId": 6,
      "inputId": 1,
      "color": "#c9b70e"
    },
    {
      "id": 46,
      "outputModuleId": 20,
      "outputId": 6,
      "inputModuleId": 26,
      "inputId": 0,
      "color": "#c91847"
    },
    {
      "id": 47,
      "outputModuleId": 26,
      "outputId": 0,
      "inputModuleId": 6,
      "inputId": 2,
      "color": "#0986ad"
    },
    {
      "id": 48,
      "outputModuleId": 6,
      "outputId": 0,
      "inputModuleId": 24,
      "inputId": 8,
      "color": "#0986ad"
    },
    {
      "id": 49,
      "outputModuleId": 20,
      "outputId": 7,
      "inputModuleId": 27,
      "inputId": 0,
      "color": "#c9b70e"
    },
    {
      "id": 50,
      "outputModuleId": 27,
      "outputId": 0,
      "inputModuleId": 6,
      "inputId": 3,
      "color": "#c91847"
    },
    {
      "id": 51,
      "outputModuleId": 19,
      "outputId": 4,
      "inputModuleId": 6,
      "inputId": 8,
      "color": "#0986ad"
    },
    {
      "id": 52,
      "outputModuleId": 29,
      "outputId": 1,
      "inputModuleId": 21,
      "inputId": 1,
      "color": "#0c8e15"
    },
    {
      "id": 54,
      "outputModuleId": 30,
      "outputId": 0,
      "inputModuleId": 29,
      "inputId": 0,
      "color": "#c9b70e"
    },
    {
      "id": 55,
      "outputModuleId": 8,
      "outputId": 3,
      "inputModuleId": 20,
      "inputId": 8,
      "color": "#0c8e15"
    }
  ]
}