{
  "version": "1.1.6",
  "modules": [
    {
      "id": 1,
      "plugin": "Core",
      "version": "1.1.6",
      "model": "AudioInterface",
      "params": [],
      "leftModuleId": 146,
      "data": {
        "audio": {
          "driver": 5,
          "deviceName": "Apple Inc.: External Headphones",
          "offset": 0,
          "maxChannels": 8,
          "sampleRate": 44100,
          "blockSize": 1024
        }
      },
      "pos": [
        54,
        1
      ]
    },
    {
      "id": 137,
      "plugin": "Geodesics",
      "version": "1.2.0",
      "model": "Branes",
      "params": [
        {
          "id": 0,
          "value": 0.0
        },
        {
          "id": 1,
          "value": 0.0
        },
        {
          "id": 2,
          "value": 0.0
        },
        {
          "id": 3,
          "value": 0.0
        }
      ],
      "leftModuleId": 139,
      "rightModuleId": 140,
      "data": {
        "panelTheme": 1,
        "vibrations0": 0,
        "vibrations1": 0,
        "noiseRange0": 0.0,
        "noiseRange1": 0.0
      },
      "pos": [
        20,
        0
      ]
    },
    {
      "id": 139,
      "plugin": "ImpromptuModular",
      "version": "1.1.8",
      "model": "Clocked",
      "params": [
        {
          "id": 0,
          "value": 140.0
        },
        {
          "id": 1,
          "value": 0.0
        },
        {
          "id": 2,
          "value": 0.0
        },
        {
          "id": 3,
          "value": 0.0
        },
        {
          "id": 4,
          "value": 0.0
        },
        {
          "id": 5,
          "value": 0.0
        },
        {
          "id": 6,
          "value": 0.0
        },
        {
          "id": 7,
          "value": 0.0
        },
        {
          "id": 8,
          "value": 0.5
        },
        {
          "id": 9,
          "value": 0.5
        },
        {
          "id": 10,
          "value": 0.5
        },
        {
          "id": 11,
          "value": 0.5
        },
        {
          "id": 12,
          "value": 0.0
        },
        {
          "id": 13,
          "value": 0.0
        },
        {
          "id": 14,
          "value": 0.0
        },
        {
          "id": 15,
          "value": 0.0
        },
        {
          "id": 16,
          "value": 0.0
        },
        {
          "id": 17,
          "value": 0.0
        },
        {
          "id": 18,
          "value": 0.0
        },
        {
          "id": 19,
          "value": 0.0
        }
      ],
      "rightModuleId": 137,
      "data": {
        "panelTheme": 1,
        "running": true,
        "displayDelayNoteMode": true,
        "bpmDetectionMode": false,
        "resetOnStartStop": 0,
        "ppqn": 4,
        "resetClockOutputsHigh": true,
        "momentaryRunInput": true,
        "clockMaster": false
      },
      "pos": [
        0,
        0
      ]
    },
    {
      "id": 140,
      "plugin": "Befaco",
      "version": "1.0.1",
      "model": "DualAtenuverter",
      "params": [
        {
          "id": 0,
          "value": 0.207000032
        },
        {
          "id": 1,
          "value": 0.0
        },
        {
          "id": 2,
          "value": 0.201000094
        },
        {
          "id": 3,
          "value": -0.929999709
        }
      ],
      "leftModuleId": 137,
      "rightModuleId": 141,
      "pos": [
        31,
        0
      ]
    },
    {
      "id": 141,
      "plugin": "JW-Modules",
      "version": "1.0.11",
      "model": "Quantizer",
      "params": [
        {
          "id": 0,
          "value": 0.0
        },
        {
          "id": 1,
          "value": 9.0
        }
      ],
      "leftModuleId": 140,
      "rightModuleId": 143,
      "data": {},
      "pos": [
        36,
        0
      ]
    },
    {
      "id": 142,
      "plugin": "JW-Modules",
      "version": "1.0.11",
      "model": "Quantizer",
      "params": [
        {
          "id": 0,
          "value": 0.0
        },
        {
          "id": 1,
          "value": 9.0
        }
      ],
      "leftModuleId": 143,
      "rightModuleId": 144,
      "data": {},
      "pos": [
        50,
        0
      ]
    },
    {
      "id": 143,
      "plugin": "Bogaudio",
      "version": "1.1.33",
      "model": "Bogaudio-FMOp",
      "params": [
        {
          "id": 0,
          "value": 0.0
        },
        {
          "id": 1,
          "value": 0.0
        },
        {
          "id": 2,
          "value": 0.141421005
        },
        {
          "id": 3,
          "value": 0.226229995
        },
        {
          "id": 4,
          "value": 1.0
        },
        {
          "id": 5,
          "value": 0.316229999
        },
        {
          "id": 6,
          "value": 0.0
        },
        {
          "id": 7,
          "value": 0.091499947
        },
        {
          "id": 8,
          "value": 1.0
        },
        {
          "id": 9,
          "value": 1.0
        },
        {
          "id": 10,
          "value": 1.0
        },
        {
          "id": 11,
          "value": 0.0
        }
      ],
      "leftModuleId": 141,
      "rightModuleId": 142,
      "data": {
        "linearLevel": false
      },
      "pos": [
        40,
        0
      ]
    },
    {
      "id": 144,
      "plugin": "Bogaudio",
      "version": "1.1.33",
      "model": "Bogaudio-FMOp",
      "params": [
        {
          "id": 0,
          "value": 0.0
        },
        {
          "id": 1,
          "value": -0.0300000068
        },
        {
          "id": 2,
          "value": 0.141421005
        },
        {
          "id": 3,
          "value": 0.233730033
        },
        {
          "id": 4,
          "value": 1.0
        },
        {
          "id": 5,
          "value": 0.316229999
        },
        {
          "id": 6,
          "value": 0.0
        },
        {
          "id": 7,
          "value": 0.0569999516
        },
        {
          "id": 8,
          "value": 1.0
        },
        {
          "id": 9,
          "value": 1.0
        },
        {
          "id": 10,
          "value": 1.0
        },
        {
          "id": 11,
          "value": 0.0
        }
      ],
      "leftModuleId": 142,
      "data": {
        "linearLevel": false
      },
      "pos": [
        54,
        0
      ]
    },
    {
      "id": 146,
      "plugin": "Valley",
      "version": "1.0.1",
      "model": "Plateau",
      "params": [
        {
          "id": 0,
          "value": 1.0
        },
        {
          "id": 1,
          "value": 0.434001237
        },
        {
          "id": 2,
          "value": 0.0
        },
        {
          "id": 3,
          "value": 10.0
        },
        {
          "id": 4,
          "value": 10.0
        },
        {
          "id": 5,
          "value": 0.392000258
        },
        {
          "id": 6,
          "value": 10.0
        },
        {
          "id": 7,
          "value": 0.478408396
        },
        {
          "id": 8,
          "value": 10.0
        },
        {
          "id": 9,
          "value": 10.0
        },
        {
          "id": 10,
          "value": 0.0
        },
        {
          "id": 11,
          "value": 0.5
        },
        {
          "id": 12,
          "value": 3.06800056
        },
        {
          "id": 13,
          "value": 0.0
        },
        {
          "id": 14,
          "value": 0.0
        },
        {
          "id": 15,
          "value": 0.0
        },
        {
          "id": 16,
          "value": 0.0
        },
        {
          "id": 17,
          "value": 0.0
        },
        {
          "id": 18,
          "value": 0.0
        },
        {
          "id": 19,
          "value": 0.0
        },
        {
          "id": 20,
          "value": 0.0
        },
        {
          "id": 21,
          "value": 0.0
        },
        {
          "id": 22,
          "value": 0.0
        },
        {
          "id": 23,
          "value": 0.0
        },
        {
          "id": 24,
          "value": 0.0
        },
        {
          "id": 25,
          "value": 0.0
        },
        {
          "id": 26,
          "value": 0.0
        },
        {
          "id": 27,
          "value": 0.0
        },
        {
          "id": 28,
          "value": 0.0
        },
        {
          "id": 29,
          "value": 0.0
        },
        {
          "id": 30,
          "value": 1.0
        }
      ],
      "leftModuleId": 150,
      "rightModuleId": 1,
      "data": {
        "frozen": false,
        "freezeToggle": false,
        "panelStyle": 0,
        "tuned": 0,
        "diffuseInput": 1,
        "preDelayCVSens": 0,
        "inputSensitivity": 0,
        "outputSaturation": 0
      },
      "pos": [
        42,
        1
      ]
    },
    {
      "id": 147,
      "plugin": "GlueTheGiant",
      "version": "1.1.2",
      "model": "BusDepot",
      "params": [
        {
          "id": 0,
          "value": 0.0
        },
        {
          "id": 1,
          "value": 1.0
        },
        {
          "id": 2,
          "value": 0.373000354
        },
        {
          "id": 3,
          "value": 6752.85449
        },
        {
          "id": 4,
          "value": 3501.5415
        }
      ],
      "leftModuleId": 148,
      "rightModuleId": 150,
      "data": {
        "input_on": 1,
        "level_cv_filter": 1,
        "color_theme": 1,
        "fade_cv_mode": 0,
        "audition_depot": 0,
        "auditioned": 0,
        "temped": 0,
        "audition_mode": 0
      },
      "pos": [
        30,
        1
      ]
    },
    {
      "id": 148,
      "plugin": "GlueTheGiant",
      "version": "1.1.2",
      "model": "GigBus",
      "params": [
        {
          "id": 0,
          "value": 0.0
        },
        {
          "id": 1,
          "value": 0.0
        },
        {
          "id": 2,
          "value": 0.511500776
        },
        {
          "id": 3,
          "value": 0.0
        },
        {
          "id": 4,
          "value": 1.0
        }
      ],
      "leftModuleId": 149,
      "rightModuleId": 147,
      "data": {
        "input_on": 1,
        "post_fades": 1,
        "gain": 1.0,
        "color_theme": 1,
        "fade_in": 26.0,
        "fade_out": 26.0,
        "audition_mixer": 0,
        "auditioned": 0,
        "temped": 0
      },
      "pos": [
        26,
        1
      ]
    },
    {
      "id": 149,
      "plugin": "GlueTheGiant",
      "version": "1.1.2",
      "model": "GigBus",
      "params": [
        {
          "id": 0,
          "value": 0.0
        },
        {
          "id": 1,
          "value": 0.0
        },
        {
          "id": 2,
          "value": 0.570901096
        },
        {
          "id": 3,
          "value": 0.0
        },
        {
          "id": 4,
          "value": 1.0
        }
      ],
      "leftModuleId": 151,
      "rightModuleId": 148,
      "data": {
        "input_on": 1,
        "post_fades": 1,
        "gain": 1.0,
        "color_theme": 1,
        "fade_in": 26.0,
        "fade_out": 26.0,
        "audition_mixer": 0,
        "auditioned": 0,
        "temped": 0
      },
      "pos": [
        22,
        1
      ]
    },
    {
      "id": 150,
      "plugin": "GlueTheGiant",
      "version": "1.1.2",
      "model": "BusRoute",
      "params": [
        {
          "id": 0,
          "value": 0.0
        },
        {
          "id": 1,
          "value": 0.0
        },
        {
          "id": 2,
          "value": 0.0
        },
        {
          "id": 3,
          "value": 0.0
        },
        {
          "id": 4,
          "value": 0.0
        },
        {
          "id": 5,
          "value": 0.0
        }
      ],
      "leftModuleId": 147,
      "rightModuleId": 146,
      "data": {
        "onau_1": 1,
        "onau_2": 1,
        "onau_3": 1,
        "auditioning": 0,
        "bus_audition1": 0,
        "bus_audition2": 0,
        "bus_audition3": 0,
        "temped1": 0,
        "temped2": 0,
        "temped3": 0,
        "color_theme": 1
      },
      "pos": [
        36,
        1
      ]
    },
    {
      "id": 151,
      "plugin": "Fundamental",
      "version": "1.4.0",
      "model": "Scope",
      "params": [
        {
          "id": 0,
          "value": 0.0
        },
        {
          "id": 1,
          "value": 0.0
        },
        {
          "id": 2,
          "value": 0.0
        },
        {
          "id": 3,
          "value": 0.0
        },
        {
          "id": 4,
          "value": 6.0
        },
        {
          "id": 5,
          "value": 0.0
        },
        {
          "id": 6,
          "value": 0.0
        },
        {
          "id": 7,
          "value": 0.0
        }
      ],
      "rightModuleId": 149,
      "data": {
        "lissajous": 0,
        "external": 0
      },
      "pos": [
        9,
        1
      ]
    }
  ],
  "cables": [
    {
      "id": 277,
      "outputModuleId": 140,
      "outputId": 0,
      "inputModuleId": 141,
      "inputId": 2,
      "color": "#0986ad"
    },
    {
      "id": 278,
      "outputModuleId": 140,
      "outputId": 1,
      "inputModuleId": 142,
      "inputId": 2,
      "color": "#c9b70e"
    },
    {
      "id": 279,
      "outputModuleId": 141,
      "outputId": 0,
      "inputModuleId": 143,
      "inputId": 4,
      "color": "#0c8e15"
    },
    {
      "id": 280,
      "outputModuleId": 142,
      "outputId": 0,
      "inputModuleId": 144,
      "inputId": 4,
      "color": "#c91847"
    },
    {
      "id": 289,
      "outputModuleId": 139,
      "outputId": 0,
      "inputModuleId": 137,
      "inputId": 14,
      "color": "#0c8e15"
    },
    {
      "id": 290,
      "outputModuleId": 139,
      "outputId": 1,
      "inputModuleId": 143,
      "inputId": 5,
      "color": "#c91847"
    },
    {
      "id": 291,
      "outputModuleId": 139,
      "outputId": 2,
      "inputModuleId": 144,
      "inputId": 5,
      "color": "#0986ad"
    },
    {
      "id": 292,
      "outputModuleId": 137,
      "outputId": 4,
      "inputModuleId": 140,
      "inputId": 0,
      "color": "#c9b70e"
    },
    {
      "id": 293,
      "outputModuleId": 137,
      "outputId": 2,
      "inputModuleId": 140,
      "inputId": 1,
      "color": "#0c8e15"
    },
    {
      "id": 296,
      "outputModuleId": 149,
      "outputId": 0,
      "inputModuleId": 148,
      "inputId": 3,
      "color": "#c91847"
    },
    {
      "id": 297,
      "outputModuleId": 148,
      "outputId": 0,
      "inputModuleId": 147,
      "inputId": 4,
      "color": "#c9b70e"
    },
    {
      "id": 298,
      "outputModuleId": 150,
      "outputId": 0,
      "inputModuleId": 146,
      "inputId": 0,
      "color": "#0c8e15"
    },
    {
      "id": 299,
      "outputModuleId": 150,
      "outputId": 1,
      "inputModuleId": 146,
      "inputId": 1,
      "color": "#c91847"
    },
    {
      "id": 300,
      "outputModuleId": 146,
      "outputId": 0,
      "inputModuleId": 150,
      "inputId": 0,
      "color": "#0986ad"
    },
    {
      "id": 301,
      "outputModuleId": 146,
      "outputId": 1,
      "inputModuleId": 150,
      "inputId": 1,
      "color": "#c9b70e"
    },
    {
      "id": 303,
      "outputModuleId": 147,
      "outputId": 2,
      "inputModuleId": 150,
      "inputId": 6,
      "color": "#c91847"
    },
    {
      "id": 285,
      "outputModuleId": 150,
      "outputId": 7,
      "inputModuleId": 1,
      "inputId": 0,
      "color": "#0c8e15"
    },
    {
      "id": 286,
      "outputModuleId": 150,
      "outputId": 8,
      "inputModuleId": 1,
      "inputId": 1,
      "color": "#c91847"
    },
    {
      "id": 281,
      "outputModuleId": 143,
      "outputId": 0,
      "inputModuleId": 149,
      "inputId": 1,
      "color": "#0986ad"
    },
    {
      "id": 282,
      "outputModuleId": 144,
      "outputId": 0,
      "inputModuleId": 148,
      "inputId": 1,
      "color": "#c9b70e"
    },
    {
      "id": 304,
      "outputModuleId": 137,
      "outputId": 2,
      "inputModuleId": 151,
      "inputId": 0,
      "color": "#0986ad"
    },
    {
      "id": 305,
      "outputModuleId": 137,
      "outputId": 4,
      "inputModuleId": 151,
      "inputId": 1,
      "color": "#c9b70e"
    }
  ]
}