{
  "version": "1.1.6",
  "modules": [
    {
      "id": 0,
      "plugin": "Core",
      "version": "1.1.6",
      "model": "AudioInterface",
      "params": [],
      "leftModuleId": 52,
      "rightModuleId": 62,
      "data": {
        "audio": {
          "driver": 5,
          "deviceName": "Apple Inc.: External Headphones",
          "offset": 0,
          "maxChannels": 8,
          "sampleRate": 44100,
          "blockSize": 4096
        }
      },
      "pos": [
        53,
        2
      ]
    },
    {
      "id": 1,
      "plugin": "ImpromptuModular",
      "version": "1.1.8",
      "model": "Clocked",
      "params": [
        {
          "id": 0,
          "value": 155.0
        },
        {
          "id": 1,
          "value": -2.0
        },
        {
          "id": 2,
          "value": 2.0
        },
        {
          "id": 3,
          "value": 0.0
        },
        {
          "id": 4,
          "value": 0.0
        },
        {
          "id": 5,
          "value": 0.0
        },
        {
          "id": 6,
          "value": 0.0
        },
        {
          "id": 7,
          "value": 0.0
        },
        {
          "id": 8,
          "value": 0.5
        },
        {
          "id": 9,
          "value": 0.5
        },
        {
          "id": 10,
          "value": 0.5
        },
        {
          "id": 11,
          "value": 0.5
        },
        {
          "id": 12,
          "value": 0.0
        },
        {
          "id": 13,
          "value": 0.0
        },
        {
          "id": 14,
          "value": 0.0
        },
        {
          "id": 15,
          "value": 0.0
        },
        {
          "id": 16,
          "value": 0.0
        },
        {
          "id": 17,
          "value": 0.0
        },
        {
          "id": 18,
          "value": 0.0
        },
        {
          "id": 19,
          "value": 0.0
        }
      ],
      "rightModuleId": 5,
      "data": {
        "panelTheme": 0,
        "running": true,
        "displayDelayNoteMode": true,
        "bpmDetectionMode": false,
        "resetOnStartStop": 0,
        "ppqn": 4,
        "resetClockOutputsHigh": true,
        "momentaryRunInput": true,
        "clockMaster": false
      },
      "pos": [
        0,
        0
      ]
    },
    {
      "id": 4,
      "plugin": "Geodesics",
      "version": "1.2.0",
      "model": "Ions",
      "params": [
        {
          "id": 0,
          "value": 0.0
        },
        {
          "id": 1,
          "value": 0.0
        },
        {
          "id": 2,
          "value": 0.476696014
        },
        {
          "id": 3,
          "value": 0.549920857
        },
        {
          "id": 4,
          "value": 0.759187579
        },
        {
          "id": 5,
          "value": 0.654765904
        },
        {
          "id": 6,
          "value": 0.300449908
        },
        {
          "id": 7,
          "value": 0.94424665
        },
        {
          "id": 8,
          "value": 0.5489375
        },
        {
          "id": 9,
          "value": 0.0487120152
        },
        {
          "id": 10,
          "value": 0.238136649
        },
        {
          "id": 11,
          "value": 0.757167935
        },
        {
          "id": 12,
          "value": 0.318921089
        },
        {
          "id": 13,
          "value": 0.341989756
        },
        {
          "id": 14,
          "value": 0.796386957
        },
        {
          "id": 15,
          "value": 0.563591301
        },
        {
          "id": 16,
          "value": 0.953334749
        },
        {
          "id": 17,
          "value": 0.462138474
        },
        {
          "id": 18,
          "value": 0.0
        },
        {
          "id": 19,
          "value": 0.0
        },
        {
          "id": 20,
          "value": 0.0
        },
        {
          "id": 21,
          "value": 0.0
        },
        {
          "id": 22,
          "value": 0.0
        },
        {
          "id": 23,
          "value": 0.0
        },
        {
          "id": 24,
          "value": 0.0
        },
        {
          "id": 25,
          "value": 0.0
        },
        {
          "id": 26,
          "value": 0.0
        },
        {
          "id": 27,
          "value": 0.0
        }
      ],
      "leftModuleId": 5,
      "rightModuleId": 14,
      "data": {
        "panelTheme": 1,
        "running": true,
        "resetOnRun": false,
        "quantize": 3,
        "uncertainty": false,
        "stepIndexes0": 1,
        "stepIndexes1": 1,
        "states0": 0,
        "states1": 0,
        "ranges0": 1,
        "ranges1": 0,
        "leap": true
      },
      "pos": [
        39,
        0
      ]
    },
    {
      "id": 5,
      "plugin": "Geodesics",
      "version": "1.2.0",
      "model": "Ions",
      "params": [
        {
          "id": 0,
          "value": 0.0
        },
        {
          "id": 1,
          "value": 0.0
        },
        {
          "id": 2,
          "value": 1.0
        },
        {
          "id": 3,
          "value": 0.0
        },
        {
          "id": 4,
          "value": 0.0
        },
        {
          "id": 5,
          "value": 0.0
        },
        {
          "id": 6,
          "value": 0.0
        },
        {
          "id": 7,
          "value": 0.0
        },
        {
          "id": 8,
          "value": 0.0
        },
        {
          "id": 9,
          "value": 0.0
        },
        {
          "id": 10,
          "value": 0.5
        },
        {
          "id": 11,
          "value": 0.589999974
        },
        {
          "id": 12,
          "value": 0.837500036
        },
        {
          "id": 13,
          "value": 0.377000004
        },
        {
          "id": 14,
          "value": 0.5
        },
        {
          "id": 15,
          "value": 0.5
        },
        {
          "id": 16,
          "value": 0.5
        },
        {
          "id": 17,
          "value": 0.0
        },
        {
          "id": 18,
          "value": 0.0
        },
        {
          "id": 19,
          "value": 0.0
        },
        {
          "id": 20,
          "value": 0.0
        },
        {
          "id": 21,
          "value": 0.0
        },
        {
          "id": 22,
          "value": 0.0
        },
        {
          "id": 23,
          "value": 0.0
        },
        {
          "id": 24,
          "value": 0.0
        },
        {
          "id": 25,
          "value": 0.0
        },
        {
          "id": 26,
          "value": 0.0
        },
        {
          "id": 27,
          "value": 0.0
        }
      ],
      "leftModuleId": 1,
      "rightModuleId": 4,
      "data": {
        "panelTheme": 1,
        "running": true,
        "resetOnRun": false,
        "quantize": 2,
        "uncertainty": false,
        "stepIndexes0": 1,
        "stepIndexes1": 2,
        "states0": 1,
        "states1": 1,
        "ranges0": 2,
        "ranges1": 1,
        "leap": false
      },
      "pos": [
        20,
        0
      ]
    },
    {
      "id": 6,
      "plugin": "Befaco",
      "version": "1.0.1",
      "model": "EvenVCO",
      "params": [
        {
          "id": 0,
          "value": -3.0
        },
        {
          "id": 1,
          "value": 0.0
        },
        {
          "id": 2,
          "value": 0.0
        }
      ],
      "rightModuleId": 7,
      "pos": [
        13,
        1
      ]
    },
    {
      "id": 7,
      "plugin": "Befaco",
      "version": "1.0.1",
      "model": "EvenVCO",
      "params": [
        {
          "id": 0,
          "value": -1.0
        },
        {
          "id": 1,
          "value": 0.0
        },
        {
          "id": 2,
          "value": 0.0
        }
      ],
      "leftModuleId": 6,
      "rightModuleId": 8,
      "pos": [
        21,
        1
      ]
    },
    {
      "id": 8,
      "plugin": "Befaco",
      "version": "1.0.1",
      "model": "EvenVCO",
      "params": [
        {
          "id": 0,
          "value": -0.0
        },
        {
          "id": 1,
          "value": 0.0
        },
        {
          "id": 2,
          "value": 0.0
        }
      ],
      "leftModuleId": 7,
      "rightModuleId": 17,
      "pos": [
        29,
        1
      ]
    },
    {
      "id": 14,
      "plugin": "JW-Modules",
      "version": "1.0.11",
      "model": "Quantizer",
      "params": [
        {
          "id": 0,
          "value": 0.0
        },
        {
          "id": 1,
          "value": 11.0
        }
      ],
      "leftModuleId": 4,
      "rightModuleId": 15,
      "data": {},
      "pos": [
        58,
        0
      ]
    },
    {
      "id": 15,
      "plugin": "JW-Modules",
      "version": "1.0.11",
      "model": "Quantizer",
      "params": [
        {
          "id": 0,
          "value": 0.0
        },
        {
          "id": 1,
          "value": 11.0
        }
      ],
      "leftModuleId": 14,
      "rightModuleId": 16,
      "data": {},
      "pos": [
        62,
        0
      ]
    },
    {
      "id": 16,
      "plugin": "JW-Modules",
      "version": "1.0.11",
      "model": "Quantizer",
      "params": [
        {
          "id": 0,
          "value": 0.0
        },
        {
          "id": 1,
          "value": 11.0
        }
      ],
      "leftModuleId": 15,
      "data": {},
      "pos": [
        66,
        0
      ]
    },
    {
      "id": 17,
      "plugin": "JW-Modules",
      "version": "1.0.11",
      "model": "FullScope",
      "params": [
        {
          "id": 0,
          "value": 1.0
        },
        {
          "id": 1,
          "value": 0.0
        },
        {
          "id": 2,
          "value": 1.0
        },
        {
          "id": 3,
          "value": 0.0
        },
        {
          "id": 4,
          "value": -14.0
        },
        {
          "id": 5,
          "value": 0.0
        },
        {
          "id": 6,
          "value": 0.0
        },
        {
          "id": 7,
          "value": 0.0
        },
        {
          "id": 8,
          "value": 0.0
        }
      ],
      "leftModuleId": 8,
      "rightModuleId": 59,
      "data": {
        "lissajous": 1,
        "external": 0
      },
      "width": 270.0,
      "height": 380.0,
      "pos": [
        37,
        1
      ]
    },
    {
      "id": 52,
      "plugin": "GlueTheGiant",
      "version": "1.1.2",
      "model": "BusDepot",
      "params": [
        {
          "id": 0,
          "value": 0.0
        },
        {
          "id": 1,
          "value": 1.0
        },
        {
          "id": 2,
          "value": 0.528100073
        },
        {
          "id": 3,
          "value": 3613.65503
        },
        {
          "id": 4,
          "value": 4510.56836
        }
      ],
      "leftModuleId": 54,
      "rightModuleId": 0,
      "data": {
        "input_on": 0,
        "level_cv_filter": 1,
        "color_theme": 1,
        "fade_cv_mode": 0,
        "audition_depot": 0,
        "auditioned": 0,
        "temped": 0,
        "audition_mode": 0
      },
      "pos": [
        47,
        2
      ]
    },
    {
      "id": 53,
      "plugin": "GlueTheGiant",
      "version": "1.1.2",
      "model": "BusRoute",
      "params": [
        {
          "id": 0,
          "value": 0.0
        },
        {
          "id": 1,
          "value": 0.0
        },
        {
          "id": 2,
          "value": 0.0
        },
        {
          "id": 3,
          "value": 0.0
        },
        {
          "id": 4,
          "value": 0.0
        },
        {
          "id": 5,
          "value": 0.0
        }
      ],
      "leftModuleId": 56,
      "rightModuleId": 54,
      "data": {
        "onau_1": 1,
        "onau_2": 1,
        "onau_3": 1,
        "auditioning": 0,
        "bus_audition1": 0,
        "bus_audition2": 0,
        "bus_audition3": 0,
        "temped1": 0,
        "temped2": 0,
        "temped3": 0,
        "color_theme": 1
      },
      "pos": [
        29,
        2
      ]
    },
    {
      "id": 54,
      "plugin": "Valley",
      "version": "1.0.1",
      "model": "Plateau",
      "params": [
        {
          "id": 0,
          "value": 0.0
        },
        {
          "id": 1,
          "value": 0.351999879
        },
        {
          "id": 2,
          "value": 0.0
        },
        {
          "id": 3,
          "value": 8.72499752
        },
        {
          "id": 4,
          "value": 8.8599987
        },
        {
          "id": 5,
          "value": 0.469999999
        },
        {
          "id": 6,
          "value": 10.0
        },
        {
          "id": 7,
          "value": 0.560749829
        },
        {
          "id": 8,
          "value": 8.84499836
        },
        {
          "id": 9,
          "value": 9.12999725
        },
        {
          "id": 10,
          "value": 0.0
        },
        {
          "id": 11,
          "value": 0.5
        },
        {
          "id": 12,
          "value": 0.407999992
        },
        {
          "id": 13,
          "value": 0.0
        },
        {
          "id": 14,
          "value": 0.0
        },
        {
          "id": 15,
          "value": 0.0
        },
        {
          "id": 16,
          "value": 0.0
        },
        {
          "id": 17,
          "value": 0.0
        },
        {
          "id": 18,
          "value": 0.0419999994
        },
        {
          "id": 19,
          "value": 0.0
        },
        {
          "id": 20,
          "value": 0.0
        },
        {
          "id": 21,
          "value": 0.0
        },
        {
          "id": 22,
          "value": 0.0
        },
        {
          "id": 23,
          "value": 0.0
        },
        {
          "id": 24,
          "value": 0.0
        },
        {
          "id": 25,
          "value": 0.0
        },
        {
          "id": 26,
          "value": 0.0
        },
        {
          "id": 27,
          "value": 0.0
        },
        {
          "id": 28,
          "value": 0.0
        },
        {
          "id": 29,
          "value": 0.0
        },
        {
          "id": 30,
          "value": 1.0
        }
      ],
      "leftModuleId": 53,
      "rightModuleId": 52,
      "data": {
        "frozen": false,
        "freezeToggle": false,
        "panelStyle": 0,
        "tuned": 0,
        "diffuseInput": 1,
        "preDelayCVSens": 0,
        "inputSensitivity": 0,
        "outputSaturation": 0
      },
      "pos": [
        35,
        2
      ]
    },
    {
      "id": 55,
      "plugin": "GlueTheGiant",
      "version": "1.1.2",
      "model": "SchoolBus",
      "params": [
        {
          "id": 0,
          "value": 0.0
        },
        {
          "id": 1,
          "value": 0.5
        },
        {
          "id": 2,
          "value": 0.0
        },
        {
          "id": 3,
          "value": 0.0
        },
        {
          "id": 4,
          "value": 0.0
        },
        {
          "id": 5,
          "value": 0.181500137
        },
        {
          "id": 6,
          "value": 1.0
        },
        {
          "id": 7,
          "value": 0.0
        }
      ],
      "rightModuleId": 57,
      "data": {
        "input_on": 1,
        "blue_post_fade": 0,
        "orange_post_fade": 0,
        "gain": 1.0,
        "pan_cv_filter": 1,
        "level_cv_filter": 1,
        "fade_in": 26.0,
        "fade_out": 26.0,
        "audition_mixer": 0,
        "auditioned": 0,
        "temped": 0,
        "color_theme": 1
      },
      "pos": [
        11,
        2
      ]
    },
    {
      "id": 56,
      "plugin": "GlueTheGiant",
      "version": "1.1.2",
      "model": "SchoolBus",
      "params": [
        {
          "id": 0,
          "value": 0.0
        },
        {
          "id": 1,
          "value": 0.5
        },
        {
          "id": 2,
          "value": 0.0
        },
        {
          "id": 3,
          "value": 0.0
        },
        {
          "id": 4,
          "value": 0.0
        },
        {
          "id": 5,
          "value": 0.171599865
        },
        {
          "id": 6,
          "value": 1.0
        },
        {
          "id": 7,
          "value": 0.0
        }
      ],
      "leftModuleId": 57,
      "rightModuleId": 53,
      "data": {
        "input_on": 1,
        "blue_post_fade": 0,
        "orange_post_fade": 0,
        "gain": 1.0,
        "pan_cv_filter": 1,
        "level_cv_filter": 1,
        "fade_in": 26.0,
        "fade_out": 26.0,
        "audition_mixer": 0,
        "auditioned": 0,
        "temped": 0,
        "color_theme": 1
      },
      "pos": [
        23,
        2
      ]
    },
    {
      "id": 57,
      "plugin": "GlueTheGiant",
      "version": "1.1.2",
      "model": "SchoolBus",
      "params": [
        {
          "id": 0,
          "value": 0.0
        },
        {
          "id": 1,
          "value": 0.5
        },
        {
          "id": 2,
          "value": 0.0
        },
        {
          "id": 3,
          "value": 0.0
        },
        {
          "id": 4,
          "value": 0.0
        },
        {
          "id": 5,
          "value": 0.151799992
        },
        {
          "id": 6,
          "value": 1.0
        },
        {
          "id": 7,
          "value": 0.0
        }
      ],
      "leftModuleId": 55,
      "rightModuleId": 56,
      "data": {
        "input_on": 1,
        "blue_post_fade": 0,
        "orange_post_fade": 0,
        "gain": 1.0,
        "pan_cv_filter": 1,
        "level_cv_filter": 1,
        "fade_in": 26.0,
        "fade_out": 26.0,
        "audition_mixer": 0,
        "auditioned": 0,
        "temped": 0,
        "color_theme": 1
      },
      "pos": [
        17,
        2
      ]
    },
    {
      "id": 59,
      "plugin": "AudibleInstruments",
      "version": "1.3.1",
      "model": "Ripples",
      "params": [
        {
          "id": 0,
          "value": 0.287999958
        },
        {
          "id": 1,
          "value": 10.346261
        },
        {
          "id": 2,
          "value": 0.417000055
        }
      ],
      "leftModuleId": 17,
      "rightModuleId": 60,
      "pos": [
        55,
        1
      ]
    },
    {
      "id": 60,
      "plugin": "Fundamental",
      "version": "1.4.0",
      "model": "LFO2",
      "params": [
        {
          "id": 0,
          "value": 1.0
        },
        {
          "id": 1,
          "value": 1.0
        },
        {
          "id": 2,
          "value": -4.9939971
        },
        {
          "id": 3,
          "value": 0.899998605
        },
        {
          "id": 4,
          "value": 0.5
        }
      ],
      "leftModuleId": 59,
      "rightModuleId": 61,
      "pos": [
        63,
        1
      ]
    },
    {
      "id": 61,
      "plugin": "Fundamental",
      "version": "1.4.0",
      "model": "Scope",
      "params": [
        {
          "id": 0,
          "value": 0.0
        },
        {
          "id": 1,
          "value": -4.98000145
        },
        {
          "id": 2,
          "value": 0.0
        },
        {
          "id": 3,
          "value": -5.00999689
        },
        {
          "id": 4,
          "value": 6.0
        },
        {
          "id": 5,
          "value": 0.0
        },
        {
          "id": 6,
          "value": 0.0
        },
        {
          "id": 7,
          "value": 0.0
        }
      ],
      "leftModuleId": 60,
      "data": {
        "lissajous": 0,
        "external": 0
      },
      "pos": [
        69,
        1
      ]
    },
    {
      "id": 62,
      "plugin": "Fundamental",
      "version": "1.4.0",
      "model": "LFO2",
      "params": [
        {
          "id": 0,
          "value": 1.0
        },
        {
          "id": 1,
          "value": 1.0
        },
        {
          "id": 2,
          "value": -4.34599876
        },
        {
          "id": 3,
          "value": 0.496500611
        },
        {
          "id": 4,
          "value": 0.5
        }
      ],
      "leftModuleId": 0,
      "pos": [
        63,
        2
      ]
    }
  ],
  "cables": [
    {
      "id": 108,
      "outputModuleId": 1,
      "outputId": 0,
      "inputModuleId": 4,
      "inputId": 0,
      "color": "#c91847"
    },
    {
      "id": 109,
      "outputModuleId": 1,
      "outputId": 1,
      "inputModuleId": 5,
      "inputId": 1,
      "color": "#0986ad"
    },
    {
      "id": 110,
      "outputModuleId": 5,
      "outputId": 0,
      "inputModuleId": 4,
      "inputId": 5,
      "color": "#c9b70e"
    },
    {
      "id": 111,
      "outputModuleId": 1,
      "outputId": 2,
      "inputModuleId": 5,
      "inputId": 2,
      "color": "#c91847"
    },
    {
      "id": 120,
      "outputModuleId": 5,
      "outputId": 1,
      "inputModuleId": 14,
      "inputId": 2,
      "color": "#c9b70e"
    },
    {
      "id": 121,
      "outputModuleId": 14,
      "outputId": 0,
      "inputModuleId": 6,
      "inputId": 1,
      "color": "#c91847"
    },
    {
      "id": 122,
      "outputModuleId": 4,
      "outputId": 0,
      "inputModuleId": 15,
      "inputId": 2,
      "color": "#0986ad"
    },
    {
      "id": 123,
      "outputModuleId": 15,
      "outputId": 0,
      "inputModuleId": 7,
      "inputId": 1,
      "color": "#c9b70e"
    },
    {
      "id": 124,
      "outputModuleId": 4,
      "outputId": 1,
      "inputModuleId": 16,
      "inputId": 2,
      "color": "#c9b70e"
    },
    {
      "id": 125,
      "outputModuleId": 16,
      "outputId": 0,
      "inputModuleId": 8,
      "inputId": 1,
      "color": "#c91847"
    },
    {
      "id": 127,
      "outputModuleId": 6,
      "outputId": 1,
      "inputModuleId": 17,
      "inputId": 0,
      "color": "#c9b70e"
    },
    {
      "id": 128,
      "outputModuleId": 7,
      "outputId": 1,
      "inputModuleId": 17,
      "inputId": 1,
      "color": "#c91847"
    },
    {
      "id": 141,
      "outputModuleId": 53,
      "outputId": 0,
      "inputModuleId": 54,
      "inputId": 0,
      "color": "#c91847"
    },
    {
      "id": 142,
      "outputModuleId": 53,
      "outputId": 1,
      "inputModuleId": 54,
      "inputId": 1,
      "color": "#c91847"
    },
    {
      "id": 143,
      "outputModuleId": 54,
      "outputId": 0,
      "inputModuleId": 53,
      "inputId": 0,
      "color": "#c91847"
    },
    {
      "id": 144,
      "outputModuleId": 54,
      "outputId": 1,
      "inputModuleId": 53,
      "inputId": 1,
      "color": "#c91847"
    },
    {
      "id": 147,
      "outputModuleId": 53,
      "outputId": 6,
      "inputModuleId": 52,
      "inputId": 4,
      "color": "#0c8e15"
    },
    {
      "id": 148,
      "outputModuleId": 52,
      "outputId": 0,
      "inputModuleId": 0,
      "inputId": 0,
      "color": "#c91847"
    },
    {
      "id": 149,
      "outputModuleId": 52,
      "outputId": 1,
      "inputModuleId": 0,
      "inputId": 1,
      "color": "#c91847"
    },
    {
      "id": 118,
      "outputModuleId": 6,
      "outputId": 2,
      "inputModuleId": 55,
      "inputId": 0,
      "color": "#0c8e15"
    },
    {
      "id": 119,
      "outputModuleId": 7,
      "outputId": 2,
      "inputModuleId": 57,
      "inputId": 0,
      "color": "#c9b70e"
    },
    {
      "id": 126,
      "outputModuleId": 8,
      "outputId": 2,
      "inputModuleId": 56,
      "inputId": 0,
      "color": "#0c8e15"
    },
    {
      "id": 155,
      "outputModuleId": 55,
      "outputId": 0,
      "inputModuleId": 57,
      "inputId": 7,
      "color": "#c9b70e"
    },
    {
      "id": 156,
      "outputModuleId": 57,
      "outputId": 0,
      "inputModuleId": 56,
      "inputId": 7,
      "color": "#0c8e15"
    },
    {
      "id": 157,
      "outputModuleId": 56,
      "outputId": 0,
      "inputModuleId": 53,
      "inputId": 6,
      "color": "#c91847"
    },
    {
      "id": 152,
      "outputModuleId": 53,
      "outputId": 2,
      "inputModuleId": 59,
      "inputId": 3,
      "color": "#c91847"
    },
    {
      "id": 150,
      "outputModuleId": 59,
      "outputId": 2,
      "inputModuleId": 53,
      "inputId": 2,
      "color": "#c91847"
    },
    {
      "id": 158,
      "outputModuleId": 59,
      "outputId": 2,
      "inputModuleId": 53,
      "inputId": 3,
      "color": "#c91847"
    },
    {
      "id": 159,
      "outputModuleId": 8,
      "outputId": 1,
      "inputModuleId": 17,
      "inputId": 3,
      "color": "#c9b70e"
    },
    {
      "id": 162,
      "outputModuleId": 60,
      "outputId": 0,
      "inputModuleId": 59,
      "inputId": 2,
      "color": "#c9b70e"
    },
    {
      "id": 163,
      "outputModuleId": 60,
      "outputId": 0,
      "inputModuleId": 61,
      "inputId": 0,
      "color": "#0c8e15"
    },
    {
      "id": 164,
      "outputModuleId": 62,
      "outputId": 0,
      "inputModuleId": 54,
      "inputId": 3,
      "color": "#c91847"
    },
    {
      "id": 165,
      "outputModuleId": 62,
      "outputId": 0,
      "inputModuleId": 61,
      "inputId": 1,
      "color": "#0986ad"
    }
  ]
}