{
  "version": "1.1.6",
  "modules": [
    {
      "id": 1,
      "plugin": "Core",
      "version": "1.1.6",
      "model": "AudioInterface",
      "params": [],
      "leftModuleId": 33,
      "data": {
        "audio": {
          "driver": 5,
          "deviceName": "Apple Inc.: MacBook Pro Speakers",
          "offset": 0,
          "maxChannels": 8,
          "sampleRate": 44100,
          "blockSize": 4096
        }
      },
      "pos": [
        79,
        0
      ]
    },
    {
      "id": 33,
      "plugin": "GlueTheGiant",
      "version": "1.1.2",
      "model": "BusDepot",
      "params": [
        {
          "id": 0,
          "value": 0.0
        },
        {
          "id": 1,
          "value": 1.0
        },
        {
          "id": 2,
          "value": 0.85809958
        },
        {
          "id": 3,
          "value": 3725.76904
        },
        {
          "id": 4,
          "value": 2940.96973
        }
      ],
      "leftModuleId": 35,
      "rightModuleId": 1,
      "data": {
        "input_on": 1,
        "level_cv_filter": 1,
        "color_theme": 1,
        "fade_cv_mode": 0,
        "audition_depot": 0,
        "auditioned": 0,
        "temped": 0,
        "audition_mode": 0
      },
      "pos": [
        73,
        0
      ]
    },
    {
      "id": 34,
      "plugin": "GlueTheGiant",
      "version": "1.1.2",
      "model": "BusRoute",
      "params": [
        {
          "id": 0,
          "value": 0.0
        },
        {
          "id": 1,
          "value": 0.0
        },
        {
          "id": 2,
          "value": 0.0
        },
        {
          "id": 3,
          "value": 0.0
        },
        {
          "id": 4,
          "value": 0.0
        },
        {
          "id": 5,
          "value": 0.0
        }
      ],
      "leftModuleId": 125,
      "rightModuleId": 35,
      "data": {
        "onau_1": 1,
        "onau_2": 1,
        "onau_3": 1,
        "auditioning": 0,
        "bus_audition1": 0,
        "bus_audition2": 0,
        "bus_audition3": 0,
        "temped1": 0,
        "temped2": 0,
        "temped3": 0,
        "color_theme": 1
      },
      "pos": [
        55,
        0
      ]
    },
    {
      "id": 35,
      "plugin": "Valley",
      "version": "1.0.1",
      "model": "Plateau",
      "params": [
        {
          "id": 0,
          "value": 0.0
        },
        {
          "id": 1,
          "value": 0.410000026
        },
        {
          "id": 2,
          "value": 0.0
        },
        {
          "id": 3,
          "value": 10.0
        },
        {
          "id": 4,
          "value": 10.0
        },
        {
          "id": 5,
          "value": 0.5
        },
        {
          "id": 6,
          "value": 10.0
        },
        {
          "id": 7,
          "value": 0.549950004
        },
        {
          "id": 8,
          "value": 10.0
        },
        {
          "id": 9,
          "value": 10.0
        },
        {
          "id": 10,
          "value": 0.0
        },
        {
          "id": 11,
          "value": 0.5
        },
        {
          "id": 12,
          "value": 0.5
        },
        {
          "id": 13,
          "value": 0.0
        },
        {
          "id": 14,
          "value": 0.0
        },
        {
          "id": 15,
          "value": 0.0
        },
        {
          "id": 16,
          "value": 0.0
        },
        {
          "id": 17,
          "value": 0.0
        },
        {
          "id": 18,
          "value": 0.0
        },
        {
          "id": 19,
          "value": 0.0
        },
        {
          "id": 20,
          "value": 0.0
        },
        {
          "id": 21,
          "value": 0.0
        },
        {
          "id": 22,
          "value": 0.0
        },
        {
          "id": 23,
          "value": 0.0
        },
        {
          "id": 24,
          "value": 0.0
        },
        {
          "id": 25,
          "value": 0.0
        },
        {
          "id": 26,
          "value": 0.0
        },
        {
          "id": 27,
          "value": 0.0
        },
        {
          "id": 28,
          "value": 0.0
        },
        {
          "id": 29,
          "value": 0.0
        },
        {
          "id": 30,
          "value": 1.0
        }
      ],
      "leftModuleId": 34,
      "rightModuleId": 33,
      "data": {
        "frozen": false,
        "freezeToggle": false,
        "panelStyle": 0,
        "tuned": 0,
        "diffuseInput": 1,
        "preDelayCVSens": 0,
        "inputSensitivity": 0,
        "outputSaturation": 0
      },
      "pos": [
        61,
        0
      ]
    },
    {
      "id": 117,
      "plugin": "ImpromptuModular",
      "version": "1.1.8",
      "model": "Clocked",
      "params": [
        {
          "id": 0,
          "value": 60.0
        },
        {
          "id": 1,
          "value": 2.0
        },
        {
          "id": 2,
          "value": 0.0
        },
        {
          "id": 3,
          "value": 0.0
        },
        {
          "id": 4,
          "value": 0.0
        },
        {
          "id": 5,
          "value": 0.0
        },
        {
          "id": 6,
          "value": 0.0
        },
        {
          "id": 7,
          "value": 0.0
        },
        {
          "id": 8,
          "value": 0.5
        },
        {
          "id": 9,
          "value": 0.5
        },
        {
          "id": 10,
          "value": 0.5
        },
        {
          "id": 11,
          "value": 0.5
        },
        {
          "id": 12,
          "value": 0.0
        },
        {
          "id": 13,
          "value": 0.0
        },
        {
          "id": 14,
          "value": 0.0
        },
        {
          "id": 15,
          "value": 0.0
        },
        {
          "id": 16,
          "value": 0.0
        },
        {
          "id": 17,
          "value": 0.0
        },
        {
          "id": 18,
          "value": 0.0
        },
        {
          "id": 19,
          "value": 0.0
        }
      ],
      "rightModuleId": 138,
      "data": {
        "panelTheme": 1,
        "running": true,
        "displayDelayNoteMode": true,
        "bpmDetectionMode": false,
        "resetOnStartStop": 0,
        "ppqn": 4,
        "resetClockOutputsHigh": true,
        "momentaryRunInput": true,
        "clockMaster": false
      },
      "pos": [
        1,
        0
      ]
    },
    {
      "id": 118,
      "plugin": "Geodesics",
      "version": "1.2.0",
      "model": "Branes",
      "params": [
        {
          "id": 0,
          "value": 0.0
        },
        {
          "id": 1,
          "value": 0.0
        },
        {
          "id": 2,
          "value": 0.0
        },
        {
          "id": 3,
          "value": 0.0
        }
      ],
      "leftModuleId": 127,
      "data": {
        "panelTheme": 1,
        "vibrations0": 2,
        "vibrations1": 3,
        "noiseRange0": 0.0,
        "noiseRange1": 0.0
      },
      "pos": [
        13,
        1
      ]
    },
    {
      "id": 120,
      "plugin": "AudibleInstruments",
      "version": "1.3.1",
      "model": "Plaits",
      "params": [
        {
          "id": 0,
          "value": 0.0
        },
        {
          "id": 1,
          "value": 0.0
        },
        {
          "id": 2,
          "value": 0.0
        },
        {
          "id": 3,
          "value": 0.5
        },
        {
          "id": 4,
          "value": 0.578000188
        },
        {
          "id": 5,
          "value": 0.61400044
        },
        {
          "id": 6,
          "value": 0.0
        },
        {
          "id": 7,
          "value": 0.0
        },
        {
          "id": 8,
          "value": 0.0
        },
        {
          "id": 9,
          "value": 0.5
        },
        {
          "id": 10,
          "value": 0.5
        }
      ],
      "leftModuleId": 123,
      "rightModuleId": 121,
      "data": {
        "lowCpu": false,
        "model": 0
      },
      "pos": [
        36,
        1
      ]
    },
    {
      "id": 121,
      "plugin": "AudibleInstruments",
      "version": "1.3.1",
      "model": "Plaits",
      "params": [
        {
          "id": 0,
          "value": 0.0
        },
        {
          "id": 1,
          "value": 0.0
        },
        {
          "id": 2,
          "value": 0.0
        },
        {
          "id": 3,
          "value": 0.5
        },
        {
          "id": 4,
          "value": 0.605000198
        },
        {
          "id": 5,
          "value": 0.599000096
        },
        {
          "id": 6,
          "value": 0.0
        },
        {
          "id": 7,
          "value": 0.0
        },
        {
          "id": 8,
          "value": 0.0
        },
        {
          "id": 9,
          "value": 0.5
        },
        {
          "id": 10,
          "value": 0.5
        }
      ],
      "leftModuleId": 120,
      "rightModuleId": 122,
      "data": {
        "lowCpu": false,
        "model": 0
      },
      "pos": [
        48,
        1
      ]
    },
    {
      "id": 122,
      "plugin": "Bogaudio",
      "version": "1.1.33",
      "model": "Bogaudio-FMOp",
      "params": [
        {
          "id": 0,
          "value": 0.0
        },
        {
          "id": 1,
          "value": 0.0
        },
        {
          "id": 2,
          "value": 0.141421005
        },
        {
          "id": 3,
          "value": 0.316229999
        },
        {
          "id": 4,
          "value": 1.0
        },
        {
          "id": 5,
          "value": 0.316229999
        },
        {
          "id": 6,
          "value": 0.0
        },
        {
          "id": 7,
          "value": 0.108000025
        },
        {
          "id": 8,
          "value": 1.0
        },
        {
          "id": 9,
          "value": 1.0
        },
        {
          "id": 10,
          "value": 0.0
        },
        {
          "id": 11,
          "value": 0.0
        }
      ],
      "leftModuleId": 121,
      "data": {
        "linearLevel": false
      },
      "pos": [
        60,
        1
      ]
    },
    {
      "id": 123,
      "plugin": "HolonicSystems-Free",
      "version": "1.0.5",
      "model": "HolonicSystems-LazySusanQuantiser",
      "params": [
        {
          "id": 0,
          "value": 0.0
        },
        {
          "id": 1,
          "value": 1.0
        },
        {
          "id": 2,
          "value": 0.446999937
        },
        {
          "id": 3,
          "value": 0.0
        },
        {
          "id": 4,
          "value": 0.0
        },
        {
          "id": 5,
          "value": 0.0
        },
        {
          "id": 6,
          "value": 0.0
        },
        {
          "id": 7,
          "value": 0.0
        },
        {
          "id": 8,
          "value": 0.0
        },
        {
          "id": 9,
          "value": 0.0
        },
        {
          "id": 10,
          "value": 0.0
        },
        {
          "id": 11,
          "value": 0.0
        },
        {
          "id": 12,
          "value": 0.0
        },
        {
          "id": 13,
          "value": 0.0
        },
        {
          "id": 14,
          "value": 0.0
        }
      ],
      "leftModuleId": 129,
      "rightModuleId": 120,
      "data": {
        "scales": [
          true,
          false,
          true,
          false,
          true,
          true,
          false,
          true,
          false,
          true,
          false,
          true,
          true,
          false,
          true,
          true,
          false,
          true,
          false,
          true,
          false,
          true,
          true,
          false,
          true,
          true,
          false,
          true,
          false,
          true,
          false,
          true,
          true,
          false,
          true,
          false,
          true,
          false,
          true,
          false,
          true,
          false,
          true,
          true,
          false,
          true,
          false,
          true,
          true,
          false,
          true,
          false,
          true,
          true,
          false,
          true,
          false,
          true,
          true,
          false,
          true,
          false,
          true,
          true,
          false,
          true,
          false,
          true,
          true,
          false,
          true,
          false,
          true,
          true,
          false,
          true,
          false,
          true,
          true,
          false,
          true,
          false,
          true,
          false
        ]
      },
      "pos": [
        28,
        1
      ]
    },
    {
      "id": 124,
      "plugin": "GlueTheGiant",
      "version": "1.1.2",
      "model": "GigBus",
      "params": [
        {
          "id": 0,
          "value": 0.0
        },
        {
          "id": 1,
          "value": 1.0
        },
        {
          "id": 2,
          "value": 0.392699987
        },
        {
          "id": 3,
          "value": 0.0
        },
        {
          "id": 4,
          "value": 0.775600076
        }
      ],
      "leftModuleId": 126,
      "rightModuleId": 125,
      "data": {
        "input_on": 0,
        "post_fades": 1,
        "gain": 1.0,
        "color_theme": 1,
        "fade_in": 26.0,
        "fade_out": 26.0,
        "audition_mixer": 0,
        "auditioned": 0,
        "temped": 0
      },
      "pos": [
        47,
        0
      ]
    },
    {
      "id": 125,
      "plugin": "GlueTheGiant",
      "version": "1.1.2",
      "model": "GigBus",
      "params": [
        {
          "id": 0,
          "value": 0.0
        },
        {
          "id": 1,
          "value": 0.0
        },
        {
          "id": 2,
          "value": 0.379499972
        },
        {
          "id": 3,
          "value": 0.0
        },
        {
          "id": 4,
          "value": 0.765699923
        }
      ],
      "leftModuleId": 124,
      "rightModuleId": 34,
      "data": {
        "input_on": 1,
        "post_fades": 1,
        "gain": 1.0,
        "color_theme": 1,
        "fade_in": 26.0,
        "fade_out": 26.0,
        "audition_mixer": 0,
        "auditioned": 0,
        "temped": 0
      },
      "pos": [
        51,
        0
      ]
    },
    {
      "id": 126,
      "plugin": "GlueTheGiant",
      "version": "1.1.2",
      "model": "GigBus",
      "params": [
        {
          "id": 0,
          "value": 0.0
        },
        {
          "id": 1,
          "value": -1.0
        },
        {
          "id": 2,
          "value": 0.353100091
        },
        {
          "id": 3,
          "value": 0.0
        },
        {
          "id": 4,
          "value": 0.792100072
        }
      ],
      "leftModuleId": 131,
      "rightModuleId": 124,
      "data": {
        "input_on": 0,
        "post_fades": 1,
        "gain": 1.0,
        "color_theme": 1,
        "fade_in": 26.0,
        "fade_out": 26.0,
        "audition_mixer": 0,
        "auditioned": 0,
        "temped": 0
      },
      "pos": [
        43,
        0
      ]
    },
    {
      "id": 127,
      "plugin": "Fundamental",
      "version": "1.4.0",
      "model": "Scope",
      "params": [
        {
          "id": 0,
          "value": 0.0
        },
        {
          "id": 1,
          "value": 0.0
        },
        {
          "id": 2,
          "value": 0.0
        },
        {
          "id": 3,
          "value": 0.0
        },
        {
          "id": 4,
          "value": 6.0
        },
        {
          "id": 5,
          "value": 0.0
        },
        {
          "id": 6,
          "value": 0.0
        },
        {
          "id": 7,
          "value": 0.0
        }
      ],
      "rightModuleId": 118,
      "data": {
        "lissajous": 0,
        "external": 0
      },
      "pos": [
        0,
        1
      ]
    },
    {
      "id": 128,
      "plugin": "Befaco",
      "version": "1.0.1",
      "model": "EvenVCO",
      "params": [
        {
          "id": 0,
          "value": -3.0
        },
        {
          "id": 1,
          "value": 0.0
        },
        {
          "id": 2,
          "value": 0.0
        }
      ],
      "leftModuleId": 132,
      "rightModuleId": 130,
      "pos": [
        40,
        2
      ]
    },
    {
      "id": 129,
      "plugin": "Fundamental",
      "version": "1.4.0",
      "model": "VCA-1",
      "params": [
        {
          "id": 0,
          "value": 0.257499993
        },
        {
          "id": 1,
          "value": 1.0
        }
      ],
      "rightModuleId": 123,
      "pos": [
        25,
        1
      ]
    },
    {
      "id": 130,
      "plugin": "VultModulesFree",
      "version": "1.11",
      "model": "Tangents",
      "params": [
        {
          "id": 0,
          "value": 0.38749975
        },
        {
          "id": 1,
          "value": 0.363000751
        },
        {
          "id": 2,
          "value": 0.180000007
        },
        {
          "id": 3,
          "value": 0.0
        },
        {
          "id": 4,
          "value": 0.600000024
        },
        {
          "id": 5,
          "value": 0.0
        },
        {
          "id": 6,
          "value": 0.0
        }
      ],
      "leftModuleId": 128,
      "rightModuleId": 133,
      "pos": [
        48,
        2
      ]
    },
    {
      "id": 131,
      "plugin": "GlueTheGiant",
      "version": "1.1.2",
      "model": "GigBus",
      "params": [
        {
          "id": 0,
          "value": 0.0
        },
        {
          "id": 1,
          "value": 0.0
        },
        {
          "id": 2,
          "value": 0.35310024
        },
        {
          "id": 3,
          "value": 0.0
        },
        {
          "id": 4,
          "value": 0.729300916
        }
      ],
      "leftModuleId": 141,
      "rightModuleId": 126,
      "data": {
        "input_on": 1,
        "post_fades": 1,
        "gain": 1.0,
        "color_theme": 1,
        "fade_in": 26.0,
        "fade_out": 26.0,
        "audition_mixer": 0,
        "auditioned": 0,
        "temped": 0
      },
      "pos": [
        39,
        0
      ]
    },
    {
      "id": 132,
      "plugin": "Bogaudio",
      "version": "1.1.33",
      "model": "Bogaudio-Slew",
      "params": [
        {
          "id": 0,
          "value": 0.316229999
        },
        {
          "id": 1,
          "value": 0.0
        },
        {
          "id": 2,
          "value": 0.316229999
        },
        {
          "id": 3,
          "value": 0.0
        }
      ],
      "rightModuleId": 128,
      "pos": [
        37,
        2
      ]
    },
    {
      "id": 133,
      "plugin": "Bogaudio",
      "version": "1.1.33",
      "model": "Bogaudio-LLFO",
      "params": [
        {
          "id": 0,
          "value": -2.57400084
        },
        {
          "id": 1,
          "value": 0.0
        },
        {
          "id": 2,
          "value": 0.0
        },
        {
          "id": 3,
          "value": 0.0
        },
        {
          "id": 4,
          "value": 1.0
        }
      ],
      "leftModuleId": 130,
      "rightModuleId": 148,
      "pos": [
        58,
        2
      ]
    },
    {
      "id": 134,
      "plugin": "HolonicSystems-Free",
      "version": "1.0.5",
      "model": "HolonicSystems-LazySusanQuantiser",
      "params": [
        {
          "id": 0,
          "value": 0.0
        },
        {
          "id": 1,
          "value": 1.0
        },
        {
          "id": 2,
          "value": 0.446999937
        },
        {
          "id": 3,
          "value": 0.0
        },
        {
          "id": 4,
          "value": 0.0
        },
        {
          "id": 5,
          "value": 0.0
        },
        {
          "id": 6,
          "value": 0.0
        },
        {
          "id": 7,
          "value": 0.0
        },
        {
          "id": 8,
          "value": 0.0
        },
        {
          "id": 9,
          "value": 0.0
        },
        {
          "id": 10,
          "value": 0.0
        },
        {
          "id": 11,
          "value": 0.0
        },
        {
          "id": 12,
          "value": 0.0
        },
        {
          "id": 13,
          "value": 0.0
        },
        {
          "id": 14,
          "value": 0.0
        }
      ],
      "rightModuleId": 135,
      "data": {
        "scales": [
          true,
          false,
          true,
          false,
          true,
          true,
          false,
          true,
          false,
          true,
          false,
          true,
          true,
          false,
          true,
          true,
          false,
          true,
          false,
          true,
          false,
          true,
          true,
          false,
          true,
          true,
          false,
          true,
          false,
          true,
          false,
          true,
          true,
          false,
          true,
          false,
          true,
          false,
          true,
          false,
          true,
          false,
          true,
          true,
          false,
          true,
          false,
          true,
          true,
          false,
          true,
          false,
          true,
          true,
          false,
          true,
          false,
          true,
          true,
          false,
          true,
          false,
          true,
          true,
          false,
          true,
          false,
          true,
          true,
          false,
          true,
          false,
          true,
          true,
          false,
          true,
          false,
          true,
          true,
          false,
          true,
          false,
          true,
          false
        ]
      },
      "pos": [
        4,
        2
      ]
    },
    {
      "id": 135,
      "plugin": "Fundamental",
      "version": "1.4.0",
      "model": "Merge",
      "params": [],
      "leftModuleId": 134,
      "rightModuleId": 136,
      "data": {
        "channels": -1
      },
      "pos": [
        12,
        2
      ]
    },
    {
      "id": 136,
      "plugin": "VultModulesFree",
      "version": "1.11",
      "model": "Basal",
      "params": [
        {
          "id": 0,
          "value": 0.0
        },
        {
          "id": 1,
          "value": 0.530999839
        },
        {
          "id": 2,
          "value": 0.0404999964
        },
        {
          "id": 3,
          "value": 0.0
        },
        {
          "id": 4,
          "value": 0.133499995
        },
        {
          "id": 5,
          "value": 0.0
        }
      ],
      "leftModuleId": 135,
      "rightModuleId": 137,
      "pos": [
        17,
        2
      ]
    },
    {
      "id": 137,
      "plugin": "Fundamental",
      "version": "1.4.0",
      "model": "Split",
      "params": [],
      "leftModuleId": 136,
      "pos": [
        23,
        2
      ]
    },
    {
      "id": 138,
      "plugin": "GlueTheGiant",
      "version": "1.1.2",
      "model": "GigBus",
      "params": [
        {
          "id": 0,
          "value": 0.0
        },
        {
          "id": 1,
          "value": 0.0
        },
        {
          "id": 2,
          "value": 0.300300032
        },
        {
          "id": 3,
          "value": 0.0
        },
        {
          "id": 4,
          "value": 0.392800242
        }
      ],
      "leftModuleId": 117,
      "rightModuleId": 139,
      "data": {
        "input_on": 0,
        "post_fades": 1,
        "gain": 1.0,
        "color_theme": 1,
        "fade_in": 26.0,
        "fade_out": 26.0,
        "audition_mixer": 0,
        "auditioned": 0,
        "temped": 0
      },
      "pos": [
        21,
        0
      ]
    },
    {
      "id": 139,
      "plugin": "GlueTheGiant",
      "version": "1.1.2",
      "model": "GigBus",
      "params": [
        {
          "id": 0,
          "value": 0.0
        },
        {
          "id": 1,
          "value": 0.0
        },
        {
          "id": 2,
          "value": 0.316799968
        },
        {
          "id": 3,
          "value": 0.0
        },
        {
          "id": 4,
          "value": 0.402700067
        }
      ],
      "leftModuleId": 138,
      "rightModuleId": 140,
      "data": {
        "input_on": 0,
        "post_fades": 1,
        "gain": 1.0,
        "color_theme": 1,
        "fade_in": 26.0,
        "fade_out": 26.0,
        "audition_mixer": 0,
        "auditioned": 0,
        "temped": 0
      },
      "pos": [
        25,
        0
      ]
    },
    {
      "id": 140,
      "plugin": "GlueTheGiant",
      "version": "1.1.2",
      "model": "GigBus",
      "params": [
        {
          "id": 0,
          "value": 0.0
        },
        {
          "id": 1,
          "value": 0.0
        },
        {
          "id": 2,
          "value": 0.287100077
        },
        {
          "id": 3,
          "value": 0.0
        },
        {
          "id": 4,
          "value": 0.376300246
        }
      ],
      "leftModuleId": 139,
      "rightModuleId": 141,
      "data": {
        "input_on": 0,
        "post_fades": 1,
        "gain": 1.0,
        "color_theme": 1,
        "fade_in": 26.0,
        "fade_out": 26.0,
        "audition_mixer": 0,
        "auditioned": 0,
        "temped": 0
      },
      "pos": [
        29,
        0
      ]
    },
    {
      "id": 141,
      "plugin": "GlueTheGiant",
      "version": "1.1.2",
      "model": "BusDepot",
      "params": [
        {
          "id": 0,
          "value": 0.0
        },
        {
          "id": 1,
          "value": 1.0
        },
        {
          "id": 2,
          "value": 1.0
        },
        {
          "id": 3,
          "value": 5519.59766
        },
        {
          "id": 4,
          "value": 4622.68311
        }
      ],
      "leftModuleId": 140,
      "rightModuleId": 131,
      "data": {
        "input_on": 0,
        "level_cv_filter": 1,
        "color_theme": 1,
        "fade_cv_mode": 0,
        "audition_depot": 0,
        "auditioned": 0,
        "temped": 0,
        "audition_mode": 0
      },
      "pos": [
        33,
        0
      ]
    },
    {
      "id": 148,
      "plugin": "NYSTHI",
      "version": "1.0.13",
      "model": "XYdisplay",
      "params": [
        {
          "id": 0,
          "value": 1.0
        },
        {
          "id": 1,
          "value": 0.0
        },
        {
          "id": 2,
          "value": 1.0
        },
        {
          "id": 3,
          "value": 0.0
        },
        {
          "id": 4,
          "value": 0.319400012
        },
        {
          "id": 5,
          "value": 2.0
        },
        {
          "id": 6,
          "value": 1.0
        },
        {
          "id": 7,
          "value": 1.0
        },
        {
          "id": 8,
          "value": 1.0
        },
        {
          "id": 9,
          "value": 1.0
        },
        {
          "id": 10,
          "value": 1.0
        }
      ],
      "leftModuleId": 133,
      "data": {
        "m_scia_disabled": false,
        "m_scia_expo_fading": true,
        "m_show_header": false,
        "m_show_grid": false,
        "m_show_axis": false,
        "m_xy_mode": true,
        "m_burn_in": true,
        "m_faster_and_less_reso": true,
        "m_parcellized": false,
        "m_pointillized": false,
        "m_beam_color": 1
      },
      "pos": [
        61,
        2
      ]
    }
  ],
  "cables": [
    {
      "id": 68,
      "outputModuleId": 33,
      "outputId": 0,
      "inputModuleId": 1,
      "inputId": 0,
      "color": "#c91847"
    },
    {
      "id": 69,
      "outputModuleId": 33,
      "outputId": 1,
      "inputModuleId": 1,
      "inputId": 1,
      "color": "#c91847"
    },
    {
      "id": 70,
      "outputModuleId": 34,
      "outputId": 0,
      "inputModuleId": 35,
      "inputId": 0,
      "color": "#c91847"
    },
    {
      "id": 71,
      "outputModuleId": 34,
      "outputId": 1,
      "inputModuleId": 35,
      "inputId": 1,
      "color": "#c91847"
    },
    {
      "id": 72,
      "outputModuleId": 35,
      "outputId": 0,
      "inputModuleId": 34,
      "inputId": 0,
      "color": "#c91847"
    },
    {
      "id": 73,
      "outputModuleId": 35,
      "outputId": 1,
      "inputModuleId": 34,
      "inputId": 1,
      "color": "#c91847"
    },
    {
      "id": 75,
      "outputModuleId": 34,
      "outputId": 6,
      "inputModuleId": 33,
      "inputId": 4,
      "color": "#c91847"
    },
    {
      "id": 76,
      "outputModuleId": 117,
      "outputId": 1,
      "inputModuleId": 118,
      "inputId": 15,
      "color": "#0986ad"
    },
    {
      "id": 77,
      "outputModuleId": 118,
      "outputId": 13,
      "inputModuleId": 123,
      "inputId": 0,
      "color": "#0c8e15"
    },
    {
      "id": 78,
      "outputModuleId": 118,
      "outputId": 12,
      "inputModuleId": 123,
      "inputId": 1,
      "color": "#c91847"
    },
    {
      "id": 80,
      "outputModuleId": 123,
      "outputId": 0,
      "inputModuleId": 120,
      "inputId": 7,
      "color": "#c9b70e"
    },
    {
      "id": 81,
      "outputModuleId": 123,
      "outputId": 1,
      "inputModuleId": 121,
      "inputId": 7,
      "color": "#0c8e15"
    },
    {
      "id": 83,
      "outputModuleId": 123,
      "outputId": 4,
      "inputModuleId": 120,
      "inputId": 5,
      "color": "#0986ad"
    },
    {
      "id": 84,
      "outputModuleId": 123,
      "outputId": 5,
      "inputModuleId": 121,
      "inputId": 5,
      "color": "#c9b70e"
    },
    {
      "id": 86,
      "outputModuleId": 120,
      "outputId": 0,
      "inputModuleId": 126,
      "inputId": 1,
      "color": "#c91847"
    },
    {
      "id": 87,
      "outputModuleId": 121,
      "outputId": 0,
      "inputModuleId": 124,
      "inputId": 1,
      "color": "#c91847"
    },
    {
      "id": 88,
      "outputModuleId": 122,
      "outputId": 0,
      "inputModuleId": 125,
      "inputId": 1,
      "color": "#c91847"
    },
    {
      "id": 89,
      "outputModuleId": 126,
      "outputId": 0,
      "inputModuleId": 124,
      "inputId": 3,
      "color": "#0986ad"
    },
    {
      "id": 90,
      "outputModuleId": 124,
      "outputId": 0,
      "inputModuleId": 125,
      "inputId": 3,
      "color": "#c9b70e"
    },
    {
      "id": 91,
      "outputModuleId": 125,
      "outputId": 0,
      "inputModuleId": 34,
      "inputId": 6,
      "color": "#0c8e15"
    },
    {
      "id": 94,
      "outputModuleId": 118,
      "outputId": 2,
      "inputModuleId": 129,
      "inputId": 1,
      "color": "#c91847"
    },
    {
      "id": 95,
      "outputModuleId": 129,
      "outputId": 0,
      "inputModuleId": 123,
      "inputId": 3,
      "color": "#0986ad"
    },
    {
      "id": 96,
      "outputModuleId": 118,
      "outputId": 2,
      "inputModuleId": 127,
      "inputId": 0,
      "color": "#0c8e15"
    },
    {
      "id": 100,
      "outputModuleId": 117,
      "outputId": 0,
      "inputModuleId": 118,
      "inputId": 14,
      "color": "#0c8e15"
    },
    {
      "id": 101,
      "outputModuleId": 118,
      "outputId": 3,
      "inputModuleId": 118,
      "inputId": 3,
      "color": "#c91847"
    },
    {
      "id": 102,
      "outputModuleId": 118,
      "outputId": 4,
      "inputModuleId": 118,
      "inputId": 4,
      "color": "#0986ad"
    },
    {
      "id": 103,
      "outputModuleId": 123,
      "outputId": 3,
      "inputModuleId": 128,
      "inputId": 1,
      "color": "#c9b70e"
    },
    {
      "id": 104,
      "outputModuleId": 128,
      "outputId": 3,
      "inputModuleId": 130,
      "inputId": 0,
      "color": "#0c8e15"
    },
    {
      "id": 105,
      "outputModuleId": 130,
      "outputId": 0,
      "inputModuleId": 131,
      "inputId": 1,
      "color": "#c91847"
    },
    {
      "id": 106,
      "outputModuleId": 131,
      "outputId": 0,
      "inputModuleId": 126,
      "inputId": 3,
      "color": "#0986ad"
    },
    {
      "id": 107,
      "outputModuleId": 133,
      "outputId": 0,
      "inputModuleId": 130,
      "inputId": 3,
      "color": "#0c8e15"
    },
    {
      "id": 109,
      "outputModuleId": 118,
      "outputId": 5,
      "inputModuleId": 134,
      "inputId": 0,
      "color": "#0986ad"
    },
    {
      "id": 110,
      "outputModuleId": 118,
      "outputId": 6,
      "inputModuleId": 134,
      "inputId": 4,
      "color": "#c9b70e"
    },
    {
      "id": 111,
      "outputModuleId": 118,
      "outputId": 0,
      "inputModuleId": 134,
      "inputId": 1,
      "color": "#0c8e15"
    },
    {
      "id": 112,
      "outputModuleId": 134,
      "outputId": 0,
      "inputModuleId": 135,
      "inputId": 0,
      "color": "#c91847"
    },
    {
      "id": 113,
      "outputModuleId": 134,
      "outputId": 4,
      "inputModuleId": 135,
      "inputId": 1,
      "color": "#0986ad"
    },
    {
      "id": 114,
      "outputModuleId": 134,
      "outputId": 1,
      "inputModuleId": 135,
      "inputId": 2,
      "color": "#c9b70e"
    },
    {
      "id": 115,
      "outputModuleId": 135,
      "outputId": 0,
      "inputModuleId": 136,
      "inputId": 0,
      "color": "#0c8e15"
    },
    {
      "id": 116,
      "outputModuleId": 136,
      "outputId": 0,
      "inputModuleId": 137,
      "inputId": 0,
      "color": "#c91847"
    },
    {
      "id": 117,
      "outputModuleId": 137,
      "outputId": 0,
      "inputModuleId": 138,
      "inputId": 1,
      "color": "#0986ad"
    },
    {
      "id": 118,
      "outputModuleId": 137,
      "outputId": 1,
      "inputModuleId": 139,
      "inputId": 1,
      "color": "#c9b70e"
    },
    {
      "id": 119,
      "outputModuleId": 137,
      "outputId": 2,
      "inputModuleId": 140,
      "inputId": 1,
      "color": "#0c8e15"
    },
    {
      "id": 120,
      "outputModuleId": 138,
      "outputId": 0,
      "inputModuleId": 139,
      "inputId": 3,
      "color": "#c91847"
    },
    {
      "id": 121,
      "outputModuleId": 139,
      "outputId": 0,
      "inputModuleId": 140,
      "inputId": 3,
      "color": "#0986ad"
    },
    {
      "id": 122,
      "outputModuleId": 140,
      "outputId": 0,
      "inputModuleId": 141,
      "inputId": 4,
      "color": "#c9b70e"
    },
    {
      "id": 123,
      "outputModuleId": 141,
      "outputId": 2,
      "inputModuleId": 131,
      "inputId": 3,
      "color": "#0c8e15"
    },
    {
      "id": 389,
      "outputModuleId": 136,
      "outputId": 0,
      "inputModuleId": 148,
      "inputId": 0,
      "color": "#c9b70e"
    },
    {
      "id": 390,
      "outputModuleId": 130,
      "outputId": 0,
      "inputModuleId": 148,
      "inputId": 1,
      "color": "#0c8e15"
    },
    {
      "id": 79,
      "outputModuleId": 118,
      "outputId": 8,
      "inputModuleId": 123,
      "inputId": 2,
      "color": "#0986ad"
    },
    {
      "id": 82,
      "outputModuleId": 123,
      "outputId": 2,
      "inputModuleId": 122,
      "inputId": 4,
      "color": "#c91847"
    },
    {
      "id": 391,
      "outputModuleId": 123,
      "outputId": 6,
      "inputModuleId": 122,
      "inputId": 5,
      "color": "#0c8e15"
    }
  ]
}