{
  "version": "1.1.6",
  "modules": [
    {
      "id": 1,
      "plugin": "Core",
      "version": "1.1.6",
      "model": "AudioInterface",
      "params": [],
      "leftModuleId": 33,
      "data": {
        "audio": {
          "driver": 5,
          "deviceName": "Apple Inc.: External Headphones",
          "offset": 0,
          "maxChannels": 8,
          "sampleRate": 44100,
          "blockSize": 256
        }
      },
      "pos": [
        91,
        0
      ]
    },
    {
      "id": 33,
      "plugin": "GlueTheGiant",
      "version": "1.1.2",
      "model": "BusDepot",
      "params": [
        {
          "id": 0,
          "value": 0.0
        },
        {
          "id": 1,
          "value": 1.0
        },
        {
          "id": 2,
          "value": 0.207999885
        },
        {
          "id": 3,
          "value": 26.0
        },
        {
          "id": 4,
          "value": 26.0
        }
      ],
      "leftModuleId": 35,
      "rightModuleId": 1,
      "data": {
        "input_on": 1,
        "level_cv_filter": 1,
        "color_theme": 1,
        "fade_cv_mode": 0,
        "audition_depot": 0,
        "auditioned": 0,
        "temped": 0,
        "audition_mode": 0
      },
      "pos": [
        85,
        0
      ]
    },
    {
      "id": 34,
      "plugin": "GlueTheGiant",
      "version": "1.1.2",
      "model": "BusRoute",
      "params": [
        {
          "id": 0,
          "value": 0.0
        },
        {
          "id": 1,
          "value": 0.0
        },
        {
          "id": 2,
          "value": 0.0
        },
        {
          "id": 3,
          "value": 0.0
        },
        {
          "id": 4,
          "value": 0.0
        },
        {
          "id": 5,
          "value": 0.0
        }
      ],
      "leftModuleId": 55,
      "rightModuleId": 35,
      "data": {
        "onau_1": 1,
        "onau_2": 1,
        "onau_3": 1,
        "auditioning": 0,
        "bus_audition1": 0,
        "bus_audition2": 0,
        "bus_audition3": 0,
        "temped1": 0,
        "temped2": 0,
        "temped3": 0,
        "color_theme": 1
      },
      "pos": [
        67,
        0
      ]
    },
    {
      "id": 35,
      "plugin": "Valley",
      "version": "1.0.1",
      "model": "Plateau",
      "params": [
        {
          "id": 0,
          "value": 0.0
        },
        {
          "id": 1,
          "value": 0.5
        },
        {
          "id": 2,
          "value": 0.0
        },
        {
          "id": 3,
          "value": 10.0
        },
        {
          "id": 4,
          "value": 10.0
        },
        {
          "id": 5,
          "value": 0.5
        },
        {
          "id": 6,
          "value": 10.0
        },
        {
          "id": 7,
          "value": 0.544550896
        },
        {
          "id": 8,
          "value": 10.0
        },
        {
          "id": 9,
          "value": 10.0
        },
        {
          "id": 10,
          "value": 0.0
        },
        {
          "id": 11,
          "value": 0.5
        },
        {
          "id": 12,
          "value": 0.5
        },
        {
          "id": 13,
          "value": 0.0
        },
        {
          "id": 14,
          "value": 0.0
        },
        {
          "id": 15,
          "value": 0.0
        },
        {
          "id": 16,
          "value": 0.0
        },
        {
          "id": 17,
          "value": 0.0
        },
        {
          "id": 18,
          "value": 0.0
        },
        {
          "id": 19,
          "value": 0.0
        },
        {
          "id": 20,
          "value": 0.0
        },
        {
          "id": 21,
          "value": 0.0
        },
        {
          "id": 22,
          "value": 0.0
        },
        {
          "id": 23,
          "value": 0.0
        },
        {
          "id": 24,
          "value": 0.0
        },
        {
          "id": 25,
          "value": 0.0
        },
        {
          "id": 26,
          "value": 0.0
        },
        {
          "id": 27,
          "value": 0.0
        },
        {
          "id": 28,
          "value": 0.0
        },
        {
          "id": 29,
          "value": 0.0
        },
        {
          "id": 30,
          "value": 1.0
        }
      ],
      "leftModuleId": 34,
      "rightModuleId": 33,
      "data": {
        "frozen": false,
        "freezeToggle": false,
        "panelStyle": 0,
        "tuned": 0,
        "diffuseInput": 1,
        "preDelayCVSens": 0,
        "inputSensitivity": 0,
        "outputSaturation": 0
      },
      "pos": [
        73,
        0
      ]
    },
    {
      "id": 51,
      "plugin": "Geodesics",
      "version": "1.2.0",
      "model": "Ions",
      "params": [
        {
          "id": 0,
          "value": 0.0
        },
        {
          "id": 1,
          "value": 0.0
        },
        {
          "id": 2,
          "value": 0.138736844
        },
        {
          "id": 3,
          "value": 0.252166867
        },
        {
          "id": 4,
          "value": 0.162255228
        },
        {
          "id": 5,
          "value": 0.780849457
        },
        {
          "id": 6,
          "value": 0.323887408
        },
        {
          "id": 7,
          "value": 0.584005952
        },
        {
          "id": 8,
          "value": 0.566739619
        },
        {
          "id": 9,
          "value": 0.223178029
        },
        {
          "id": 10,
          "value": 0.747308791
        },
        {
          "id": 11,
          "value": 0.844789207
        },
        {
          "id": 12,
          "value": 0.616874278
        },
        {
          "id": 13,
          "value": 0.330782056
        },
        {
          "id": 14,
          "value": 0.969612002
        },
        {
          "id": 15,
          "value": 0.937463522
        },
        {
          "id": 16,
          "value": 0.316759229
        },
        {
          "id": 17,
          "value": 0.701891482
        },
        {
          "id": 18,
          "value": 0.0
        },
        {
          "id": 19,
          "value": 0.0
        },
        {
          "id": 20,
          "value": 0.0
        },
        {
          "id": 21,
          "value": 0.0
        },
        {
          "id": 22,
          "value": 0.0
        },
        {
          "id": 23,
          "value": 0.0
        },
        {
          "id": 24,
          "value": 0.0
        },
        {
          "id": 25,
          "value": 0.0
        },
        {
          "id": 26,
          "value": 0.0
        },
        {
          "id": 27,
          "value": 0.0
        }
      ],
      "leftModuleId": 52,
      "rightModuleId": 53,
      "data": {
        "panelTheme": 1,
        "running": true,
        "resetOnRun": false,
        "quantize": 3,
        "uncertainty": false,
        "stepIndexes0": 3,
        "stepIndexes1": 7,
        "states0": 2,
        "states1": 0,
        "ranges0": 1,
        "ranges1": 1,
        "leap": false
      },
      "pos": [
        20,
        0
      ]
    },
    {
      "id": 52,
      "plugin": "ImpromptuModular",
      "version": "1.1.8",
      "model": "Clocked",
      "params": [
        {
          "id": 0,
          "value": 120.0
        },
        {
          "id": 1,
          "value": -1.0
        },
        {
          "id": 2,
          "value": 0.0
        },
        {
          "id": 3,
          "value": 0.0
        },
        {
          "id": 4,
          "value": 0.0
        },
        {
          "id": 5,
          "value": 0.0
        },
        {
          "id": 6,
          "value": 0.0
        },
        {
          "id": 7,
          "value": 0.0
        },
        {
          "id": 8,
          "value": 0.5
        },
        {
          "id": 9,
          "value": 0.5
        },
        {
          "id": 10,
          "value": 0.5
        },
        {
          "id": 11,
          "value": 0.5
        },
        {
          "id": 12,
          "value": 0.0
        },
        {
          "id": 13,
          "value": 0.0
        },
        {
          "id": 14,
          "value": 0.0
        },
        {
          "id": 15,
          "value": 0.0
        },
        {
          "id": 16,
          "value": 0.0
        },
        {
          "id": 17,
          "value": 0.0
        },
        {
          "id": 18,
          "value": 0.0
        },
        {
          "id": 19,
          "value": 0.0
        }
      ],
      "rightModuleId": 51,
      "data": {
        "panelTheme": 1,
        "running": true,
        "displayDelayNoteMode": true,
        "bpmDetectionMode": false,
        "resetOnStartStop": 0,
        "ppqn": 4,
        "resetClockOutputsHigh": true,
        "momentaryRunInput": true,
        "clockMaster": false
      },
      "pos": [
        0,
        0
      ]
    },
    {
      "id": 53,
      "plugin": "Bogaudio",
      "version": "1.1.33",
      "model": "Bogaudio-VCO",
      "params": [
        {
          "id": 0,
          "value": 0.0
        },
        {
          "id": 1,
          "value": 0.0
        },
        {
          "id": 2,
          "value": 0.0
        },
        {
          "id": 3,
          "value": 0.0
        },
        {
          "id": 4,
          "value": 0.0209999997
        },
        {
          "id": 5,
          "value": 1.0
        },
        {
          "id": 6,
          "value": 0.0
        }
      ],
      "leftModuleId": 51,
      "rightModuleId": 54,
      "data": {
        "poly_input": 0
      },
      "pos": [
        39,
        0
      ]
    },
    {
      "id": 54,
      "plugin": "Bogaudio",
      "version": "1.1.33",
      "model": "Bogaudio-VCO",
      "params": [
        {
          "id": 0,
          "value": 0.0
        },
        {
          "id": 1,
          "value": 0.0
        },
        {
          "id": 2,
          "value": 0.0
        },
        {
          "id": 3,
          "value": 0.0
        },
        {
          "id": 4,
          "value": 0.0134999994
        },
        {
          "id": 5,
          "value": 1.0
        },
        {
          "id": 6,
          "value": 0.0
        }
      ],
      "leftModuleId": 53,
      "rightModuleId": 56,
      "data": {
        "poly_input": 0
      },
      "pos": [
        49,
        0
      ]
    },
    {
      "id": 55,
      "plugin": "GlueTheGiant",
      "version": "1.1.2",
      "model": "GigBus",
      "params": [
        {
          "id": 0,
          "value": 0.0
        },
        {
          "id": 1,
          "value": 0.0
        },
        {
          "id": 2,
          "value": 0.468600035
        },
        {
          "id": 3,
          "value": 0.0
        },
        {
          "id": 4,
          "value": 1.0
        }
      ],
      "leftModuleId": 56,
      "rightModuleId": 34,
      "data": {
        "input_on": 1,
        "post_fades": 1,
        "gain": 1.0,
        "color_theme": 1,
        "fade_in": 26.0,
        "fade_out": 26.0,
        "audition_mixer": 0,
        "auditioned": 0,
        "temped": 0
      },
      "pos": [
        63,
        0
      ]
    },
    {
      "id": 56,
      "plugin": "GlueTheGiant",
      "version": "1.1.2",
      "model": "GigBus",
      "params": [
        {
          "id": 0,
          "value": 0.0
        },
        {
          "id": 1,
          "value": 0.0
        },
        {
          "id": 2,
          "value": 0.570899963
        },
        {
          "id": 3,
          "value": 0.0
        },
        {
          "id": 4,
          "value": 1.0
        }
      ],
      "leftModuleId": 54,
      "rightModuleId": 55,
      "data": {
        "input_on": 1,
        "post_fades": 1,
        "gain": 1.0,
        "color_theme": 1,
        "fade_in": 26.0,
        "fade_out": 26.0,
        "audition_mixer": 0,
        "auditioned": 0,
        "temped": 0
      },
      "pos": [
        59,
        0
      ]
    }
  ],
  "cables": [
    {
      "id": 68,
      "outputModuleId": 33,
      "outputId": 0,
      "inputModuleId": 1,
      "inputId": 0,
      "color": "#c91847"
    },
    {
      "id": 69,
      "outputModuleId": 33,
      "outputId": 1,
      "inputModuleId": 1,
      "inputId": 1,
      "color": "#c91847"
    },
    {
      "id": 70,
      "outputModuleId": 34,
      "outputId": 0,
      "inputModuleId": 35,
      "inputId": 0,
      "color": "#c91847"
    },
    {
      "id": 71,
      "outputModuleId": 34,
      "outputId": 1,
      "inputModuleId": 35,
      "inputId": 1,
      "color": "#c91847"
    },
    {
      "id": 72,
      "outputModuleId": 35,
      "outputId": 0,
      "inputModuleId": 34,
      "inputId": 0,
      "color": "#c91847"
    },
    {
      "id": 73,
      "outputModuleId": 35,
      "outputId": 1,
      "inputModuleId": 34,
      "inputId": 1,
      "color": "#c91847"
    },
    {
      "id": 75,
      "outputModuleId": 34,
      "outputId": 6,
      "inputModuleId": 33,
      "inputId": 4,
      "color": "#c91847"
    },
    {
      "id": 103,
      "outputModuleId": 52,
      "outputId": 0,
      "inputModuleId": 51,
      "inputId": 0,
      "color": "#0986ad"
    },
    {
      "id": 104,
      "outputModuleId": 52,
      "outputId": 1,
      "inputModuleId": 51,
      "inputId": 1,
      "color": "#0986ad"
    },
    {
      "id": 105,
      "outputModuleId": 51,
      "outputId": 2,
      "inputModuleId": 51,
      "inputId": 2,
      "color": "#0986ad"
    },
    {
      "id": 106,
      "outputModuleId": 51,
      "outputId": 0,
      "inputModuleId": 53,
      "inputId": 0,
      "color": "#0986ad"
    },
    {
      "id": 107,
      "outputModuleId": 51,
      "outputId": 1,
      "inputModuleId": 54,
      "inputId": 0,
      "color": "#c9b70e"
    },
    {
      "id": 110,
      "outputModuleId": 53,
      "outputId": 1,
      "inputModuleId": 54,
      "inputId": 3,
      "color": "#0986ad"
    },
    {
      "id": 111,
      "outputModuleId": 54,
      "outputId": 1,
      "inputModuleId": 53,
      "inputId": 3,
      "color": "#0986ad"
    },
    {
      "id": 113,
      "outputModuleId": 55,
      "outputId": 0,
      "inputModuleId": 34,
      "inputId": 6,
      "color": "#c91847"
    },
    {
      "id": 114,
      "outputModuleId": 56,
      "outputId": 0,
      "inputModuleId": 55,
      "inputId": 3,
      "color": "#c91847"
    },
    {
      "id": 115,
      "outputModuleId": 53,
      "outputId": 3,
      "inputModuleId": 56,
      "inputId": 1,
      "color": "#c91847"
    },
    {
      "id": 116,
      "outputModuleId": 54,
      "outputId": 3,
      "inputModuleId": 55,
      "inputId": 1,
      "color": "#c91847"
    }
  ]
}