{
  "version": "1.1.6",
  "modules": [
    {
      "id": 1,
      "plugin": "Core",
      "version": "1.1.6",
      "model": "AudioInterface",
      "params": [],
      "leftModuleId": 33,
      "data": {
        "audio": {
          "driver": 5,
          "deviceName": "Apple Inc.: External Headphones",
          "offset": 0,
          "maxChannels": 8,
          "sampleRate": 44100,
          "blockSize": 4096
        }
      },
      "pos": [
        94,
        0
      ]
    },
    {
      "id": 33,
      "plugin": "GlueTheGiant",
      "version": "1.1.2",
      "model": "BusDepot",
      "params": [
        {
          "id": 0,
          "value": 0.0
        },
        {
          "id": 1,
          "value": 1.0
        },
        {
          "id": 2,
          "value": 1.0
        },
        {
          "id": 3,
          "value": 26.0
        },
        {
          "id": 4,
          "value": 26.0
        }
      ],
      "leftModuleId": 35,
      "rightModuleId": 1,
      "data": {
        "input_on": 1,
        "level_cv_filter": 1,
        "color_theme": 1,
        "fade_cv_mode": 0,
        "audition_depot": 0,
        "auditioned": 0,
        "temped": 0,
        "audition_mode": 0
      },
      "pos": [
        88,
        0
      ]
    },
    {
      "id": 34,
      "plugin": "GlueTheGiant",
      "version": "1.1.2",
      "model": "BusRoute",
      "params": [
        {
          "id": 0,
          "value": 0.0
        },
        {
          "id": 1,
          "value": 0.0
        },
        {
          "id": 2,
          "value": 0.0
        },
        {
          "id": 3,
          "value": 0.0
        },
        {
          "id": 4,
          "value": 0.0
        },
        {
          "id": 5,
          "value": 0.0
        }
      ],
      "leftModuleId": 377,
      "rightModuleId": 35,
      "data": {
        "onau_1": 1,
        "onau_2": 1,
        "onau_3": 1,
        "auditioning": 0,
        "bus_audition1": 0,
        "bus_audition2": 0,
        "bus_audition3": 0,
        "temped1": 0,
        "temped2": 0,
        "temped3": 0,
        "color_theme": 1
      },
      "pos": [
        70,
        0
      ]
    },
    {
      "id": 35,
      "plugin": "Valley",
      "version": "1.0.1",
      "model": "Plateau",
      "params": [
        {
          "id": 0,
          "value": 0.0
        },
        {
          "id": 1,
          "value": 0.5
        },
        {
          "id": 2,
          "value": 0.0
        },
        {
          "id": 3,
          "value": 10.0
        },
        {
          "id": 4,
          "value": 10.0
        },
        {
          "id": 5,
          "value": 0.5
        },
        {
          "id": 6,
          "value": 10.0
        },
        {
          "id": 7,
          "value": 0.549950004
        },
        {
          "id": 8,
          "value": 10.0
        },
        {
          "id": 9,
          "value": 10.0
        },
        {
          "id": 10,
          "value": 0.0
        },
        {
          "id": 11,
          "value": 0.5
        },
        {
          "id": 12,
          "value": 0.5
        },
        {
          "id": 13,
          "value": 0.0
        },
        {
          "id": 14,
          "value": 0.0
        },
        {
          "id": 15,
          "value": 0.0
        },
        {
          "id": 16,
          "value": 0.0
        },
        {
          "id": 17,
          "value": 0.0
        },
        {
          "id": 18,
          "value": 0.0
        },
        {
          "id": 19,
          "value": 0.0
        },
        {
          "id": 20,
          "value": 0.0
        },
        {
          "id": 21,
          "value": 0.0
        },
        {
          "id": 22,
          "value": 0.0
        },
        {
          "id": 23,
          "value": 0.0
        },
        {
          "id": 24,
          "value": 0.0
        },
        {
          "id": 25,
          "value": 0.0
        },
        {
          "id": 26,
          "value": 0.0
        },
        {
          "id": 27,
          "value": 0.0
        },
        {
          "id": 28,
          "value": 0.0
        },
        {
          "id": 29,
          "value": 0.0
        },
        {
          "id": 30,
          "value": 1.0
        }
      ],
      "leftModuleId": 34,
      "rightModuleId": 33,
      "data": {
        "frozen": false,
        "freezeToggle": false,
        "panelStyle": 0,
        "tuned": 0,
        "diffuseInput": 1,
        "preDelayCVSens": 0,
        "inputSensitivity": 0,
        "outputSaturation": 0
      },
      "pos": [
        76,
        0
      ]
    },
    {
      "id": 368,
      "plugin": "JW-Modules",
      "version": "1.0.11",
      "model": "SimpleClock",
      "params": [
        {
          "id": 0,
          "value": 2.04399991
        },
        {
          "id": 1,
          "value": 0.0
        },
        {
          "id": 2,
          "value": -2.0
        },
        {
          "id": 3,
          "value": 0.0
        }
      ],
      "rightModuleId": 369,
      "data": {
        "running": true
      },
      "pos": [
        0,
        0
      ]
    },
    {
      "id": 369,
      "plugin": "AudibleInstruments",
      "version": "1.3.1",
      "model": "Branches",
      "params": [
        {
          "id": 0,
          "value": 0.5
        },
        {
          "id": 1,
          "value": 0.5
        },
        {
          "id": 2,
          "value": 0.0
        },
        {
          "id": 3,
          "value": 0.0
        }
      ],
      "leftModuleId": 368,
      "rightModuleId": 370,
      "data": {
        "modes": [
          false,
          false
        ]
      },
      "pos": [
        4,
        0
      ]
    },
    {
      "id": 370,
      "plugin": "AudibleInstruments",
      "version": "1.3.1",
      "model": "Kinks",
      "params": [],
      "leftModuleId": 369,
      "rightModuleId": 371,
      "pos": [
        10,
        0
      ]
    },
    {
      "id": 371,
      "plugin": "repelzen",
      "version": "1.1.0",
      "model": "reburst",
      "params": [
        {
          "id": 0,
          "value": 0.0
        },
        {
          "id": 1,
          "value": 0.508000016
        },
        {
          "id": 2,
          "value": 4.0
        },
        {
          "id": 3,
          "value": 1.0
        },
        {
          "id": 4,
          "value": 0.0
        },
        {
          "id": 5,
          "value": 0.0
        },
        {
          "id": 6,
          "value": 0.0
        },
        {
          "id": 7,
          "value": 0.0
        },
        {
          "id": 8,
          "value": 0.0
        }
      ],
      "leftModuleId": 370,
      "rightModuleId": 372,
      "pos": [
        14,
        0
      ]
    },
    {
      "id": 372,
      "plugin": "StellareModular",
      "version": "1.0.0",
      "model": "TuringMachine",
      "params": [
        {
          "id": 0,
          "value": 0.9745
        },
        {
          "id": 1,
          "value": 0.261499882
        },
        {
          "id": 2,
          "value": 0.678500056
        },
        {
          "id": 3,
          "value": 0.315499932
        },
        {
          "id": 4,
          "value": 0.531500041
        },
        {
          "id": 5,
          "value": 0.0
        },
        {
          "id": 6,
          "value": 7.0
        },
        {
          "id": 7,
          "value": 0.5
        },
        {
          "id": 8,
          "value": 0.0
        },
        {
          "id": 9,
          "value": 0.0
        },
        {
          "id": 10,
          "value": 0.0
        },
        {
          "id": 11,
          "value": 0.0
        },
        {
          "id": 12,
          "value": 0.0
        }
      ],
      "leftModuleId": 371,
      "rightModuleId": 373,
      "data": {
        "pulses_mode": 0
      },
      "pos": [
        22,
        0
      ]
    },
    {
      "id": 373,
      "plugin": "JW-Modules",
      "version": "1.0.11",
      "model": "Quantizer",
      "params": [
        {
          "id": 0,
          "value": 0.0
        },
        {
          "id": 1,
          "value": 11.0
        }
      ],
      "leftModuleId": 372,
      "rightModuleId": 380,
      "data": {},
      "pos": [
        40,
        0
      ]
    },
    {
      "id": 376,
      "plugin": "GlueTheGiant",
      "version": "1.1.2",
      "model": "GigBus",
      "params": [
        {
          "id": 0,
          "value": 0.0
        },
        {
          "id": 1,
          "value": 0.0
        },
        {
          "id": 2,
          "value": 0.0
        },
        {
          "id": 3,
          "value": 0.0
        },
        {
          "id": 4,
          "value": 0.564400017
        }
      ],
      "leftModuleId": 378,
      "rightModuleId": 377,
      "data": {
        "input_on": 1,
        "post_fades": 1,
        "gain": 1.0,
        "color_theme": 1,
        "fade_in": 26.0,
        "fade_out": 26.0,
        "audition_mixer": 0,
        "auditioned": 0,
        "temped": 0
      },
      "pos": [
        62,
        0
      ]
    },
    {
      "id": 377,
      "plugin": "GlueTheGiant",
      "version": "1.1.2",
      "model": "GigBus",
      "params": [
        {
          "id": 0,
          "value": 0.0
        },
        {
          "id": 1,
          "value": 0.0
        },
        {
          "id": 2,
          "value": 0.0
        },
        {
          "id": 3,
          "value": 0.0
        },
        {
          "id": 4,
          "value": 0.587500095
        }
      ],
      "leftModuleId": 376,
      "rightModuleId": 34,
      "data": {
        "input_on": 1,
        "post_fades": 1,
        "gain": 1.0,
        "color_theme": 1,
        "fade_in": 26.0,
        "fade_out": 26.0,
        "audition_mixer": 0,
        "auditioned": 0,
        "temped": 0
      },
      "pos": [
        66,
        0
      ]
    },
    {
      "id": 378,
      "plugin": "GlueTheGiant",
      "version": "1.1.2",
      "model": "GigBus",
      "params": [
        {
          "id": 0,
          "value": 0.0
        },
        {
          "id": 1,
          "value": 0.0
        },
        {
          "id": 2,
          "value": 0.333299935
        },
        {
          "id": 3,
          "value": 0.0
        },
        {
          "id": 4,
          "value": 1.0
        }
      ],
      "leftModuleId": 380,
      "rightModuleId": 376,
      "data": {
        "input_on": 1,
        "post_fades": 1,
        "gain": 1.0,
        "color_theme": 1,
        "fade_in": 26.0,
        "fade_out": 26.0,
        "audition_mixer": 0,
        "auditioned": 0,
        "temped": 0
      },
      "pos": [
        58,
        0
      ]
    },
    {
      "id": 380,
      "plugin": "AudibleInstruments",
      "version": "1.3.1",
      "model": "Rings",
      "params": [
        {
          "id": 0,
          "value": 0.0
        },
        {
          "id": 1,
          "value": 0.0
        },
        {
          "id": 2,
          "value": 30.0
        },
        {
          "id": 3,
          "value": 0.153000027
        },
        {
          "id": 4,
          "value": 0.5
        },
        {
          "id": 5,
          "value": 0.334999919
        },
        {
          "id": 6,
          "value": 0.5
        },
        {
          "id": 7,
          "value": 0.0
        },
        {
          "id": 8,
          "value": 0.0
        },
        {
          "id": 9,
          "value": 0.270000011
        },
        {
          "id": 10,
          "value": 0.0
        },
        {
          "id": 11,
          "value": 0.0
        }
      ],
      "leftModuleId": 373,
      "rightModuleId": 378,
      "data": {
        "polyphony": 2,
        "model": 1,
        "easterEgg": false
      },
      "pos": [
        44,
        0
      ]
    }
  ],
  "cables": [
    {
      "id": 68,
      "outputModuleId": 33,
      "outputId": 0,
      "inputModuleId": 1,
      "inputId": 0,
      "color": "#c91847"
    },
    {
      "id": 69,
      "outputModuleId": 33,
      "outputId": 1,
      "inputModuleId": 1,
      "inputId": 1,
      "color": "#c91847"
    },
    {
      "id": 70,
      "outputModuleId": 34,
      "outputId": 0,
      "inputModuleId": 35,
      "inputId": 0,
      "color": "#c91847"
    },
    {
      "id": 71,
      "outputModuleId": 34,
      "outputId": 1,
      "inputModuleId": 35,
      "inputId": 1,
      "color": "#c91847"
    },
    {
      "id": 72,
      "outputModuleId": 35,
      "outputId": 0,
      "inputModuleId": 34,
      "inputId": 0,
      "color": "#c91847"
    },
    {
      "id": 73,
      "outputModuleId": 35,
      "outputId": 1,
      "inputModuleId": 34,
      "inputId": 1,
      "color": "#c91847"
    },
    {
      "id": 75,
      "outputModuleId": 34,
      "outputId": 6,
      "inputModuleId": 33,
      "inputId": 4,
      "color": "#c91847"
    },
    {
      "id": 490,
      "outputModuleId": 377,
      "outputId": 0,
      "inputModuleId": 34,
      "inputId": 6,
      "color": "#0986ad"
    },
    {
      "id": 491,
      "outputModuleId": 376,
      "outputId": 0,
      "inputModuleId": 377,
      "inputId": 3,
      "color": "#c9b70e"
    },
    {
      "id": 492,
      "outputModuleId": 378,
      "outputId": 0,
      "inputModuleId": 376,
      "inputId": 3,
      "color": "#0c8e15"
    },
    {
      "id": 493,
      "outputModuleId": 368,
      "outputId": 0,
      "inputModuleId": 369,
      "inputId": 0,
      "color": "#c91847"
    },
    {
      "id": 494,
      "outputModuleId": 369,
      "outputId": 0,
      "inputModuleId": 370,
      "inputId": 4,
      "color": "#0986ad"
    },
    {
      "id": 495,
      "outputModuleId": 370,
      "outputId": 6,
      "inputModuleId": 371,
      "inputId": 0,
      "color": "#c9b70e"
    },
    {
      "id": 496,
      "outputModuleId": 371,
      "outputId": 0,
      "inputModuleId": 372,
      "inputId": 0,
      "color": "#0c8e15"
    },
    {
      "id": 499,
      "outputModuleId": 372,
      "outputId": 14,
      "inputModuleId": 373,
      "inputId": 2,
      "color": "#c9b70e"
    },
    {
      "id": 504,
      "outputModuleId": 373,
      "outputId": 0,
      "inputModuleId": 380,
      "inputId": 6,
      "color": "#0c8e15"
    },
    {
      "id": 505,
      "outputModuleId": 380,
      "outputId": 0,
      "inputModuleId": 378,
      "inputId": 1,
      "color": "#c91847"
    },
    {
      "id": 506,
      "outputModuleId": 380,
      "outputId": 1,
      "inputModuleId": 378,
      "inputId": 2,
      "color": "#0986ad"
    },
    {
      "id": 525,
      "outputModuleId": 372,
      "outputId": 12,
      "inputModuleId": 380,
      "inputId": 2,
      "color": "#0c8e15"
    }
  ]
}