{
  "version": "1.1.6",
  "modules": [
    {
      "id": 1,
      "plugin": "Core",
      "version": "1.1.6",
      "model": "AudioInterface",
      "params": [],
      "leftModuleId": 79,
      "rightModuleId": 100,
      "data": {
        "audio": {
          "driver": 5,
          "deviceName": "Apple Inc.: External Headphones",
          "offset": 0,
          "maxChannels": 8,
          "sampleRate": 44100,
          "blockSize": 1024
        }
      },
      "pos": [
        64,
        0
      ]
    },
    {
      "id": 78,
      "plugin": "Valley",
      "version": "1.0.1",
      "model": "Plateau",
      "params": [
        {
          "id": 0,
          "value": 1.0
        },
        {
          "id": 1,
          "value": 0.303000331
        },
        {
          "id": 2,
          "value": 0.176250085
        },
        {
          "id": 3,
          "value": 6.77499962
        },
        {
          "id": 4,
          "value": 10.0
        },
        {
          "id": 5,
          "value": 0.5
        },
        {
          "id": 6,
          "value": 10.0
        },
        {
          "id": 7,
          "value": 0.549950004
        },
        {
          "id": 8,
          "value": 10.0
        },
        {
          "id": 9,
          "value": 10.0
        },
        {
          "id": 10,
          "value": 0.0
        },
        {
          "id": 11,
          "value": 0.5
        },
        {
          "id": 12,
          "value": 0.5
        },
        {
          "id": 13,
          "value": 0.0
        },
        {
          "id": 14,
          "value": 0.0
        },
        {
          "id": 15,
          "value": 0.0
        },
        {
          "id": 16,
          "value": 0.0
        },
        {
          "id": 17,
          "value": 0.0
        },
        {
          "id": 18,
          "value": 0.0
        },
        {
          "id": 19,
          "value": 0.0
        },
        {
          "id": 20,
          "value": 0.0
        },
        {
          "id": 21,
          "value": 0.0
        },
        {
          "id": 22,
          "value": 0.0
        },
        {
          "id": 23,
          "value": 0.0
        },
        {
          "id": 24,
          "value": 0.0
        },
        {
          "id": 25,
          "value": 0.0
        },
        {
          "id": 26,
          "value": 0.0
        },
        {
          "id": 27,
          "value": 0.0
        },
        {
          "id": 28,
          "value": 0.0
        },
        {
          "id": 29,
          "value": 0.0
        },
        {
          "id": 30,
          "value": 0.0
        }
      ],
      "leftModuleId": 85,
      "rightModuleId": 99,
      "data": {
        "frozen": false,
        "freezeToggle": false,
        "panelStyle": 0,
        "tuned": 0,
        "diffuseInput": 0,
        "preDelayCVSens": 0,
        "inputSensitivity": 0,
        "outputSaturation": 0
      },
      "pos": [
        58,
        1
      ]
    },
    {
      "id": 79,
      "plugin": "Bogaudio",
      "version": "1.1.33",
      "model": "Bogaudio-Mix8",
      "params": [
        {
          "id": 0,
          "value": 0.909090936
        },
        {
          "id": 1,
          "value": 0.0
        },
        {
          "id": 2,
          "value": -1.0
        },
        {
          "id": 3,
          "value": 0.909090936
        },
        {
          "id": 4,
          "value": 0.0
        },
        {
          "id": 5,
          "value": 0.994000018
        },
        {
          "id": 6,
          "value": 0.693090618
        },
        {
          "id": 7,
          "value": 0.0
        },
        {
          "id": 8,
          "value": -1.0
        },
        {
          "id": 9,
          "value": 0.694590986
        },
        {
          "id": 10,
          "value": 0.0
        },
        {
          "id": 11,
          "value": 1.0
        },
        {
          "id": 12,
          "value": 0.823590815
        },
        {
          "id": 13,
          "value": 0.0
        },
        {
          "id": 14,
          "value": -1.0
        },
        {
          "id": 15,
          "value": 0.841590762
        },
        {
          "id": 16,
          "value": 0.0
        },
        {
          "id": 17,
          "value": 0.996999979
        },
        {
          "id": 18,
          "value": 0.850590706
        },
        {
          "id": 19,
          "value": 0.0
        },
        {
          "id": 20,
          "value": 0.0
        },
        {
          "id": 21,
          "value": 0.909090936
        },
        {
          "id": 22,
          "value": 1.0
        },
        {
          "id": 23,
          "value": 0.0
        },
        {
          "id": 24,
          "value": 0.909090936
        },
        {
          "id": 25,
          "value": 1.0
        },
        {
          "id": 26,
          "value": 0.0
        }
      ],
      "rightModuleId": 1,
      "data": {
        "dim_decibels": 12.0,
        "poly_channel_offset": -1
      },
      "pos": [
        37,
        0
      ]
    },
    {
      "id": 80,
      "plugin": "AudibleInstruments",
      "version": "1.3.1",
      "model": "Stages",
      "params": [
        {
          "id": 0,
          "value": 0.5
        },
        {
          "id": 1,
          "value": 0.5
        },
        {
          "id": 2,
          "value": 0.0
        },
        {
          "id": 3,
          "value": 0.0720000044
        },
        {
          "id": 4,
          "value": 0.0
        },
        {
          "id": 5,
          "value": 0.00150000001
        },
        {
          "id": 6,
          "value": 0.0
        },
        {
          "id": 7,
          "value": 0.0
        },
        {
          "id": 8,
          "value": 0.0
        },
        {
          "id": 9,
          "value": 0.0
        },
        {
          "id": 10,
          "value": 0.0
        },
        {
          "id": 11,
          "value": 0.0
        },
        {
          "id": 12,
          "value": 0.0150000006
        },
        {
          "id": 13,
          "value": 0.0210000016
        },
        {
          "id": 14,
          "value": 0.0
        },
        {
          "id": 15,
          "value": 0.217999205
        },
        {
          "id": 16,
          "value": 0.128999963
        },
        {
          "id": 17,
          "value": 0.313999742
        }
      ],
      "rightModuleId": 82,
      "data": {
        "configurations": [
          {
            "type": 0,
            "loop": true
          },
          {
            "type": 0,
            "loop": true
          },
          {
            "type": 1,
            "loop": false
          },
          {
            "type": 1,
            "loop": false
          },
          {
            "type": 1,
            "loop": false
          },
          {
            "type": 1,
            "loop": false
          }
        ]
      },
      "pos": [
        9,
        1
      ]
    },
    {
      "id": 81,
      "plugin": "ImpromptuModular",
      "version": "1.1.8",
      "model": "Clocked",
      "params": [
        {
          "id": 0,
          "value": 137.0
        },
        {
          "id": 1,
          "value": 2.0
        },
        {
          "id": 2,
          "value": -17.0
        },
        {
          "id": 3,
          "value": 5.0
        },
        {
          "id": 4,
          "value": 0.0
        },
        {
          "id": 5,
          "value": 0.0
        },
        {
          "id": 6,
          "value": 0.0
        },
        {
          "id": 7,
          "value": 0.0
        },
        {
          "id": 8,
          "value": 0.5
        },
        {
          "id": 9,
          "value": 0.5
        },
        {
          "id": 10,
          "value": 0.5
        },
        {
          "id": 11,
          "value": 0.5
        },
        {
          "id": 12,
          "value": 0.0
        },
        {
          "id": 13,
          "value": 0.0
        },
        {
          "id": 14,
          "value": 0.0
        },
        {
          "id": 15,
          "value": 0.0
        },
        {
          "id": 16,
          "value": 0.0
        },
        {
          "id": 17,
          "value": 0.0
        },
        {
          "id": 18,
          "value": 0.0
        },
        {
          "id": 19,
          "value": 0.0
        }
      ],
      "rightModuleId": 87,
      "data": {
        "panelTheme": 1,
        "running": false,
        "displayDelayNoteMode": true,
        "bpmDetectionMode": false,
        "resetOnStartStop": 0,
        "ppqn": 4,
        "resetClockOutputsHigh": true,
        "momentaryRunInput": true,
        "clockMaster": false
      },
      "pos": [
        0,
        0
      ]
    },
    {
      "id": 82,
      "plugin": "Fundamental",
      "version": "1.4.0",
      "model": "VCA-1",
      "params": [
        {
          "id": 0,
          "value": 0.439498097
        },
        {
          "id": 1,
          "value": 1.0
        }
      ],
      "leftModuleId": 80,
      "rightModuleId": 83,
      "pos": [
        23,
        1
      ]
    },
    {
      "id": 83,
      "plugin": "ML_modules",
      "version": "1.1.2",
      "model": "Quantum",
      "params": [
        {
          "id": 0,
          "value": 0.0
        },
        {
          "id": 1,
          "value": 0.0
        },
        {
          "id": 2,
          "value": 0.0
        },
        {
          "id": 3,
          "value": 0.0
        },
        {
          "id": 4,
          "value": 0.0
        },
        {
          "id": 5,
          "value": 0.0
        },
        {
          "id": 6,
          "value": 0.0
        },
        {
          "id": 7,
          "value": 0.0
        },
        {
          "id": 8,
          "value": 0.0
        },
        {
          "id": 9,
          "value": 0.0
        },
        {
          "id": 10,
          "value": 0.0
        },
        {
          "id": 11,
          "value": 0.0
        }
      ],
      "leftModuleId": 82,
      "rightModuleId": 84,
      "data": {
        "scale": [
          0,
          0,
          1,
          0,
          0,
          1,
          0,
          0,
          0,
          1,
          0,
          0
        ],
        "mode": 1,
        "transpose_select": 1,
        "toggle_mode": 0
      },
      "pos": [
        26,
        1
      ]
    },
    {
      "id": 84,
      "plugin": "Bogaudio",
      "version": "1.1.33",
      "model": "Bogaudio-FMOp",
      "params": [
        {
          "id": 0,
          "value": 0.0
        },
        {
          "id": 1,
          "value": 0.0
        },
        {
          "id": 2,
          "value": 0.0195000004
        },
        {
          "id": 3,
          "value": 0.316229999
        },
        {
          "id": 4,
          "value": 0.0
        },
        {
          "id": 5,
          "value": 0.316229999
        },
        {
          "id": 6,
          "value": 0.0
        },
        {
          "id": 7,
          "value": 0.185999975
        },
        {
          "id": 8,
          "value": 1.0
        },
        {
          "id": 9,
          "value": 1.0
        },
        {
          "id": 10,
          "value": 0.0
        },
        {
          "id": 11,
          "value": 0.0
        }
      ],
      "leftModuleId": 83,
      "rightModuleId": 86,
      "data": {
        "linearLevel": false
      },
      "pos": [
        34,
        1
      ]
    },
    {
      "id": 85,
      "plugin": "Bogaudio",
      "version": "1.1.33",
      "model": "Bogaudio-FMOp",
      "params": [
        {
          "id": 0,
          "value": 0.0
        },
        {
          "id": 1,
          "value": 0.0
        },
        {
          "id": 2,
          "value": 0.053999994
        },
        {
          "id": 3,
          "value": 0.316229999
        },
        {
          "id": 4,
          "value": 0.00150000001
        },
        {
          "id": 5,
          "value": 0.316229999
        },
        {
          "id": 6,
          "value": 0.0
        },
        {
          "id": 7,
          "value": 0.142499954
        },
        {
          "id": 8,
          "value": 1.0
        },
        {
          "id": 9,
          "value": 1.0
        },
        {
          "id": 10,
          "value": 0.0
        },
        {
          "id": 11,
          "value": 0.0
        }
      ],
      "leftModuleId": 86,
      "rightModuleId": 78,
      "data": {
        "linearLevel": false
      },
      "pos": [
        48,
        1
      ]
    },
    {
      "id": 86,
      "plugin": "21kHz",
      "version": "1.0.1",
      "model": "kHzD_Inf",
      "params": [
        {
          "id": 0,
          "value": 0.0
        },
        {
          "id": 1,
          "value": 7.0
        },
        {
          "id": 2,
          "value": 0.0
        },
        {
          "id": 3,
          "value": 0.0
        }
      ],
      "leftModuleId": 84,
      "rightModuleId": 85,
      "pos": [
        44,
        1
      ]
    },
    {
      "id": 87,
      "plugin": "ML_modules",
      "version": "1.1.2",
      "model": "Constants",
      "params": [],
      "leftModuleId": 81,
      "rightModuleId": 88,
      "pos": [
        20,
        0
      ]
    },
    {
      "id": 88,
      "plugin": "Fundamental",
      "version": "1.4.0",
      "model": "SequentialSwitch2",
      "params": [
        {
          "id": 0,
          "value": 1.0
        }
      ],
      "leftModuleId": 87,
      "pos": [
        26,
        0
      ]
    },
    {
      "id": 89,
      "plugin": "AudibleInstruments",
      "version": "1.3.1",
      "model": "Stages",
      "params": [
        {
          "id": 0,
          "value": 0.5
        },
        {
          "id": 1,
          "value": 0.5
        },
        {
          "id": 2,
          "value": 0.0
        },
        {
          "id": 3,
          "value": 0.0720000044
        },
        {
          "id": 4,
          "value": 0.0
        },
        {
          "id": 5,
          "value": 0.00150000001
        },
        {
          "id": 6,
          "value": 0.0
        },
        {
          "id": 7,
          "value": 0.0
        },
        {
          "id": 8,
          "value": 0.0
        },
        {
          "id": 9,
          "value": 0.0
        },
        {
          "id": 10,
          "value": 0.0
        },
        {
          "id": 11,
          "value": 0.0
        },
        {
          "id": 12,
          "value": 0.0150000006
        },
        {
          "id": 13,
          "value": 0.0210000016
        },
        {
          "id": 14,
          "value": 0.0
        },
        {
          "id": 15,
          "value": 0.217999205
        },
        {
          "id": 16,
          "value": 0.128999963
        },
        {
          "id": 17,
          "value": 0.313999742
        }
      ],
      "rightModuleId": 90,
      "data": {
        "configurations": [
          {
            "type": 0,
            "loop": true
          },
          {
            "type": 0,
            "loop": true
          },
          {
            "type": 1,
            "loop": false
          },
          {
            "type": 1,
            "loop": false
          },
          {
            "type": 1,
            "loop": false
          },
          {
            "type": 1,
            "loop": false
          }
        ]
      },
      "pos": [
        10,
        2
      ]
    },
    {
      "id": 90,
      "plugin": "Fundamental",
      "version": "1.4.0",
      "model": "VCA-1",
      "params": [
        {
          "id": 0,
          "value": 0.427498072
        },
        {
          "id": 1,
          "value": 1.0
        }
      ],
      "leftModuleId": 89,
      "rightModuleId": 91,
      "pos": [
        24,
        2
      ]
    },
    {
      "id": 91,
      "plugin": "ML_modules",
      "version": "1.1.2",
      "model": "Quantum",
      "params": [
        {
          "id": 0,
          "value": 0.0
        },
        {
          "id": 1,
          "value": 0.0
        },
        {
          "id": 2,
          "value": 0.0
        },
        {
          "id": 3,
          "value": 0.0
        },
        {
          "id": 4,
          "value": 0.0
        },
        {
          "id": 5,
          "value": 0.0
        },
        {
          "id": 6,
          "value": 0.0
        },
        {
          "id": 7,
          "value": 0.0
        },
        {
          "id": 8,
          "value": 0.0
        },
        {
          "id": 9,
          "value": 0.0
        },
        {
          "id": 10,
          "value": 0.0
        },
        {
          "id": 11,
          "value": 0.0
        }
      ],
      "leftModuleId": 90,
      "rightModuleId": 92,
      "data": {
        "scale": [
          0,
          0,
          1,
          0,
          0,
          1,
          0,
          0,
          0,
          1,
          0,
          0
        ],
        "mode": 1,
        "transpose_select": 1,
        "toggle_mode": 0
      },
      "pos": [
        27,
        2
      ]
    },
    {
      "id": 92,
      "plugin": "AudibleInstruments",
      "version": "1.3.1",
      "model": "Plaits",
      "params": [
        {
          "id": 0,
          "value": 0.0
        },
        {
          "id": 1,
          "value": 0.0
        },
        {
          "id": 2,
          "value": 0.0
        },
        {
          "id": 3,
          "value": 0.5
        },
        {
          "id": 4,
          "value": 0.5
        },
        {
          "id": 5,
          "value": 0.5
        },
        {
          "id": 6,
          "value": 0.0
        },
        {
          "id": 7,
          "value": 0.0
        },
        {
          "id": 8,
          "value": 0.0
        },
        {
          "id": 9,
          "value": 0.5
        },
        {
          "id": 10,
          "value": 0.5
        }
      ],
      "leftModuleId": 91,
      "rightModuleId": 93,
      "data": {
        "lowCpu": false,
        "model": 1
      },
      "pos": [
        35,
        2
      ]
    },
    {
      "id": 93,
      "plugin": "Valley",
      "version": "1.0.1",
      "model": "Plateau",
      "params": [
        {
          "id": 0,
          "value": 1.0
        },
        {
          "id": 1,
          "value": 0.596500397
        },
        {
          "id": 2,
          "value": 0.0
        },
        {
          "id": 3,
          "value": 10.0
        },
        {
          "id": 4,
          "value": 10.0
        },
        {
          "id": 5,
          "value": 0.832000017
        },
        {
          "id": 6,
          "value": 10.0
        },
        {
          "id": 7,
          "value": 0.608893335
        },
        {
          "id": 8,
          "value": 10.0
        },
        {
          "id": 9,
          "value": 7.65999222
        },
        {
          "id": 10,
          "value": 0.0
        },
        {
          "id": 11,
          "value": 0.5
        },
        {
          "id": 12,
          "value": 4.84400082
        },
        {
          "id": 13,
          "value": 0.0
        },
        {
          "id": 14,
          "value": 0.0
        },
        {
          "id": 15,
          "value": 0.0
        },
        {
          "id": 16,
          "value": 0.0
        },
        {
          "id": 17,
          "value": 0.0
        },
        {
          "id": 18,
          "value": 0.0
        },
        {
          "id": 19,
          "value": 0.0
        },
        {
          "id": 20,
          "value": 0.0
        },
        {
          "id": 21,
          "value": 0.0
        },
        {
          "id": 22,
          "value": 0.0
        },
        {
          "id": 23,
          "value": 0.0
        },
        {
          "id": 24,
          "value": 0.0
        },
        {
          "id": 25,
          "value": 0.0
        },
        {
          "id": 26,
          "value": 0.0
        },
        {
          "id": 27,
          "value": 0.0
        },
        {
          "id": 28,
          "value": 0.0
        },
        {
          "id": 29,
          "value": 1.0
        },
        {
          "id": 30,
          "value": 0.0
        }
      ],
      "leftModuleId": 92,
      "rightModuleId": 94,
      "data": {
        "frozen": false,
        "freezeToggle": false,
        "panelStyle": 0,
        "tuned": 1,
        "diffuseInput": 0,
        "preDelayCVSens": 0,
        "inputSensitivity": 0,
        "outputSaturation": 0
      },
      "pos": [
        47,
        2
      ]
    },
    {
      "id": 94,
      "plugin": "Valley",
      "version": "1.0.1",
      "model": "Plateau",
      "params": [
        {
          "id": 0,
          "value": 1.0
        },
        {
          "id": 1,
          "value": 0.390500128
        },
        {
          "id": 2,
          "value": 0.0
        },
        {
          "id": 3,
          "value": 7.25499916
        },
        {
          "id": 4,
          "value": 10.0
        },
        {
          "id": 5,
          "value": 0.576499879
        },
        {
          "id": 6,
          "value": 10.0
        },
        {
          "id": 7,
          "value": 0.464909554
        },
        {
          "id": 8,
          "value": 10.0
        },
        {
          "id": 9,
          "value": 7.26999521
        },
        {
          "id": 10,
          "value": 0.0
        },
        {
          "id": 11,
          "value": 0.5
        },
        {
          "id": 12,
          "value": 5.1320014
        },
        {
          "id": 13,
          "value": 0.0
        },
        {
          "id": 14,
          "value": 0.0
        },
        {
          "id": 15,
          "value": 0.0
        },
        {
          "id": 16,
          "value": 0.0
        },
        {
          "id": 17,
          "value": 0.0
        },
        {
          "id": 18,
          "value": 0.0
        },
        {
          "id": 19,
          "value": 0.0
        },
        {
          "id": 20,
          "value": 0.0
        },
        {
          "id": 21,
          "value": 0.0
        },
        {
          "id": 22,
          "value": 0.0
        },
        {
          "id": 23,
          "value": 0.0
        },
        {
          "id": 24,
          "value": 0.0
        },
        {
          "id": 25,
          "value": 0.0
        },
        {
          "id": 26,
          "value": 0.0
        },
        {
          "id": 27,
          "value": 0.0
        },
        {
          "id": 28,
          "value": 0.0
        },
        {
          "id": 29,
          "value": 0.0
        },
        {
          "id": 30,
          "value": 1.0
        }
      ],
      "leftModuleId": 93,
      "data": {
        "frozen": false,
        "freezeToggle": false,
        "panelStyle": 0,
        "tuned": 0,
        "diffuseInput": 1,
        "preDelayCVSens": 0,
        "inputSensitivity": 0,
        "outputSaturation": 0
      },
      "pos": [
        59,
        2
      ]
    },
    {
      "id": 95,
      "plugin": "Valley",
      "version": "1.0.1",
      "model": "Topograph",
      "params": [
        {
          "id": 0,
          "value": 0.0
        },
        {
          "id": 1,
          "value": 0.0
        },
        {
          "id": 2,
          "value": 0.0
        },
        {
          "id": 3,
          "value": 0.487499863
        },
        {
          "id": 4,
          "value": 0.631499887
        },
        {
          "id": 5,
          "value": 1.0
        },
        {
          "id": 6,
          "value": 0.315499783
        },
        {
          "id": 7,
          "value": 0.268999904
        },
        {
          "id": 8,
          "value": 0.5
        },
        {
          "id": 9,
          "value": 0.0
        }
      ],
      "leftModuleId": 99,
      "rightModuleId": 96,
      "data": {
        "sequencerMode": 0,
        "triggerOutputMode": 0,
        "accOutputMode": 0,
        "extClockResolution": 0,
        "chaosKnobMode": 0,
        "runMode": 0,
        "panelStyle": 0,
        "running": 1
      },
      "pos": [
        76,
        1
      ]
    },
    {
      "id": 96,
      "plugin": "Hora-treasureFree",
      "version": "1.0.2",
      "model": "SnareDrum-VCV",
      "params": [
        {
          "id": 0,
          "value": 0.5
        },
        {
          "id": 1,
          "value": 1500.0
        },
        {
          "id": 2,
          "value": 0.0
        },
        {
          "id": 3,
          "value": 0.0
        },
        {
          "id": 4,
          "value": 1.0
        },
        {
          "id": 5,
          "value": 0.0
        },
        {
          "id": 6,
          "value": 0.800000012
        },
        {
          "id": 7,
          "value": 0.0
        },
        {
          "id": 8,
          "value": 0.50999999
        },
        {
          "id": 9,
          "value": 0.677399993
        },
        {
          "id": 10,
          "value": 0.800000012
        },
        {
          "id": 11,
          "value": 0.800000012
        },
        {
          "id": 12,
          "value": 0.0
        },
        {
          "id": 13,
          "value": 0.583000004
        }
      ],
      "leftModuleId": 95,
      "rightModuleId": 97,
      "pos": [
        92,
        1
      ]
    },
    {
      "id": 97,
      "plugin": "Hora-treasureFree",
      "version": "1.0.2",
      "model": "SnareDrum-VCV",
      "params": [
        {
          "id": 0,
          "value": 0.5
        },
        {
          "id": 1,
          "value": 1500.0
        },
        {
          "id": 2,
          "value": 0.0
        },
        {
          "id": 3,
          "value": 0.0
        },
        {
          "id": 4,
          "value": 1.0
        },
        {
          "id": 5,
          "value": 0.0
        },
        {
          "id": 6,
          "value": 0.800000012
        },
        {
          "id": 7,
          "value": 0.0
        },
        {
          "id": 8,
          "value": 0.50999999
        },
        {
          "id": 9,
          "value": 0.677399993
        },
        {
          "id": 10,
          "value": 0.800000012
        },
        {
          "id": 11,
          "value": 0.800000012
        },
        {
          "id": 12,
          "value": 0.0
        },
        {
          "id": 13,
          "value": 0.583000004
        }
      ],
      "leftModuleId": 96,
      "rightModuleId": 98,
      "pos": [
        100,
        1
      ]
    },
    {
      "id": 98,
      "plugin": "Valley",
      "version": "1.0.1",
      "model": "Plateau",
      "params": [
        {
          "id": 0,
          "value": 1.0
        },
        {
          "id": 1,
          "value": 0.399499685
        },
        {
          "id": 2,
          "value": 0.0
        },
        {
          "id": 3,
          "value": 8.18499565
        },
        {
          "id": 4,
          "value": 10.0
        },
        {
          "id": 5,
          "value": 0.5
        },
        {
          "id": 6,
          "value": 10.0
        },
        {
          "id": 7,
          "value": 0.549950004
        },
        {
          "id": 8,
          "value": 10.0
        },
        {
          "id": 9,
          "value": 8.39499855
        },
        {
          "id": 10,
          "value": 0.0
        },
        {
          "id": 11,
          "value": 0.5
        },
        {
          "id": 12,
          "value": 2.56399989
        },
        {
          "id": 13,
          "value": 0.0
        },
        {
          "id": 14,
          "value": 0.0
        },
        {
          "id": 15,
          "value": 0.0
        },
        {
          "id": 16,
          "value": 0.0
        },
        {
          "id": 17,
          "value": 0.0
        },
        {
          "id": 18,
          "value": 0.0
        },
        {
          "id": 19,
          "value": 0.0
        },
        {
          "id": 20,
          "value": 0.0
        },
        {
          "id": 21,
          "value": 0.0
        },
        {
          "id": 22,
          "value": 0.0
        },
        {
          "id": 23,
          "value": 0.0
        },
        {
          "id": 24,
          "value": 0.0
        },
        {
          "id": 25,
          "value": 0.0
        },
        {
          "id": 26,
          "value": 0.0
        },
        {
          "id": 27,
          "value": 0.0
        },
        {
          "id": 28,
          "value": 0.0
        },
        {
          "id": 29,
          "value": 0.0
        },
        {
          "id": 30,
          "value": 1.0
        }
      ],
      "leftModuleId": 97,
      "data": {
        "frozen": true,
        "freezeToggle": false,
        "panelStyle": 0,
        "tuned": 0,
        "diffuseInput": 1,
        "preDelayCVSens": 0,
        "inputSensitivity": 0,
        "outputSaturation": 0
      },
      "pos": [
        108,
        1
      ]
    },
    {
      "id": 99,
      "plugin": "AudibleInstruments",
      "version": "1.3.1",
      "model": "Branches",
      "params": [
        {
          "id": 0,
          "value": 0.5
        },
        {
          "id": 1,
          "value": 0.5
        },
        {
          "id": 2,
          "value": 0.0
        },
        {
          "id": 3,
          "value": 0.0
        }
      ],
      "leftModuleId": 78,
      "rightModuleId": 95,
      "data": {
        "modes": [
          false,
          false
        ]
      },
      "pos": [
        70,
        1
      ]
    },
    {
      "id": 100,
      "plugin": "VultModulesFree",
      "version": "1.10.1",
      "model": "Trummor2",
      "params": [
        {
          "id": 0,
          "value": 0.0500000007
        },
        {
          "id": 1,
          "value": 0.344000131
        },
        {
          "id": 2,
          "value": 0.0
        },
        {
          "id": 3,
          "value": 0.0
        },
        {
          "id": 4,
          "value": 0.0
        },
        {
          "id": 5,
          "value": 0.0
        },
        {
          "id": 6,
          "value": 0.0
        },
        {
          "id": 7,
          "value": 0.200000003
        },
        {
          "id": 8,
          "value": 0.400000006
        },
        {
          "id": 9,
          "value": 0.0
        },
        {
          "id": 10,
          "value": 0.0
        },
        {
          "id": 11,
          "value": 0.699999988
        },
        {
          "id": 12,
          "value": 0.100000001
        },
        {
          "id": 13,
          "value": 0.0
        },
        {
          "id": 14,
          "value": 0.0
        },
        {
          "id": 15,
          "value": 0.949999988
        },
        {
          "id": 16,
          "value": 0.0
        },
        {
          "id": 17,
          "value": 0.0
        },
        {
          "id": 18,
          "value": 0.0
        },
        {
          "id": 19,
          "value": 0.0500000007
        },
        {
          "id": 20,
          "value": 0.0500000007
        },
        {
          "id": 21,
          "value": 0.0
        },
        {
          "id": 22,
          "value": 0.0
        },
        {
          "id": 23,
          "value": 0.100000001
        },
        {
          "id": 24,
          "value": 0.0
        },
        {
          "id": 25,
          "value": 0.0
        },
        {
          "id": 26,
          "value": 0.0
        },
        {
          "id": 27,
          "value": 0.0
        },
        {
          "id": 28,
          "value": 0.0
        },
        {
          "id": 29,
          "value": 0.0
        },
        {
          "id": 30,
          "value": 0.0
        },
        {
          "id": 31,
          "value": 0.0
        },
        {
          "id": 32,
          "value": 0.0
        }
      ],
      "leftModuleId": 1,
      "data": {
        "mod_a": 0,
        "mod_b": 0,
        "mod_c": 0,
        "mod_d": 0,
        "mk2": true
      },
      "pos": [
        74,
        0
      ]
    },
    {
      "id": 101,
      "plugin": "Befaco",
      "version": "1.0.1",
      "model": "EvenVCO",
      "params": [
        {
          "id": 0,
          "value": -3.0
        },
        {
          "id": 1,
          "value": 1.9950043
        },
        {
          "id": 2,
          "value": 0.0
        }
      ],
      "rightModuleId": 102,
      "pos": [
        82,
        2
      ]
    },
    {
      "id": 102,
      "plugin": "VultModulesFree",
      "version": "1.10.1",
      "model": "Tangents",
      "params": [
        {
          "id": 0,
          "value": 0.340999812
        },
        {
          "id": 1,
          "value": 0.293999702
        },
        {
          "id": 2,
          "value": 0.0
        },
        {
          "id": 3,
          "value": 0.0
        },
        {
          "id": 4,
          "value": 0.600000024
        },
        {
          "id": 5,
          "value": 0.0
        },
        {
          "id": 6,
          "value": 0.0
        }
      ],
      "leftModuleId": 101,
      "pos": [
        90,
        2
      ]
    }
  ],
  "cables": [
    {
      "id": 183,
      "outputModuleId": 81,
      "outputId": 1,
      "inputModuleId": 80,
      "inputId": 8,
      "color": "#0c8e15"
    },
    {
      "id": 184,
      "outputModuleId": 80,
      "outputId": 2,
      "inputModuleId": 82,
      "inputId": 1,
      "color": "#c91847"
    },
    {
      "id": 185,
      "outputModuleId": 82,
      "outputId": 0,
      "inputModuleId": 83,
      "inputId": 0,
      "color": "#c91847"
    },
    {
      "id": 186,
      "outputModuleId": 83,
      "outputId": 0,
      "inputModuleId": 84,
      "inputId": 4,
      "color": "#0986ad"
    },
    {
      "id": 187,
      "outputModuleId": 83,
      "outputId": 0,
      "inputModuleId": 86,
      "inputId": 2,
      "color": "#c9b70e"
    },
    {
      "id": 188,
      "outputModuleId": 86,
      "outputId": 0,
      "inputModuleId": 85,
      "inputId": 4,
      "color": "#0c8e15"
    },
    {
      "id": 189,
      "outputModuleId": 83,
      "outputId": 2,
      "inputModuleId": 84,
      "inputId": 5,
      "color": "#c91847"
    },
    {
      "id": 190,
      "outputModuleId": 83,
      "outputId": 2,
      "inputModuleId": 85,
      "inputId": 5,
      "color": "#0986ad"
    },
    {
      "id": 191,
      "outputModuleId": 84,
      "outputId": 0,
      "inputModuleId": 78,
      "inputId": 0,
      "color": "#c9b70e"
    },
    {
      "id": 192,
      "outputModuleId": 85,
      "outputId": 0,
      "inputModuleId": 78,
      "inputId": 1,
      "color": "#0c8e15"
    },
    {
      "id": 193,
      "outputModuleId": 79,
      "outputId": 0,
      "inputModuleId": 1,
      "inputId": 0,
      "color": "#c91847"
    },
    {
      "id": 194,
      "outputModuleId": 79,
      "outputId": 1,
      "inputModuleId": 1,
      "inputId": 1,
      "color": "#0986ad"
    },
    {
      "id": 195,
      "outputModuleId": 78,
      "outputId": 0,
      "inputModuleId": 79,
      "inputId": 2,
      "color": "#c9b70e"
    },
    {
      "id": 196,
      "outputModuleId": 78,
      "outputId": 1,
      "inputModuleId": 79,
      "inputId": 5,
      "color": "#0c8e15"
    },
    {
      "id": 199,
      "outputModuleId": 87,
      "outputId": 5,
      "inputModuleId": 88,
      "inputId": 4,
      "color": "#c9b70e"
    },
    {
      "id": 202,
      "outputModuleId": 88,
      "outputId": 0,
      "inputModuleId": 83,
      "inputId": 1,
      "color": "#0986ad"
    },
    {
      "id": 200,
      "outputModuleId": 81,
      "outputId": 2,
      "inputModuleId": 88,
      "inputId": 0,
      "color": "#0c8e15"
    },
    {
      "id": 203,
      "outputModuleId": 81,
      "outputId": 4,
      "inputModuleId": 88,
      "inputId": 1,
      "color": "#c9b70e"
    },
    {
      "id": 205,
      "outputModuleId": 80,
      "outputId": 0,
      "inputModuleId": 84,
      "inputId": 2,
      "color": "#c91847"
    },
    {
      "id": 206,
      "outputModuleId": 80,
      "outputId": 1,
      "inputModuleId": 85,
      "inputId": 2,
      "color": "#0986ad"
    },
    {
      "id": 207,
      "outputModuleId": 81,
      "outputId": 3,
      "inputModuleId": 89,
      "inputId": 8,
      "color": "#c9b70e"
    },
    {
      "id": 208,
      "outputModuleId": 89,
      "outputId": 2,
      "inputModuleId": 90,
      "inputId": 1,
      "color": "#0c8e15"
    },
    {
      "id": 209,
      "outputModuleId": 90,
      "outputId": 0,
      "inputModuleId": 91,
      "inputId": 0,
      "color": "#c91847"
    },
    {
      "id": 210,
      "outputModuleId": 91,
      "outputId": 0,
      "inputModuleId": 92,
      "inputId": 7,
      "color": "#0986ad"
    },
    {
      "id": 211,
      "outputModuleId": 91,
      "outputId": 1,
      "inputModuleId": 92,
      "inputId": 5,
      "color": "#c9b70e"
    },
    {
      "id": 215,
      "outputModuleId": 92,
      "outputId": 0,
      "inputModuleId": 93,
      "inputId": 0,
      "color": "#c9b70e"
    },
    {
      "id": 216,
      "outputModuleId": 92,
      "outputId": 1,
      "inputModuleId": 93,
      "inputId": 1,
      "color": "#0c8e15"
    },
    {
      "id": 214,
      "outputModuleId": 94,
      "outputId": 1,
      "inputModuleId": 79,
      "inputId": 11,
      "color": "#0986ad"
    },
    {
      "id": 213,
      "outputModuleId": 94,
      "outputId": 0,
      "inputModuleId": 79,
      "inputId": 8,
      "color": "#c91847"
    },
    {
      "id": 217,
      "outputModuleId": 93,
      "outputId": 0,
      "inputModuleId": 94,
      "inputId": 0,
      "color": "#c91847"
    },
    {
      "id": 218,
      "outputModuleId": 93,
      "outputId": 1,
      "inputModuleId": 94,
      "inputId": 1,
      "color": "#0986ad"
    },
    {
      "id": 219,
      "outputModuleId": 81,
      "outputId": 3,
      "inputModuleId": 95,
      "inputId": 0,
      "color": "#c9b70e"
    },
    {
      "id": 220,
      "outputModuleId": 95,
      "outputId": 0,
      "inputModuleId": 96,
      "inputId": 0,
      "color": "#0c8e15"
    },
    {
      "id": 221,
      "outputModuleId": 95,
      "outputId": 1,
      "inputModuleId": 97,
      "inputId": 0,
      "color": "#c91847"
    },
    {
      "id": 222,
      "outputModuleId": 95,
      "outputId": 3,
      "inputModuleId": 96,
      "inputId": 1,
      "color": "#0986ad"
    },
    {
      "id": 223,
      "outputModuleId": 95,
      "outputId": 4,
      "inputModuleId": 97,
      "inputId": 1,
      "color": "#c9b70e"
    },
    {
      "id": 224,
      "outputModuleId": 96,
      "outputId": 2,
      "inputModuleId": 98,
      "inputId": 0,
      "color": "#0c8e15"
    },
    {
      "id": 225,
      "outputModuleId": 97,
      "outputId": 2,
      "inputModuleId": 98,
      "inputId": 1,
      "color": "#c91847"
    },
    {
      "id": 226,
      "outputModuleId": 98,
      "outputId": 0,
      "inputModuleId": 79,
      "inputId": 14,
      "color": "#0986ad"
    },
    {
      "id": 227,
      "outputModuleId": 98,
      "outputId": 1,
      "inputModuleId": 79,
      "inputId": 17,
      "color": "#c9b70e"
    },
    {
      "id": 228,
      "outputModuleId": 81,
      "outputId": 1,
      "inputModuleId": 99,
      "inputId": 0,
      "color": "#0c8e15"
    },
    {
      "id": 229,
      "outputModuleId": 99,
      "outputId": 0,
      "inputModuleId": 98,
      "inputId": 15,
      "color": "#c91847"
    },
    {
      "id": 230,
      "outputModuleId": 99,
      "outputId": 2,
      "inputModuleId": 98,
      "inputId": 16,
      "color": "#0986ad"
    },
    {
      "id": 231,
      "outputModuleId": 81,
      "outputId": 0,
      "inputModuleId": 100,
      "inputId": 0,
      "color": "#c9b70e"
    },
    {
      "id": 232,
      "outputModuleId": 100,
      "outputId": 0,
      "inputModuleId": 79,
      "inputId": 20,
      "color": "#0c8e15"
    },
    {
      "id": 234,
      "outputModuleId": 101,
      "outputId": 3,
      "inputModuleId": 102,
      "inputId": 0,
      "color": "#c9b70e"
    },
    {
      "id": 235,
      "outputModuleId": 102,
      "outputId": 0,
      "inputModuleId": 79,
      "inputId": 23,
      "color": "#0c8e15"
    },
    {
      "id": 212,
      "outputModuleId": 88,
      "outputId": 0,
      "inputModuleId": 91,
      "inputId": 1,
      "color": "#0c8e15"
    },
    {
      "id": 236,
      "outputModuleId": 88,
      "outputId": 0,
      "inputModuleId": 101,
      "inputId": 1,
      "color": "#c91847"
    }
  ]
}