{
  "version": "1.1.6",
  "modules": [
    {
      "id": 1,
      "plugin": "Core",
      "version": "1.1.6",
      "model": "AudioInterface",
      "params": [],
      "leftModuleId": 33,
      "data": {
        "audio": {
          "driver": 5,
          "deviceName": "Apple Inc.: External Headphones",
          "offset": 0,
          "maxChannels": 8,
          "sampleRate": 44100,
          "blockSize": 4096
        }
      },
      "pos": [
        73,
        0
      ]
    },
    {
      "id": 33,
      "plugin": "GlueTheGiant",
      "version": "1.1.2",
      "model": "BusDepot",
      "params": [
        {
          "id": 0,
          "value": 0.0
        },
        {
          "id": 1,
          "value": 1.0
        },
        {
          "id": 2,
          "value": 0.501699507
        },
        {
          "id": 3,
          "value": 26.0
        },
        {
          "id": 4,
          "value": 26.0
        }
      ],
      "leftModuleId": 35,
      "rightModuleId": 1,
      "data": {
        "input_on": 0,
        "level_cv_filter": 1,
        "color_theme": 1,
        "fade_cv_mode": 0,
        "audition_depot": 0,
        "auditioned": 0,
        "temped": 0,
        "audition_mode": 0
      },
      "pos": [
        67,
        0
      ]
    },
    {
      "id": 34,
      "plugin": "GlueTheGiant",
      "version": "1.1.2",
      "model": "BusRoute",
      "params": [
        {
          "id": 0,
          "value": 0.0
        },
        {
          "id": 1,
          "value": 0.0
        },
        {
          "id": 2,
          "value": 0.0
        },
        {
          "id": 3,
          "value": 0.0
        },
        {
          "id": 4,
          "value": 0.0
        },
        {
          "id": 5,
          "value": 0.0
        }
      ],
      "leftModuleId": 162,
      "rightModuleId": 35,
      "data": {
        "onau_1": 1,
        "onau_2": 1,
        "onau_3": 1,
        "auditioning": 0,
        "bus_audition1": 0,
        "bus_audition2": 0,
        "bus_audition3": 0,
        "temped1": 0,
        "temped2": 0,
        "temped3": 0,
        "color_theme": 1
      },
      "pos": [
        49,
        0
      ]
    },
    {
      "id": 35,
      "plugin": "Valley",
      "version": "1.0.1",
      "model": "Plateau",
      "params": [
        {
          "id": 0,
          "value": 0.0
        },
        {
          "id": 1,
          "value": 0.5
        },
        {
          "id": 2,
          "value": 0.0
        },
        {
          "id": 3,
          "value": 10.0
        },
        {
          "id": 4,
          "value": 8.2300024
        },
        {
          "id": 5,
          "value": 0.5
        },
        {
          "id": 6,
          "value": 10.0
        },
        {
          "id": 7,
          "value": 0.549950004
        },
        {
          "id": 8,
          "value": 8.15500069
        },
        {
          "id": 9,
          "value": 10.0
        },
        {
          "id": 10,
          "value": 0.0
        },
        {
          "id": 11,
          "value": 0.5
        },
        {
          "id": 12,
          "value": 2.22799993
        },
        {
          "id": 13,
          "value": 0.0
        },
        {
          "id": 14,
          "value": 0.0
        },
        {
          "id": 15,
          "value": 0.0
        },
        {
          "id": 16,
          "value": 0.0
        },
        {
          "id": 17,
          "value": 0.0
        },
        {
          "id": 18,
          "value": 0.0
        },
        {
          "id": 19,
          "value": 0.0
        },
        {
          "id": 20,
          "value": 0.0
        },
        {
          "id": 21,
          "value": 0.0
        },
        {
          "id": 22,
          "value": 0.0
        },
        {
          "id": 23,
          "value": 0.0
        },
        {
          "id": 24,
          "value": 0.0
        },
        {
          "id": 25,
          "value": 0.0
        },
        {
          "id": 26,
          "value": 0.0
        },
        {
          "id": 27,
          "value": 0.0
        },
        {
          "id": 28,
          "value": 0.0
        },
        {
          "id": 29,
          "value": 0.0
        },
        {
          "id": 30,
          "value": 1.0
        }
      ],
      "leftModuleId": 34,
      "rightModuleId": 33,
      "data": {
        "frozen": false,
        "freezeToggle": false,
        "panelStyle": 0,
        "tuned": 0,
        "diffuseInput": 1,
        "preDelayCVSens": 0,
        "inputSensitivity": 0,
        "outputSaturation": 0
      },
      "pos": [
        55,
        0
      ]
    },
    {
      "id": 142,
      "plugin": "Geodesics",
      "version": "1.2.0",
      "model": "Pulsars",
      "params": [
        {
          "id": 0,
          "value": 0.0
        },
        {
          "id": 1,
          "value": 0.0
        },
        {
          "id": 2,
          "value": 0.0
        },
        {
          "id": 3,
          "value": 0.0
        },
        {
          "id": 4,
          "value": 0.0
        },
        {
          "id": 5,
          "value": 0.0
        },
        {
          "id": 6,
          "value": 0.0
        },
        {
          "id": 7,
          "value": 0.0
        }
      ],
      "leftModuleId": 165,
      "rightModuleId": 144,
      "data": {
        "panelTheme": 1,
        "isVoid0": 0.0,
        "isVoid1": 0.0,
        "isReverse0": 0.0,
        "isReverse1": 0.0,
        "isRandom0": 1.0,
        "isRandom1": 0.0,
        "cvMode0": 2,
        "cvMode1": 2
      },
      "pos": [
        8,
        1
      ]
    },
    {
      "id": 144,
      "plugin": "squinkylabs-plug1",
      "version": "1.0.10",
      "model": "squinkylabs-super",
      "params": [
        {
          "id": 0,
          "value": 0.0
        },
        {
          "id": 1,
          "value": 0.0
        },
        {
          "id": 2,
          "value": 0.0
        },
        {
          "id": 3,
          "value": 0.0
        },
        {
          "id": 4,
          "value": 0.0
        },
        {
          "id": 5,
          "value": 0.0
        },
        {
          "id": 6,
          "value": 0.0
        },
        {
          "id": 7,
          "value": 0.0
        },
        {
          "id": 8,
          "value": 0.0
        },
        {
          "id": 9,
          "value": 0.0
        }
      ],
      "leftModuleId": 142,
      "rightModuleId": 145,
      "pos": [
        19,
        1
      ]
    },
    {
      "id": 145,
      "plugin": "VultModulesFree",
      "version": "1.11",
      "model": "Bleak",
      "params": [
        {
          "id": 0,
          "value": 0.0
        },
        {
          "id": 1,
          "value": 0.0
        },
        {
          "id": 2,
          "value": 0.5
        },
        {
          "id": 3,
          "value": 0.408000112
        },
        {
          "id": 4,
          "value": 0.5
        },
        {
          "id": 5,
          "value": 0.285000056
        }
      ],
      "leftModuleId": 144,
      "rightModuleId": 147,
      "pos": [
        29,
        1
      ]
    },
    {
      "id": 147,
      "plugin": "squinkylabs-plug1",
      "version": "1.0.10",
      "model": "squinkylabs-ev3",
      "params": [
        {
          "id": 0,
          "value": 0.0
        },
        {
          "id": 1,
          "value": 0.0
        },
        {
          "id": 2,
          "value": 0.0
        },
        {
          "id": 3,
          "value": 0.0
        },
        {
          "id": 4,
          "value": 3.0
        },
        {
          "id": 5,
          "value": 0.0
        },
        {
          "id": 6,
          "value": 0.0
        },
        {
          "id": 7,
          "value": 0.0
        },
        {
          "id": 8,
          "value": 0.0
        },
        {
          "id": 9,
          "value": 0.0
        },
        {
          "id": 10,
          "value": 0.0
        },
        {
          "id": 11,
          "value": -2.0
        },
        {
          "id": 12,
          "value": 7.0
        },
        {
          "id": 13,
          "value": 0.0
        },
        {
          "id": 14,
          "value": 0.0
        },
        {
          "id": 15,
          "value": 0.0
        },
        {
          "id": 16,
          "value": 0.0
        },
        {
          "id": 17,
          "value": 0.0
        },
        {
          "id": 18,
          "value": 0.0
        },
        {
          "id": 19,
          "value": -3.0
        },
        {
          "id": 20,
          "value": 0.0
        },
        {
          "id": 21,
          "value": 0.0
        },
        {
          "id": 22,
          "value": 0.0
        },
        {
          "id": 23,
          "value": 0.0
        },
        {
          "id": 24,
          "value": 0.0
        },
        {
          "id": 25,
          "value": 0.0
        },
        {
          "id": 26,
          "value": 0.0
        }
      ],
      "leftModuleId": 145,
      "rightModuleId": 148,
      "pos": [
        35,
        1
      ]
    },
    {
      "id": 148,
      "plugin": "QuantalAudio",
      "version": "1.0.0",
      "model": "Horsehair",
      "params": [
        {
          "id": 0,
          "value": 0.0
        },
        {
          "id": 1,
          "value": -2.0
        },
        {
          "id": 2,
          "value": -1.0
        },
        {
          "id": 3,
          "value": 0.0
        },
        {
          "id": 4,
          "value": 1.0
        },
        {
          "id": 5,
          "value": 0.5
        },
        {
          "id": 6,
          "value": 0.5
        },
        {
          "id": 7,
          "value": 0.5
        }
      ],
      "leftModuleId": 147,
      "rightModuleId": 149,
      "pos": [
        53,
        1
      ]
    },
    {
      "id": 149,
      "plugin": "Fundamental",
      "version": "1.4.0",
      "model": "VCO2",
      "params": [
        {
          "id": 0,
          "value": 1.0
        },
        {
          "id": 1,
          "value": 1.0
        },
        {
          "id": 2,
          "value": 0.0
        },
        {
          "id": 3,
          "value": 1.5
        },
        {
          "id": 4,
          "value": 0.0
        }
      ],
      "leftModuleId": 148,
      "rightModuleId": 150,
      "pos": [
        60,
        1
      ]
    },
    {
      "id": 150,
      "plugin": "Bogaudio",
      "version": "1.1.33",
      "model": "Bogaudio-EightFO",
      "params": [
        {
          "id": 0,
          "value": 0.0
        },
        {
          "id": 1,
          "value": 3.0
        },
        {
          "id": 2,
          "value": 0.0
        },
        {
          "id": 3,
          "value": 0.0
        },
        {
          "id": 4,
          "value": 0.0
        },
        {
          "id": 5,
          "value": 0.0
        },
        {
          "id": 6,
          "value": 0.0
        },
        {
          "id": 7,
          "value": 0.0
        },
        {
          "id": 8,
          "value": 0.0
        },
        {
          "id": 9,
          "value": 0.0
        },
        {
          "id": 10,
          "value": 0.0
        },
        {
          "id": 11,
          "value": 0.0
        },
        {
          "id": 12,
          "value": 0.0
        },
        {
          "id": 13,
          "value": 1.0
        }
      ],
      "leftModuleId": 149,
      "pos": [
        66,
        1
      ]
    },
    {
      "id": 151,
      "plugin": "Befaco",
      "version": "1.0.1",
      "model": "EvenVCO",
      "params": [
        {
          "id": 0,
          "value": -1.0
        },
        {
          "id": 1,
          "value": 0.0
        },
        {
          "id": 2,
          "value": 0.0
        }
      ],
      "leftModuleId": 171,
      "rightModuleId": 152,
      "pos": [
        17,
        2
      ]
    },
    {
      "id": 152,
      "plugin": "VultModulesFree",
      "version": "1.11",
      "model": "Debriatus",
      "params": [
        {
          "id": 0,
          "value": 0.330000043
        },
        {
          "id": 1,
          "value": 0.322499961
        },
        {
          "id": 2,
          "value": 0.0
        },
        {
          "id": 3,
          "value": 0.181500018
        },
        {
          "id": 4,
          "value": 0.0
        },
        {
          "id": 5,
          "value": 0.0
        },
        {
          "id": 6,
          "value": 0.0
        },
        {
          "id": 7,
          "value": 0.0
        }
      ],
      "leftModuleId": 151,
      "rightModuleId": 153,
      "pos": [
        25,
        2
      ]
    },
    {
      "id": 153,
      "plugin": "Valley",
      "version": "1.0.1",
      "model": "Amalgam",
      "params": [
        {
          "id": 0,
          "value": 1.0
        },
        {
          "id": 1,
          "value": 1.0
        },
        {
          "id": 2,
          "value": 0.238500014
        },
        {
          "id": 3,
          "value": 0.346500129
        },
        {
          "id": 4,
          "value": 2.31839967
        },
        {
          "id": 5,
          "value": 0.0
        },
        {
          "id": 6,
          "value": 0.0
        },
        {
          "id": 7,
          "value": 0.0
        },
        {
          "id": 8,
          "value": 0.0
        },
        {
          "id": 9,
          "value": 0.0
        },
        {
          "id": 10,
          "value": 0.0
        },
        {
          "id": 11,
          "value": 0.0
        },
        {
          "id": 12,
          "value": 0.0
        },
        {
          "id": 13,
          "value": 0.0
        }
      ],
      "leftModuleId": 152,
      "rightModuleId": 154,
      "data": {
        "panelStyle": 0,
        "dcCoupled": 0
      },
      "pos": [
        35,
        2
      ]
    },
    {
      "id": 154,
      "plugin": "AlrightDevices",
      "version": "1.0.3",
      "model": "T-Wrex",
      "params": [
        {
          "id": 0,
          "value": 0.80400002
        },
        {
          "id": 1,
          "value": 0.331500053
        },
        {
          "id": 2,
          "value": 1.0
        },
        {
          "id": 3,
          "value": 1.0
        },
        {
          "id": 4,
          "value": 0.0
        },
        {
          "id": 5,
          "value": 0.0
        },
        {
          "id": 6,
          "value": 0.0
        },
        {
          "id": 7,
          "value": 0.0
        }
      ],
      "leftModuleId": 153,
      "rightModuleId": 161,
      "pos": [
        45,
        2
      ]
    },
    {
      "id": 155,
      "plugin": "GlueTheGiant",
      "version": "1.1.2",
      "model": "GigBus",
      "params": [
        {
          "id": 0,
          "value": 0.0
        },
        {
          "id": 1,
          "value": 1.0
        },
        {
          "id": 2,
          "value": 0.475200057
        },
        {
          "id": 3,
          "value": 0.0
        },
        {
          "id": 4,
          "value": 0.65019995
        }
      ],
      "leftModuleId": 161,
      "rightModuleId": 156,
      "data": {
        "input_on": 1,
        "post_fades": 1,
        "gain": 1.0,
        "color_theme": 1,
        "fade_in": 26.0,
        "fade_out": 26.0,
        "audition_mixer": 0,
        "auditioned": 0,
        "temped": 0
      },
      "pos": [
        61,
        2
      ]
    },
    {
      "id": 156,
      "plugin": "GlueTheGiant",
      "version": "1.1.2",
      "model": "GigBus",
      "params": [
        {
          "id": 0,
          "value": 0.0
        },
        {
          "id": 1,
          "value": -0.709599972
        },
        {
          "id": 2,
          "value": 0.458700091
        },
        {
          "id": 3,
          "value": 0.0
        },
        {
          "id": 4,
          "value": 0.643599927
        }
      ],
      "leftModuleId": 155,
      "rightModuleId": 157,
      "data": {
        "input_on": 1,
        "post_fades": 1,
        "gain": 1.0,
        "color_theme": 1,
        "fade_in": 26.0,
        "fade_out": 26.0,
        "audition_mixer": 0,
        "auditioned": 0,
        "temped": 0
      },
      "pos": [
        65,
        2
      ]
    },
    {
      "id": 157,
      "plugin": "GlueTheGiant",
      "version": "1.1.2",
      "model": "GigBus",
      "params": [
        {
          "id": 0,
          "value": 0.0
        },
        {
          "id": 1,
          "value": 0.683199823
        },
        {
          "id": 2,
          "value": 0.494999796
        },
        {
          "id": 3,
          "value": 0.0
        },
        {
          "id": 4,
          "value": 0.630400002
        }
      ],
      "leftModuleId": 156,
      "rightModuleId": 158,
      "data": {
        "input_on": 1,
        "post_fades": 1,
        "gain": 1.0,
        "color_theme": 1,
        "fade_in": 26.0,
        "fade_out": 26.0,
        "audition_mixer": 0,
        "auditioned": 0,
        "temped": 0
      },
      "pos": [
        69,
        2
      ]
    },
    {
      "id": 158,
      "plugin": "GlueTheGiant",
      "version": "1.1.2",
      "model": "GigBus",
      "params": [
        {
          "id": 0,
          "value": 0.0
        },
        {
          "id": 1,
          "value": -0.547800004
        },
        {
          "id": 2,
          "value": 0.445500046
        },
        {
          "id": 3,
          "value": 0.0
        },
        {
          "id": 4,
          "value": 0.633699954
        }
      ],
      "leftModuleId": 157,
      "rightModuleId": 159,
      "data": {
        "input_on": 1,
        "post_fades": 1,
        "gain": 1.0,
        "color_theme": 1,
        "fade_in": 26.0,
        "fade_out": 26.0,
        "audition_mixer": 0,
        "auditioned": 0,
        "temped": 0
      },
      "pos": [
        73,
        2
      ]
    },
    {
      "id": 159,
      "plugin": "GlueTheGiant",
      "version": "1.1.2",
      "model": "GigBus",
      "params": [
        {
          "id": 0,
          "value": 0.0
        },
        {
          "id": 1,
          "value": 0.508200228
        },
        {
          "id": 2,
          "value": 0.435600013
        },
        {
          "id": 3,
          "value": 0.0
        },
        {
          "id": 4,
          "value": 0.636999846
        }
      ],
      "leftModuleId": 158,
      "rightModuleId": 167,
      "data": {
        "input_on": 1,
        "post_fades": 1,
        "gain": 1.0,
        "color_theme": 1,
        "fade_in": 26.0,
        "fade_out": 26.0,
        "audition_mixer": 0,
        "auditioned": 0,
        "temped": 0
      },
      "pos": [
        77,
        2
      ]
    },
    {
      "id": 161,
      "plugin": "GlueTheGiant",
      "version": "1.1.2",
      "model": "GigBus",
      "params": [
        {
          "id": 0,
          "value": 0.0
        },
        {
          "id": 1,
          "value": -1.0
        },
        {
          "id": 2,
          "value": 0.438900024
        },
        {
          "id": 3,
          "value": 0.0
        },
        {
          "id": 4,
          "value": 0.656799972
        }
      ],
      "leftModuleId": 154,
      "rightModuleId": 155,
      "data": {
        "input_on": 1,
        "post_fades": 1,
        "gain": 1.0,
        "color_theme": 1,
        "fade_in": 26.0,
        "fade_out": 26.0,
        "audition_mixer": 0,
        "auditioned": 0,
        "temped": 0
      },
      "pos": [
        57,
        2
      ]
    },
    {
      "id": 162,
      "plugin": "GlueTheGiant",
      "version": "1.1.2",
      "model": "GigBus",
      "params": [
        {
          "id": 0,
          "value": 0.0
        },
        {
          "id": 1,
          "value": 0.0
        },
        {
          "id": 2,
          "value": 0.531299829
        },
        {
          "id": 3,
          "value": 0.0
        },
        {
          "id": 4,
          "value": 1.0
        }
      ],
      "rightModuleId": 34,
      "data": {
        "input_on": 1,
        "post_fades": 1,
        "gain": 1.0,
        "color_theme": 1,
        "fade_in": 26.0,
        "fade_out": 26.0,
        "audition_mixer": 0,
        "auditioned": 0,
        "temped": 0
      },
      "pos": [
        45,
        0
      ]
    },
    {
      "id": 163,
      "plugin": "ImpromptuModular",
      "version": "1.1.8",
      "model": "Clocked",
      "params": [
        {
          "id": 0,
          "value": 100.0
        },
        {
          "id": 1,
          "value": -2.0
        },
        {
          "id": 2,
          "value": 0.0
        },
        {
          "id": 3,
          "value": 0.0
        },
        {
          "id": 4,
          "value": 0.0
        },
        {
          "id": 5,
          "value": 0.0
        },
        {
          "id": 6,
          "value": 0.0
        },
        {
          "id": 7,
          "value": 0.0
        },
        {
          "id": 8,
          "value": 0.5
        },
        {
          "id": 9,
          "value": 0.5
        },
        {
          "id": 10,
          "value": 0.5
        },
        {
          "id": 11,
          "value": 0.5
        },
        {
          "id": 12,
          "value": 0.0
        },
        {
          "id": 13,
          "value": 0.0
        },
        {
          "id": 14,
          "value": 0.0
        },
        {
          "id": 15,
          "value": 0.0
        },
        {
          "id": 16,
          "value": 0.0
        },
        {
          "id": 17,
          "value": 0.0
        },
        {
          "id": 18,
          "value": 0.0
        },
        {
          "id": 19,
          "value": 0.0
        }
      ],
      "data": {
        "panelTheme": 1,
        "running": true,
        "displayDelayNoteMode": true,
        "bpmDetectionMode": false,
        "resetOnStartStop": 0,
        "ppqn": 4,
        "resetClockOutputsHigh": true,
        "momentaryRunInput": true,
        "clockMaster": false
      },
      "pos": [
        0,
        0
      ]
    },
    {
      "id": 165,
      "plugin": "FrozenWasteland",
      "version": "1.15.4",
      "model": "BPMLFO",
      "params": [
        {
          "id": 0,
          "value": 1.0
        },
        {
          "id": 1,
          "value": 0.0
        },
        {
          "id": 2,
          "value": 3.0
        },
        {
          "id": 3,
          "value": 0.0
        },
        {
          "id": 4,
          "value": 0.0
        },
        {
          "id": 5,
          "value": 0.0
        },
        {
          "id": 6,
          "value": 0.0
        },
        {
          "id": 7,
          "value": 1.0
        },
        {
          "id": 8,
          "value": 1.0
        },
        {
          "id": 9,
          "value": 1.0
        }
      ],
      "rightModuleId": 142,
      "pos": [
        0,
        1
      ]
    },
    {
      "id": 167,
      "plugin": "GlueTheGiant",
      "version": "1.1.2",
      "model": "BusDepot",
      "params": [
        {
          "id": 0,
          "value": 0.0
        },
        {
          "id": 1,
          "value": 1.0
        },
        {
          "id": 2,
          "value": 0.851500154
        },
        {
          "id": 3,
          "value": 26.0
        },
        {
          "id": 4,
          "value": 26.0
        }
      ],
      "leftModuleId": 159,
      "data": {
        "input_on": 1,
        "level_cv_filter": 1,
        "color_theme": 1,
        "fade_cv_mode": 0,
        "audition_depot": 0,
        "auditioned": 0,
        "temped": 0,
        "audition_mode": 0
      },
      "pos": [
        81,
        2
      ]
    },
    {
      "id": 168,
      "plugin": "ML_modules",
      "version": "1.1.2",
      "model": "Constants",
      "params": [],
      "rightModuleId": 170,
      "pos": [
        0,
        2
      ]
    },
    {
      "id": 170,
      "plugin": "ML_modules",
      "version": "1.1.2",
      "model": "SeqSwitch",
      "params": [
        {
          "id": 0,
          "value": 8.0
        },
        {
          "id": 1,
          "value": 0.0
        },
        {
          "id": 2,
          "value": 0.0
        },
        {
          "id": 3,
          "value": 0.0
        },
        {
          "id": 4,
          "value": 0.0
        },
        {
          "id": 5,
          "value": 0.0
        },
        {
          "id": 6,
          "value": 0.0
        },
        {
          "id": 7,
          "value": 0.0
        },
        {
          "id": 8,
          "value": 0.0
        }
      ],
      "leftModuleId": 168,
      "rightModuleId": 171,
      "data": {
        "inputRange": 0
      },
      "pos": [
        6,
        2
      ]
    },
    {
      "id": 171,
      "plugin": "Bogaudio",
      "version": "1.1.33",
      "model": "Bogaudio-Slew",
      "params": [
        {
          "id": 0,
          "value": 0.874229968
        },
        {
          "id": 1,
          "value": 0.0
        },
        {
          "id": 2,
          "value": 0.887729883
        },
        {
          "id": 3,
          "value": 0.0
        }
      ],
      "leftModuleId": 170,
      "rightModuleId": 151,
      "pos": [
        14,
        2
      ]
    }
  ],
  "cables": [
    {
      "id": 68,
      "outputModuleId": 33,
      "outputId": 0,
      "inputModuleId": 1,
      "inputId": 0,
      "color": "#c91847"
    },
    {
      "id": 69,
      "outputModuleId": 33,
      "outputId": 1,
      "inputModuleId": 1,
      "inputId": 1,
      "color": "#c91847"
    },
    {
      "id": 70,
      "outputModuleId": 34,
      "outputId": 0,
      "inputModuleId": 35,
      "inputId": 0,
      "color": "#c91847"
    },
    {
      "id": 71,
      "outputModuleId": 34,
      "outputId": 1,
      "inputModuleId": 35,
      "inputId": 1,
      "color": "#c91847"
    },
    {
      "id": 72,
      "outputModuleId": 35,
      "outputId": 0,
      "inputModuleId": 34,
      "inputId": 0,
      "color": "#c91847"
    },
    {
      "id": 73,
      "outputModuleId": 35,
      "outputId": 1,
      "inputModuleId": 34,
      "inputId": 1,
      "color": "#c91847"
    },
    {
      "id": 75,
      "outputModuleId": 34,
      "outputId": 6,
      "inputModuleId": 33,
      "inputId": 4,
      "color": "#c91847"
    },
    {
      "id": 76,
      "outputModuleId": 155,
      "outputId": 0,
      "inputModuleId": 156,
      "inputId": 3,
      "color": "#0986ad"
    },
    {
      "id": 77,
      "outputModuleId": 156,
      "outputId": 0,
      "inputModuleId": 157,
      "inputId": 3,
      "color": "#c9b70e"
    },
    {
      "id": 78,
      "outputModuleId": 157,
      "outputId": 0,
      "inputModuleId": 158,
      "inputId": 3,
      "color": "#0c8e15"
    },
    {
      "id": 79,
      "outputModuleId": 158,
      "outputId": 0,
      "inputModuleId": 159,
      "inputId": 3,
      "color": "#c91847"
    },
    {
      "id": 83,
      "outputModuleId": 161,
      "outputId": 0,
      "inputModuleId": 155,
      "inputId": 3,
      "color": "#c91847"
    },
    {
      "id": 85,
      "outputModuleId": 150,
      "outputId": 1,
      "inputModuleId": 145,
      "inputId": 2,
      "color": "#0986ad"
    },
    {
      "id": 84,
      "outputModuleId": 150,
      "outputId": 0,
      "inputModuleId": 148,
      "inputId": 2,
      "color": "#0986ad"
    },
    {
      "id": 86,
      "outputModuleId": 150,
      "outputId": 2,
      "inputModuleId": 145,
      "inputId": 1,
      "color": "#0986ad"
    },
    {
      "id": 87,
      "outputModuleId": 150,
      "outputId": 3,
      "inputModuleId": 147,
      "inputId": 7,
      "color": "#0986ad"
    },
    {
      "id": 88,
      "outputModuleId": 150,
      "outputId": 4,
      "inputModuleId": 149,
      "inputId": 2,
      "color": "#0986ad"
    },
    {
      "id": 89,
      "outputModuleId": 150,
      "outputId": 5,
      "inputModuleId": 148,
      "inputId": 3,
      "color": "#0986ad"
    },
    {
      "id": 90,
      "outputModuleId": 144,
      "outputId": 0,
      "inputModuleId": 142,
      "inputId": 0,
      "color": "#c91847"
    },
    {
      "id": 91,
      "outputModuleId": 147,
      "outputId": 1,
      "inputModuleId": 142,
      "inputId": 1,
      "color": "#c91847"
    },
    {
      "id": 92,
      "outputModuleId": 147,
      "outputId": 2,
      "inputModuleId": 142,
      "inputId": 2,
      "color": "#c91847"
    },
    {
      "id": 93,
      "outputModuleId": 147,
      "outputId": 3,
      "inputModuleId": 142,
      "inputId": 3,
      "color": "#c91847"
    },
    {
      "id": 94,
      "outputModuleId": 148,
      "outputId": 1,
      "inputModuleId": 142,
      "inputId": 4,
      "color": "#c91847"
    },
    {
      "id": 95,
      "outputModuleId": 149,
      "outputId": 0,
      "inputModuleId": 142,
      "inputId": 5,
      "color": "#c91847"
    },
    {
      "id": 96,
      "outputModuleId": 148,
      "outputId": 0,
      "inputModuleId": 142,
      "inputId": 6,
      "color": "#c91847"
    },
    {
      "id": 97,
      "outputModuleId": 145,
      "outputId": 0,
      "inputModuleId": 142,
      "inputId": 7,
      "color": "#c91847"
    },
    {
      "id": 98,
      "outputModuleId": 142,
      "outputId": 0,
      "inputModuleId": 162,
      "inputId": 1,
      "color": "#c91847"
    },
    {
      "id": 104,
      "outputModuleId": 163,
      "outputId": 0,
      "inputModuleId": 165,
      "inputId": 0,
      "color": "#c9b70e"
    },
    {
      "id": 103,
      "outputModuleId": 165,
      "outputId": 0,
      "inputModuleId": 142,
      "inputId": 9,
      "color": "#c9b70e"
    },
    {
      "id": 105,
      "outputModuleId": 151,
      "outputId": 3,
      "inputModuleId": 142,
      "inputId": 8,
      "color": "#c91847"
    },
    {
      "id": 106,
      "outputModuleId": 142,
      "outputId": 1,
      "inputModuleId": 152,
      "inputId": 0,
      "color": "#c91847"
    },
    {
      "id": 107,
      "outputModuleId": 142,
      "outputId": 2,
      "inputModuleId": 152,
      "inputId": 5,
      "color": "#c91847"
    },
    {
      "id": 108,
      "outputModuleId": 152,
      "outputId": 0,
      "inputModuleId": 161,
      "inputId": 1,
      "color": "#c91847"
    },
    {
      "id": 110,
      "outputModuleId": 142,
      "outputId": 3,
      "inputModuleId": 153,
      "inputId": 0,
      "color": "#c91847"
    },
    {
      "id": 111,
      "outputModuleId": 142,
      "outputId": 4,
      "inputModuleId": 153,
      "inputId": 1,
      "color": "#c91847"
    },
    {
      "id": 112,
      "outputModuleId": 142,
      "outputId": 5,
      "inputModuleId": 153,
      "inputId": 2,
      "color": "#c91847"
    },
    {
      "id": 113,
      "outputModuleId": 142,
      "outputId": 6,
      "inputModuleId": 153,
      "inputId": 3,
      "color": "#c91847"
    },
    {
      "id": 114,
      "outputModuleId": 142,
      "outputId": 7,
      "inputModuleId": 154,
      "inputId": 0,
      "color": "#c91847"
    },
    {
      "id": 115,
      "outputModuleId": 142,
      "outputId": 8,
      "inputModuleId": 154,
      "inputId": 1,
      "color": "#c91847"
    },
    {
      "id": 80,
      "outputModuleId": 159,
      "outputId": 0,
      "inputModuleId": 167,
      "inputId": 4,
      "color": "#0986ad"
    },
    {
      "id": 109,
      "outputModuleId": 152,
      "outputId": 1,
      "inputModuleId": 155,
      "inputId": 1,
      "color": "#c91847"
    },
    {
      "id": 118,
      "outputModuleId": 153,
      "outputId": 4,
      "inputModuleId": 156,
      "inputId": 1,
      "color": "#c91847"
    },
    {
      "id": 119,
      "outputModuleId": 153,
      "outputId": 5,
      "inputModuleId": 157,
      "inputId": 1,
      "color": "#c91847"
    },
    {
      "id": 116,
      "outputModuleId": 154,
      "outputId": 0,
      "inputModuleId": 158,
      "inputId": 1,
      "color": "#c91847"
    },
    {
      "id": 117,
      "outputModuleId": 154,
      "outputId": 1,
      "inputModuleId": 159,
      "inputId": 1,
      "color": "#c91847"
    },
    {
      "id": 81,
      "outputModuleId": 167,
      "outputId": 2,
      "inputModuleId": 162,
      "inputId": 3,
      "color": "#c9b70e"
    },
    {
      "id": 120,
      "outputModuleId": 162,
      "outputId": 0,
      "inputModuleId": 34,
      "inputId": 6,
      "color": "#0986ad"
    },
    {
      "id": 121,
      "outputModuleId": 168,
      "outputId": 2,
      "inputModuleId": 170,
      "inputId": 6,
      "color": "#c9b70e"
    },
    {
      "id": 122,
      "outputModuleId": 168,
      "outputId": 4,
      "inputModuleId": 170,
      "inputId": 5,
      "color": "#0c8e15"
    },
    {
      "id": 123,
      "outputModuleId": 168,
      "outputId": 5,
      "inputModuleId": 170,
      "inputId": 1,
      "color": "#c91847"
    },
    {
      "id": 124,
      "outputModuleId": 168,
      "outputId": 4,
      "inputModuleId": 170,
      "inputId": 2,
      "color": "#0986ad"
    },
    {
      "id": 125,
      "outputModuleId": 170,
      "outputId": 0,
      "inputModuleId": 171,
      "inputId": 2,
      "color": "#c9b70e"
    },
    {
      "id": 126,
      "outputModuleId": 171,
      "outputId": 0,
      "inputModuleId": 151,
      "inputId": 1,
      "color": "#0c8e15"
    },
    {
      "id": 127,
      "outputModuleId": 163,
      "outputId": 1,
      "inputModuleId": 170,
      "inputId": 9,
      "color": "#c91847"
    }
  ]
}