{
  "version": "1.1.6",
  "modules": [
    {
      "id": 1,
      "plugin": "Core",
      "version": "1.1.6",
      "model": "AudioInterface",
      "params": [],
      "leftModuleId": 33,
      "data": {
        "audio": {
          "driver": 5,
          "deviceName": "Apple Inc.: MacBook Pro Speakers",
          "offset": 0,
          "maxChannels": 8,
          "sampleRate": 44100,
          "blockSize": 256
        }
      },
      "pos": [
        103,
        0
      ]
    },
    {
      "id": 33,
      "plugin": "GlueTheGiant",
      "version": "1.1.2",
      "model": "BusDepot",
      "params": [
        {
          "id": 0,
          "value": 0.0
        },
        {
          "id": 1,
          "value": 1.0
        },
        {
          "id": 2,
          "value": 1.0
        },
        {
          "id": 3,
          "value": 26.0
        },
        {
          "id": 4,
          "value": 26.0
        }
      ],
      "leftModuleId": 35,
      "rightModuleId": 1,
      "data": {
        "input_on": 1,
        "level_cv_filter": 1,
        "color_theme": 1,
        "fade_cv_mode": 0,
        "audition_depot": 0,
        "auditioned": 0,
        "temped": 0,
        "audition_mode": 0
      },
      "pos": [
        97,
        0
      ]
    },
    {
      "id": 34,
      "plugin": "GlueTheGiant",
      "version": "1.1.2",
      "model": "BusRoute",
      "params": [
        {
          "id": 0,
          "value": 0.0
        },
        {
          "id": 1,
          "value": 0.0
        },
        {
          "id": 2,
          "value": 0.0
        },
        {
          "id": 3,
          "value": 0.0
        },
        {
          "id": 4,
          "value": 0.0
        },
        {
          "id": 5,
          "value": 0.0
        }
      ],
      "rightModuleId": 35,
      "data": {
        "onau_1": 1,
        "onau_2": 1,
        "onau_3": 1,
        "auditioning": 0,
        "bus_audition1": 0,
        "bus_audition2": 0,
        "bus_audition3": 0,
        "temped1": 0,
        "temped2": 0,
        "temped3": 0,
        "color_theme": 1
      },
      "pos": [
        79,
        0
      ]
    },
    {
      "id": 35,
      "plugin": "Valley",
      "version": "1.0.1",
      "model": "Plateau",
      "params": [
        {
          "id": 0,
          "value": 0.0
        },
        {
          "id": 1,
          "value": 0.5
        },
        {
          "id": 2,
          "value": 0.0
        },
        {
          "id": 3,
          "value": 10.0
        },
        {
          "id": 4,
          "value": 10.0
        },
        {
          "id": 5,
          "value": 0.5
        },
        {
          "id": 6,
          "value": 10.0
        },
        {
          "id": 7,
          "value": 0.549950004
        },
        {
          "id": 8,
          "value": 10.0
        },
        {
          "id": 9,
          "value": 10.0
        },
        {
          "id": 10,
          "value": 0.0
        },
        {
          "id": 11,
          "value": 0.5
        },
        {
          "id": 12,
          "value": 0.5
        },
        {
          "id": 13,
          "value": 0.0
        },
        {
          "id": 14,
          "value": 0.0
        },
        {
          "id": 15,
          "value": 0.0
        },
        {
          "id": 16,
          "value": 0.0
        },
        {
          "id": 17,
          "value": 0.0
        },
        {
          "id": 18,
          "value": 0.0
        },
        {
          "id": 19,
          "value": 0.0
        },
        {
          "id": 20,
          "value": 0.0
        },
        {
          "id": 21,
          "value": 0.0
        },
        {
          "id": 22,
          "value": 0.0
        },
        {
          "id": 23,
          "value": 0.0
        },
        {
          "id": 24,
          "value": 0.0
        },
        {
          "id": 25,
          "value": 0.0
        },
        {
          "id": 26,
          "value": 0.0
        },
        {
          "id": 27,
          "value": 0.0
        },
        {
          "id": 28,
          "value": 0.0
        },
        {
          "id": 29,
          "value": 0.0
        },
        {
          "id": 30,
          "value": 1.0
        }
      ],
      "leftModuleId": 34,
      "rightModuleId": 33,
      "data": {
        "frozen": false,
        "freezeToggle": false,
        "panelStyle": 0,
        "tuned": 0,
        "diffuseInput": 1,
        "preDelayCVSens": 0,
        "inputSensitivity": 0,
        "outputSaturation": 0
      },
      "pos": [
        85,
        0
      ]
    },
    {
      "id": 37,
      "plugin": "Bogaudio",
      "version": "1.1.33",
      "model": "Bogaudio-EightFO",
      "params": [
        {
          "id": 0,
          "value": -3.49049997
        },
        {
          "id": 1,
          "value": 4.0
        },
        {
          "id": 2,
          "value": 0.0
        },
        {
          "id": 3,
          "value": 0.0
        },
        {
          "id": 4,
          "value": 0.0
        },
        {
          "id": 5,
          "value": 0.0
        },
        {
          "id": 6,
          "value": 0.0
        },
        {
          "id": 7,
          "value": 0.0
        },
        {
          "id": 8,
          "value": 0.0
        },
        {
          "id": 9,
          "value": 0.0
        },
        {
          "id": 10,
          "value": 0.0
        },
        {
          "id": 11,
          "value": 0.0
        },
        {
          "id": 12,
          "value": 0.0
        },
        {
          "id": 13,
          "value": 1.0
        }
      ],
      "rightModuleId": 39,
      "pos": [
        0,
        0
      ]
    },
    {
      "id": 38,
      "plugin": "Bogaudio",
      "version": "1.1.33",
      "model": "Bogaudio-EightFO",
      "params": [
        {
          "id": 0,
          "value": -3.43200111
        },
        {
          "id": 1,
          "value": 5.0
        },
        {
          "id": 2,
          "value": 0.0
        },
        {
          "id": 3,
          "value": 0.0
        },
        {
          "id": 4,
          "value": 0.0
        },
        {
          "id": 5,
          "value": 0.0
        },
        {
          "id": 6,
          "value": 0.0
        },
        {
          "id": 7,
          "value": 0.0
        },
        {
          "id": 8,
          "value": 0.0
        },
        {
          "id": 9,
          "value": 0.0
        },
        {
          "id": 10,
          "value": 0.0
        },
        {
          "id": 11,
          "value": 0.0
        },
        {
          "id": 12,
          "value": 0.0
        },
        {
          "id": 13,
          "value": 1.0
        }
      ],
      "pos": [
        0,
        1
      ]
    },
    {
      "id": 39,
      "plugin": "Geodesics",
      "version": "1.2.0",
      "model": "Pulsars",
      "params": [
        {
          "id": 0,
          "value": 0.0
        },
        {
          "id": 1,
          "value": 0.0
        },
        {
          "id": 2,
          "value": 0.0
        },
        {
          "id": 3,
          "value": 0.0
        },
        {
          "id": 4,
          "value": 0.0
        },
        {
          "id": 5,
          "value": 0.0
        },
        {
          "id": 6,
          "value": 0.0
        },
        {
          "id": 7,
          "value": 0.0
        }
      ],
      "leftModuleId": 37,
      "rightModuleId": 40,
      "data": {
        "panelTheme": 1,
        "isVoid0": 0.0,
        "isVoid1": 0.0,
        "isReverse0": 0.0,
        "isReverse1": 0.0,
        "isRandom0": 0.0,
        "isRandom1": 0.0,
        "cvMode0": 0,
        "cvMode1": 0
      },
      "pos": [
        17,
        0
      ]
    },
    {
      "id": 40,
      "plugin": "Fundamental",
      "version": "1.4.0",
      "model": "Scope",
      "params": [
        {
          "id": 0,
          "value": 0.0
        },
        {
          "id": 1,
          "value": 0.0
        },
        {
          "id": 2,
          "value": 0.0
        },
        {
          "id": 3,
          "value": 0.0
        },
        {
          "id": 4,
          "value": 6.0
        },
        {
          "id": 5,
          "value": 0.0
        },
        {
          "id": 6,
          "value": 0.0
        },
        {
          "id": 7,
          "value": 0.0
        }
      ],
      "leftModuleId": 39,
      "rightModuleId": 41,
      "data": {
        "lissajous": 0,
        "external": 0
      },
      "pos": [
        28,
        0
      ]
    },
    {
      "id": 41,
      "plugin": "21kHz",
      "version": "1.0.1",
      "model": "kHzPalmLoop",
      "params": [
        {
          "id": 0,
          "value": 8.0
        },
        {
          "id": 1,
          "value": -0.0
        },
        {
          "id": 2,
          "value": 0.0
        },
        {
          "id": 3,
          "value": 0.0
        },
        {
          "id": 4,
          "value": 0.0
        }
      ],
      "leftModuleId": 40,
      "rightModuleId": 42,
      "pos": [
        41,
        0
      ]
    },
    {
      "id": 42,
      "plugin": "Fundamental",
      "version": "1.4.0",
      "model": "Scope",
      "params": [
        {
          "id": 0,
          "value": 0.0
        },
        {
          "id": 1,
          "value": 0.0
        },
        {
          "id": 2,
          "value": 0.0
        },
        {
          "id": 3,
          "value": 0.0
        },
        {
          "id": 4,
          "value": 6.0
        },
        {
          "id": 5,
          "value": 0.0
        },
        {
          "id": 6,
          "value": 0.0
        },
        {
          "id": 7,
          "value": 0.0
        }
      ],
      "leftModuleId": 41,
      "rightModuleId": 43,
      "data": {
        "lissajous": 0,
        "external": 0
      },
      "pos": [
        49,
        0
      ]
    },
    {
      "id": 43,
      "plugin": "Fundamental",
      "version": "1.4.0",
      "model": "Scope",
      "params": [
        {
          "id": 0,
          "value": 0.0
        },
        {
          "id": 1,
          "value": 0.0
        },
        {
          "id": 2,
          "value": 0.0
        },
        {
          "id": 3,
          "value": 0.0
        },
        {
          "id": 4,
          "value": 6.0
        },
        {
          "id": 5,
          "value": 0.0
        },
        {
          "id": 6,
          "value": 0.0
        },
        {
          "id": 7,
          "value": 0.0
        }
      ],
      "leftModuleId": 42,
      "data": {
        "lissajous": 0,
        "external": 0
      },
      "pos": [
        62,
        0
      ]
    }
  ],
  "cables": [
    {
      "id": 68,
      "outputModuleId": 33,
      "outputId": 0,
      "inputModuleId": 1,
      "inputId": 0,
      "color": "#c91847"
    },
    {
      "id": 69,
      "outputModuleId": 33,
      "outputId": 1,
      "inputModuleId": 1,
      "inputId": 1,
      "color": "#c91847"
    },
    {
      "id": 70,
      "outputModuleId": 34,
      "outputId": 0,
      "inputModuleId": 35,
      "inputId": 0,
      "color": "#c91847"
    },
    {
      "id": 71,
      "outputModuleId": 34,
      "outputId": 1,
      "inputModuleId": 35,
      "inputId": 1,
      "color": "#c91847"
    },
    {
      "id": 72,
      "outputModuleId": 35,
      "outputId": 0,
      "inputModuleId": 34,
      "inputId": 0,
      "color": "#c91847"
    },
    {
      "id": 73,
      "outputModuleId": 35,
      "outputId": 1,
      "inputModuleId": 34,
      "inputId": 1,
      "color": "#c91847"
    },
    {
      "id": 75,
      "outputModuleId": 34,
      "outputId": 6,
      "inputModuleId": 33,
      "inputId": 4,
      "color": "#c91847"
    },
    {
      "id": 216,
      "outputModuleId": 38,
      "outputId": 0,
      "inputModuleId": 39,
      "inputId": 1,
      "color": "#0c8e15"
    },
    {
      "id": 217,
      "outputModuleId": 37,
      "outputId": 0,
      "inputModuleId": 39,
      "inputId": 0,
      "color": "#0c8e15"
    },
    {
      "id": 218,
      "outputModuleId": 37,
      "outputId": 1,
      "inputModuleId": 39,
      "inputId": 2,
      "color": "#0c8e15"
    },
    {
      "id": 219,
      "outputModuleId": 38,
      "outputId": 1,
      "inputModuleId": 39,
      "inputId": 3,
      "color": "#0c8e15"
    },
    {
      "id": 220,
      "outputModuleId": 37,
      "outputId": 2,
      "inputModuleId": 39,
      "inputId": 4,
      "color": "#0c8e15"
    },
    {
      "id": 221,
      "outputModuleId": 38,
      "outputId": 2,
      "inputModuleId": 39,
      "inputId": 5,
      "color": "#0c8e15"
    },
    {
      "id": 222,
      "outputModuleId": 37,
      "outputId": 3,
      "inputModuleId": 39,
      "inputId": 6,
      "color": "#0c8e15"
    },
    {
      "id": 223,
      "outputModuleId": 38,
      "outputId": 3,
      "inputModuleId": 39,
      "inputId": 7,
      "color": "#0c8e15"
    },
    {
      "id": 224,
      "outputModuleId": 37,
      "outputId": 7,
      "inputModuleId": 39,
      "inputId": 9,
      "color": "#0c8e15"
    },
    {
      "id": 225,
      "outputModuleId": 39,
      "outputId": 0,
      "inputModuleId": 40,
      "inputId": 0,
      "color": "#0c8e15"
    },
    {
      "id": 226,
      "outputModuleId": 41,
      "outputId": 3,
      "inputModuleId": 39,
      "inputId": 10,
      "color": "#c91847"
    },
    {
      "id": 227,
      "outputModuleId": 39,
      "outputId": 1,
      "inputModuleId": 42,
      "inputId": 0,
      "color": "#c91847"
    },
    {
      "id": 228,
      "outputModuleId": 39,
      "outputId": 3,
      "inputModuleId": 42,
      "inputId": 1,
      "color": "#c91847"
    },
    {
      "id": 229,
      "outputModuleId": 39,
      "outputId": 5,
      "inputModuleId": 43,
      "inputId": 0,
      "color": "#c91847"
    },
    {
      "id": 230,
      "outputModuleId": 39,
      "outputId": 7,
      "inputModuleId": 43,
      "inputId": 1,
      "color": "#c91847"
    }
  ]
}