{
  "version": "1.1.6",
  "modules": [
    {
      "id": 1,
      "plugin": "Core",
      "version": "1.1.6",
      "model": "AudioInterface",
      "params": [],
      "leftModuleId": 33,
      "data": {
        "audio": {
          "driver": 5,
          "deviceName": "Apple Inc.: External Headphones",
          "offset": 0,
          "maxChannels": 8,
          "sampleRate": 44100,
          "blockSize": 256
        }
      },
      "pos": [
        119,
        0
      ]
    },
    {
      "id": 33,
      "plugin": "GlueTheGiant",
      "version": "1.1.2",
      "model": "BusDepot",
      "params": [
        {
          "id": 0,
          "value": 0.0
        },
        {
          "id": 1,
          "value": 1.0
        },
        {
          "id": 2,
          "value": 0.290399969
        },
        {
          "id": 3,
          "value": 3053.08374
        },
        {
          "id": 4,
          "value": 3053.08398
        }
      ],
      "leftModuleId": 35,
      "rightModuleId": 1,
      "data": {
        "input_on": 1,
        "level_cv_filter": 1,
        "color_theme": 1,
        "fade_cv_mode": 0,
        "audition_depot": 0,
        "auditioned": 0,
        "temped": 0,
        "audition_mode": 0
      },
      "pos": [
        113,
        0
      ]
    },
    {
      "id": 34,
      "plugin": "GlueTheGiant",
      "version": "1.1.2",
      "model": "BusRoute",
      "params": [
        {
          "id": 0,
          "value": 0.0
        },
        {
          "id": 1,
          "value": 0.0
        },
        {
          "id": 2,
          "value": 0.0
        },
        {
          "id": 3,
          "value": 0.0
        },
        {
          "id": 4,
          "value": 0.0
        },
        {
          "id": 5,
          "value": 0.0
        }
      ],
      "leftModuleId": 50,
      "rightModuleId": 35,
      "data": {
        "onau_1": 1,
        "onau_2": 1,
        "onau_3": 1,
        "auditioning": 0,
        "bus_audition1": 0,
        "bus_audition2": 0,
        "bus_audition3": 0,
        "temped1": 0,
        "temped2": 0,
        "temped3": 0,
        "color_theme": 1
      },
      "pos": [
        95,
        0
      ]
    },
    {
      "id": 35,
      "plugin": "Valley",
      "version": "1.0.1",
      "model": "Plateau",
      "params": [
        {
          "id": 0,
          "value": 0.0
        },
        {
          "id": 1,
          "value": 0.5
        },
        {
          "id": 2,
          "value": 0.0
        },
        {
          "id": 3,
          "value": 10.0
        },
        {
          "id": 4,
          "value": 10.0
        },
        {
          "id": 5,
          "value": 0.5
        },
        {
          "id": 6,
          "value": 10.0
        },
        {
          "id": 7,
          "value": 0.549950004
        },
        {
          "id": 8,
          "value": 10.0
        },
        {
          "id": 9,
          "value": 10.0
        },
        {
          "id": 10,
          "value": 0.0
        },
        {
          "id": 11,
          "value": 0.5
        },
        {
          "id": 12,
          "value": 0.5
        },
        {
          "id": 13,
          "value": 0.0
        },
        {
          "id": 14,
          "value": 0.0
        },
        {
          "id": 15,
          "value": 0.0
        },
        {
          "id": 16,
          "value": 0.0
        },
        {
          "id": 17,
          "value": 0.0
        },
        {
          "id": 18,
          "value": 0.0
        },
        {
          "id": 19,
          "value": 0.0
        },
        {
          "id": 20,
          "value": 0.0
        },
        {
          "id": 21,
          "value": 0.0
        },
        {
          "id": 22,
          "value": 0.0
        },
        {
          "id": 23,
          "value": 0.0
        },
        {
          "id": 24,
          "value": 0.0
        },
        {
          "id": 25,
          "value": 0.0
        },
        {
          "id": 26,
          "value": 0.0
        },
        {
          "id": 27,
          "value": 0.0
        },
        {
          "id": 28,
          "value": 0.0
        },
        {
          "id": 29,
          "value": 0.0
        },
        {
          "id": 30,
          "value": 1.0
        }
      ],
      "leftModuleId": 34,
      "rightModuleId": 33,
      "data": {
        "frozen": false,
        "freezeToggle": false,
        "panelStyle": 0,
        "tuned": 0,
        "diffuseInput": 1,
        "preDelayCVSens": 0,
        "inputSensitivity": 0,
        "outputSaturation": 0
      },
      "pos": [
        101,
        0
      ]
    },
    {
      "id": 36,
      "plugin": "Geodesics",
      "version": "1.2.0",
      "model": "Pulsars",
      "params": [
        {
          "id": 0,
          "value": 0.0
        },
        {
          "id": 1,
          "value": 0.0
        },
        {
          "id": 2,
          "value": 0.0
        },
        {
          "id": 3,
          "value": 0.0
        },
        {
          "id": 4,
          "value": 0.0
        },
        {
          "id": 5,
          "value": 0.0
        },
        {
          "id": 6,
          "value": 0.0
        },
        {
          "id": 7,
          "value": 0.0
        }
      ],
      "rightModuleId": 39,
      "data": {
        "panelTheme": 1,
        "isVoid0": 0.0,
        "isVoid1": 0.0,
        "isReverse0": 0.0,
        "isReverse1": 0.0,
        "isRandom0": 0.0,
        "isRandom1": 0.0,
        "cvMode0": 1,
        "cvMode1": 0
      },
      "pos": [
        23,
        0
      ]
    },
    {
      "id": 37,
      "plugin": "Bogaudio",
      "version": "1.1.33",
      "model": "Bogaudio-LFO",
      "params": [
        {
          "id": 0,
          "value": -3.94700003
        },
        {
          "id": 1,
          "value": 0.0
        },
        {
          "id": 2,
          "value": 0.0
        },
        {
          "id": 3,
          "value": 0.0
        },
        {
          "id": 4,
          "value": 0.0
        },
        {
          "id": 5,
          "value": 1.0
        }
      ],
      "rightModuleId": 38,
      "pos": [
        0,
        0
      ]
    },
    {
      "id": 38,
      "plugin": "Bogaudio",
      "version": "1.1.33",
      "model": "Bogaudio-LFO",
      "params": [
        {
          "id": 0,
          "value": -1.67700195
        },
        {
          "id": 1,
          "value": 0.0
        },
        {
          "id": 2,
          "value": 0.0
        },
        {
          "id": 3,
          "value": 0.0
        },
        {
          "id": 4,
          "value": 1.0
        },
        {
          "id": 5,
          "value": 1.0
        }
      ],
      "leftModuleId": 37,
      "pos": [
        10,
        0
      ]
    },
    {
      "id": 39,
      "plugin": "Fundamental",
      "version": "1.4.0",
      "model": "Scope",
      "params": [
        {
          "id": 0,
          "value": 0.0
        },
        {
          "id": 1,
          "value": -4.8900032
        },
        {
          "id": 2,
          "value": 0.0
        },
        {
          "id": 3,
          "value": 0.0
        },
        {
          "id": 4,
          "value": 6.0
        },
        {
          "id": 5,
          "value": 0.0
        },
        {
          "id": 6,
          "value": 0.0
        },
        {
          "id": 7,
          "value": 0.0
        }
      ],
      "leftModuleId": 36,
      "rightModuleId": 46,
      "data": {
        "lissajous": 0,
        "external": 0
      },
      "pos": [
        34,
        0
      ]
    },
    {
      "id": 40,
      "plugin": "Bogaudio",
      "version": "1.1.33",
      "model": "Bogaudio-LFO",
      "params": [
        {
          "id": 0,
          "value": -3.20600367
        },
        {
          "id": 1,
          "value": 0.0
        },
        {
          "id": 2,
          "value": 0.0
        },
        {
          "id": 3,
          "value": 0.0
        },
        {
          "id": 4,
          "value": 1.0
        },
        {
          "id": 5,
          "value": 1.0
        }
      ],
      "rightModuleId": 41,
      "pos": [
        0,
        1
      ]
    },
    {
      "id": 41,
      "plugin": "Bogaudio",
      "version": "1.1.33",
      "model": "Bogaudio-LFO",
      "params": [
        {
          "id": 0,
          "value": -0.437000275
        },
        {
          "id": 1,
          "value": 1.0
        },
        {
          "id": 2,
          "value": 0.0
        },
        {
          "id": 3,
          "value": 0.0
        },
        {
          "id": 4,
          "value": 1.0
        },
        {
          "id": 5,
          "value": 1.0
        }
      ],
      "leftModuleId": 40,
      "rightModuleId": 42,
      "pos": [
        10,
        1
      ]
    },
    {
      "id": 42,
      "plugin": "Bogaudio",
      "version": "1.1.33",
      "model": "Bogaudio-ADSR",
      "params": [
        {
          "id": 0,
          "value": 0.498421073
        },
        {
          "id": 1,
          "value": 0.0
        },
        {
          "id": 2,
          "value": 0.0
        },
        {
          "id": 3,
          "value": 0.970229805
        },
        {
          "id": 4,
          "value": 0.0
        }
      ],
      "leftModuleId": 41,
      "rightModuleId": 43,
      "data": {
        "invert": 1.0
      },
      "pos": [
        20,
        1
      ]
    },
    {
      "id": 43,
      "plugin": "Geodesics",
      "version": "1.2.0",
      "model": "Pulsars",
      "params": [
        {
          "id": 0,
          "value": 0.0
        },
        {
          "id": 1,
          "value": 0.0
        },
        {
          "id": 2,
          "value": 0.0
        },
        {
          "id": 3,
          "value": 0.0
        },
        {
          "id": 4,
          "value": 0.0
        },
        {
          "id": 5,
          "value": 0.0
        },
        {
          "id": 6,
          "value": 0.0
        },
        {
          "id": 7,
          "value": 0.0
        }
      ],
      "leftModuleId": 42,
      "rightModuleId": 44,
      "data": {
        "panelTheme": 1,
        "isVoid0": 0.0,
        "isVoid1": 0.0,
        "isReverse0": 0.0,
        "isReverse1": 0.0,
        "isRandom0": 0.0,
        "isRandom1": 0.0,
        "cvMode0": 0,
        "cvMode1": 1
      },
      "pos": [
        23,
        1
      ]
    },
    {
      "id": 44,
      "plugin": "Fundamental",
      "version": "1.4.0",
      "model": "Scope",
      "params": [
        {
          "id": 0,
          "value": 0.0
        },
        {
          "id": 1,
          "value": -10.0
        },
        {
          "id": 2,
          "value": 0.0
        },
        {
          "id": 3,
          "value": 0.0
        },
        {
          "id": 4,
          "value": 6.0
        },
        {
          "id": 5,
          "value": 0.0
        },
        {
          "id": 6,
          "value": 0.0
        },
        {
          "id": 7,
          "value": 0.0
        }
      ],
      "leftModuleId": 43,
      "rightModuleId": 45,
      "data": {
        "lissajous": 0,
        "external": 0
      },
      "pos": [
        34,
        1
      ]
    },
    {
      "id": 45,
      "plugin": "Fundamental",
      "version": "1.4.0",
      "model": "Scope",
      "params": [
        {
          "id": 0,
          "value": 0.0
        },
        {
          "id": 1,
          "value": 0.0
        },
        {
          "id": 2,
          "value": 0.0
        },
        {
          "id": 3,
          "value": -10.0
        },
        {
          "id": 4,
          "value": 6.0
        },
        {
          "id": 5,
          "value": 0.0
        },
        {
          "id": 6,
          "value": 0.0
        },
        {
          "id": 7,
          "value": 0.0
        }
      ],
      "leftModuleId": 44,
      "rightModuleId": 51,
      "data": {
        "lissajous": 0,
        "external": 0
      },
      "pos": [
        47,
        1
      ]
    },
    {
      "id": 46,
      "plugin": "Fundamental",
      "version": "1.4.0",
      "model": "VCA-1",
      "params": [
        {
          "id": 0,
          "value": 0.104499936
        },
        {
          "id": 1,
          "value": 1.0
        }
      ],
      "leftModuleId": 39,
      "rightModuleId": 47,
      "pos": [
        47,
        0
      ]
    },
    {
      "id": 47,
      "plugin": "Fundamental",
      "version": "1.4.0",
      "model": "VCA-1",
      "params": [
        {
          "id": 0,
          "value": 0.218500003
        },
        {
          "id": 1,
          "value": 1.0
        }
      ],
      "leftModuleId": 46,
      "rightModuleId": 48,
      "pos": [
        50,
        0
      ]
    },
    {
      "id": 48,
      "plugin": "Fundamental",
      "version": "1.4.0",
      "model": "Quantizer",
      "params": [],
      "leftModuleId": 47,
      "rightModuleId": 49,
      "data": {
        "enabledNotes": [
          false,
          true,
          false,
          false,
          true,
          false,
          false,
          false,
          true,
          false,
          false,
          true
        ]
      },
      "pos": [
        53,
        0
      ]
    },
    {
      "id": 49,
      "plugin": "squinkylabs-plug1",
      "version": "1.0.10",
      "model": "squinkylabs-CHB2",
      "params": [
        {
          "id": 0,
          "value": 0.0
        },
        {
          "id": 1,
          "value": -1.0
        },
        {
          "id": 2,
          "value": 0.631079972
        },
        {
          "id": 3,
          "value": 0.0
        },
        {
          "id": 4,
          "value": 0.0
        },
        {
          "id": 5,
          "value": 0.0
        },
        {
          "id": 6,
          "value": 0.0
        },
        {
          "id": 7,
          "value": 5.0
        },
        {
          "id": 8,
          "value": 5.0
        },
        {
          "id": 9,
          "value": 5.0
        },
        {
          "id": 10,
          "value": 1.0
        },
        {
          "id": 11,
          "value": 1.0
        },
        {
          "id": 12,
          "value": 1.0
        },
        {
          "id": 13,
          "value": 1.0
        },
        {
          "id": 14,
          "value": 1.0
        },
        {
          "id": 15,
          "value": 0.0
        },
        {
          "id": 16,
          "value": 0.0
        },
        {
          "id": 17,
          "value": 0.0
        },
        {
          "id": 18,
          "value": 0.0
        },
        {
          "id": 19,
          "value": 0.0
        },
        {
          "id": 20,
          "value": 0.0
        },
        {
          "id": 21,
          "value": 0.0
        },
        {
          "id": 22,
          "value": 0.0
        },
        {
          "id": 23,
          "value": 0.0
        },
        {
          "id": 24,
          "value": 0.0
        },
        {
          "id": 25,
          "value": 0.0
        },
        {
          "id": 26,
          "value": 0.0
        }
      ],
      "leftModuleId": 48,
      "pos": [
        56,
        0
      ]
    },
    {
      "id": 50,
      "plugin": "GlueTheGiant",
      "version": "1.1.2",
      "model": "MiniBus",
      "params": [
        {
          "id": 0,
          "value": 0.0
        },
        {
          "id": 1,
          "value": 0.584199905
        },
        {
          "id": 2,
          "value": 0.0
        },
        {
          "id": 3,
          "value": 0.0
        }
      ],
      "leftModuleId": 56,
      "rightModuleId": 34,
      "data": {
        "input_on": 1,
        "post_fades": 0,
        "gain": 1.0,
        "fade_in": 26.0,
        "fade_out": 26.0,
        "audition_mixer": 0,
        "auditioned": 0,
        "temped": 0,
        "color_theme": 1
      },
      "pos": [
        92,
        0
      ]
    },
    {
      "id": 51,
      "plugin": "Valley",
      "version": "1.0.1",
      "model": "Topograph",
      "params": [
        {
          "id": 0,
          "value": 0.0
        },
        {
          "id": 1,
          "value": 0.0
        },
        {
          "id": 2,
          "value": 0.405999988
        },
        {
          "id": 3,
          "value": 0.640500188
        },
        {
          "id": 4,
          "value": 0.496499926
        },
        {
          "id": 5,
          "value": 1.0
        },
        {
          "id": 6,
          "value": 0.199624822
        },
        {
          "id": 7,
          "value": 0.648594022
        },
        {
          "id": 8,
          "value": 0.5
        },
        {
          "id": 9,
          "value": 0.0
        }
      ],
      "leftModuleId": 45,
      "rightModuleId": 52,
      "data": {
        "sequencerMode": 0,
        "triggerOutputMode": 0,
        "accOutputMode": 0,
        "extClockResolution": 2,
        "chaosKnobMode": 0,
        "runMode": 0,
        "panelStyle": 0,
        "running": 1
      },
      "pos": [
        60,
        1
      ]
    },
    {
      "id": 52,
      "plugin": "VultModulesFree",
      "version": "1.10.1",
      "model": "Trummor2",
      "params": [
        {
          "id": 0,
          "value": 0.0500000007
        },
        {
          "id": 1,
          "value": 0.5
        },
        {
          "id": 2,
          "value": 0.0
        },
        {
          "id": 3,
          "value": 0.0
        },
        {
          "id": 4,
          "value": 0.0
        },
        {
          "id": 5,
          "value": 0.0
        },
        {
          "id": 6,
          "value": 0.0
        },
        {
          "id": 7,
          "value": 0.200000003
        },
        {
          "id": 8,
          "value": 0.400000006
        },
        {
          "id": 9,
          "value": 0.0
        },
        {
          "id": 10,
          "value": 0.0
        },
        {
          "id": 11,
          "value": 0.699999988
        },
        {
          "id": 12,
          "value": -0.100000001
        },
        {
          "id": 13,
          "value": 0.0
        },
        {
          "id": 14,
          "value": 1.0
        },
        {
          "id": 15,
          "value": 0.949999988
        },
        {
          "id": 16,
          "value": 0.0
        },
        {
          "id": 17,
          "value": 0.0
        },
        {
          "id": 18,
          "value": 0.0
        },
        {
          "id": 19,
          "value": 0.108500034
        },
        {
          "id": 20,
          "value": 0.0740000159
        },
        {
          "id": 21,
          "value": 0.0
        },
        {
          "id": 22,
          "value": 0.0
        },
        {
          "id": 23,
          "value": 0.781000137
        },
        {
          "id": 24,
          "value": 0.0
        },
        {
          "id": 25,
          "value": 0.0
        },
        {
          "id": 26,
          "value": 0.0
        },
        {
          "id": 27,
          "value": 0.0
        },
        {
          "id": 28,
          "value": 0.0
        },
        {
          "id": 29,
          "value": 0.0
        },
        {
          "id": 30,
          "value": 0.0
        },
        {
          "id": 31,
          "value": 0.0
        },
        {
          "id": 32,
          "value": 0.0
        }
      ],
      "leftModuleId": 51,
      "data": {
        "mod_a": 0,
        "mod_b": 0,
        "mod_c": 0,
        "mod_d": 0,
        "mk2": true
      },
      "pos": [
        76,
        1
      ]
    },
    {
      "id": 56,
      "plugin": "GlueTheGiant",
      "version": "1.1.2",
      "model": "MiniBus",
      "params": [
        {
          "id": 0,
          "value": 0.0
        },
        {
          "id": 1,
          "value": 0.574199975
        },
        {
          "id": 2,
          "value": 0.0
        },
        {
          "id": 3,
          "value": 1.0
        }
      ],
      "leftModuleId": 57,
      "rightModuleId": 50,
      "data": {
        "input_on": 1,
        "post_fades": 0,
        "gain": 1.0,
        "fade_in": 26.0,
        "fade_out": 26.0,
        "audition_mixer": 0,
        "auditioned": 0,
        "temped": 0,
        "color_theme": 1
      },
      "pos": [
        89,
        0
      ]
    },
    {
      "id": 57,
      "plugin": "GlueTheGiant",
      "version": "1.1.2",
      "model": "MiniBus",
      "params": [
        {
          "id": 0,
          "value": 0.0
        },
        {
          "id": 1,
          "value": 0.0
        },
        {
          "id": 2,
          "value": 0.0
        },
        {
          "id": 3,
          "value": 1.0
        }
      ],
      "rightModuleId": 56,
      "data": {
        "input_on": 1,
        "post_fades": 0,
        "gain": 1.0,
        "fade_in": 26.0,
        "fade_out": 26.0,
        "audition_mixer": 0,
        "auditioned": 0,
        "temped": 0,
        "color_theme": 1
      },
      "pos": [
        86,
        0
      ]
    }
  ],
  "cables": [
    {
      "id": 68,
      "outputModuleId": 33,
      "outputId": 0,
      "inputModuleId": 1,
      "inputId": 0,
      "color": "#c91847"
    },
    {
      "id": 69,
      "outputModuleId": 33,
      "outputId": 1,
      "inputModuleId": 1,
      "inputId": 1,
      "color": "#c91847"
    },
    {
      "id": 70,
      "outputModuleId": 34,
      "outputId": 0,
      "inputModuleId": 35,
      "inputId": 0,
      "color": "#c91847"
    },
    {
      "id": 71,
      "outputModuleId": 34,
      "outputId": 1,
      "inputModuleId": 35,
      "inputId": 1,
      "color": "#c91847"
    },
    {
      "id": 72,
      "outputModuleId": 35,
      "outputId": 0,
      "inputModuleId": 34,
      "inputId": 0,
      "color": "#c91847"
    },
    {
      "id": 73,
      "outputModuleId": 35,
      "outputId": 1,
      "inputModuleId": 34,
      "inputId": 1,
      "color": "#c91847"
    },
    {
      "id": 75,
      "outputModuleId": 34,
      "outputId": 6,
      "inputModuleId": 33,
      "inputId": 4,
      "color": "#c91847"
    },
    {
      "id": 79,
      "outputModuleId": 38,
      "outputId": 0,
      "inputModuleId": 36,
      "inputId": 1,
      "color": "#0c8e15"
    },
    {
      "id": 80,
      "outputModuleId": 38,
      "outputId": 1,
      "inputModuleId": 36,
      "inputId": 0,
      "color": "#0c8e15"
    },
    {
      "id": 81,
      "outputModuleId": 38,
      "outputId": 2,
      "inputModuleId": 36,
      "inputId": 2,
      "color": "#0c8e15"
    },
    {
      "id": 83,
      "outputModuleId": 38,
      "outputId": 3,
      "inputModuleId": 36,
      "inputId": 6,
      "color": "#0c8e15"
    },
    {
      "id": 82,
      "outputModuleId": 38,
      "outputId": 4,
      "inputModuleId": 36,
      "inputId": 7,
      "color": "#0c8e15"
    },
    {
      "id": 85,
      "outputModuleId": 40,
      "outputId": 2,
      "inputModuleId": 42,
      "inputId": 0,
      "color": "#0986ad"
    },
    {
      "id": 87,
      "outputModuleId": 42,
      "outputId": 0,
      "inputModuleId": 43,
      "inputId": 10,
      "color": "#0986ad"
    },
    {
      "id": 89,
      "outputModuleId": 43,
      "outputId": 2,
      "inputModuleId": 44,
      "inputId": 1,
      "color": "#0c8e15"
    },
    {
      "id": 90,
      "outputModuleId": 43,
      "outputId": 3,
      "inputModuleId": 45,
      "inputId": 0,
      "color": "#0c8e15"
    },
    {
      "id": 91,
      "outputModuleId": 43,
      "outputId": 4,
      "inputModuleId": 45,
      "inputId": 1,
      "color": "#0c8e15"
    },
    {
      "id": 92,
      "outputModuleId": 41,
      "outputId": 4,
      "inputModuleId": 43,
      "inputId": 8,
      "color": "#0c8e15"
    },
    {
      "id": 84,
      "outputModuleId": 36,
      "outputId": 0,
      "inputModuleId": 39,
      "inputId": 0,
      "color": "#c91847"
    },
    {
      "id": 93,
      "outputModuleId": 36,
      "outputId": 0,
      "inputModuleId": 46,
      "inputId": 1,
      "color": "#c91847"
    },
    {
      "id": 94,
      "outputModuleId": 36,
      "outputId": 0,
      "inputModuleId": 47,
      "inputId": 1,
      "color": "#c91847"
    },
    {
      "id": 95,
      "outputModuleId": 46,
      "outputId": 0,
      "inputModuleId": 48,
      "inputId": 0,
      "color": "#c91847"
    },
    {
      "id": 96,
      "outputModuleId": 48,
      "outputId": 0,
      "inputModuleId": 49,
      "inputId": 0,
      "color": "#c91847"
    },
    {
      "id": 97,
      "outputModuleId": 47,
      "outputId": 0,
      "inputModuleId": 49,
      "inputId": 4,
      "color": "#c91847"
    },
    {
      "id": 98,
      "outputModuleId": 49,
      "outputId": 0,
      "inputModuleId": 50,
      "inputId": 1,
      "color": "#0986ad"
    },
    {
      "id": 99,
      "outputModuleId": 50,
      "outputId": 0,
      "inputModuleId": 34,
      "inputId": 6,
      "color": "#c9b70e"
    },
    {
      "id": 100,
      "outputModuleId": 43,
      "outputId": 1,
      "inputModuleId": 44,
      "inputId": 0,
      "color": "#0c8e15"
    },
    {
      "id": 101,
      "outputModuleId": 43,
      "outputId": 1,
      "inputModuleId": 49,
      "inputId": 8,
      "color": "#0c8e15"
    },
    {
      "id": 103,
      "outputModuleId": 43,
      "outputId": 2,
      "inputModuleId": 49,
      "inputId": 9,
      "color": "#0c8e15"
    },
    {
      "id": 104,
      "outputModuleId": 43,
      "outputId": 3,
      "inputModuleId": 49,
      "inputId": 10,
      "color": "#0c8e15"
    },
    {
      "id": 105,
      "outputModuleId": 43,
      "outputId": 4,
      "inputModuleId": 49,
      "inputId": 11,
      "color": "#0c8e15"
    },
    {
      "id": 77,
      "outputModuleId": 37,
      "outputId": 4,
      "inputModuleId": 36,
      "inputId": 9,
      "color": "#0986ad"
    },
    {
      "id": 107,
      "outputModuleId": 51,
      "outputId": 0,
      "inputModuleId": 52,
      "inputId": 7,
      "color": "#0986ad"
    },
    {
      "id": 108,
      "outputModuleId": 51,
      "outputId": 1,
      "inputModuleId": 52,
      "inputId": 8,
      "color": "#0986ad"
    },
    {
      "id": 110,
      "outputModuleId": 56,
      "outputId": 0,
      "inputModuleId": 50,
      "inputId": 2,
      "color": "#0986ad"
    },
    {
      "id": 111,
      "outputModuleId": 57,
      "outputId": 0,
      "inputModuleId": 56,
      "inputId": 2,
      "color": "#c9b70e"
    },
    {
      "id": 112,
      "outputModuleId": 52,
      "outputId": 4,
      "inputModuleId": 57,
      "inputId": 1,
      "color": "#c91847"
    },
    {
      "id": 113,
      "outputModuleId": 52,
      "outputId": 5,
      "inputModuleId": 56,
      "inputId": 1,
      "color": "#c91847"
    }
  ]
}