{
  "version": "1.1.6",
  "modules": [
    {
      "id": 1,
      "plugin": "Core",
      "version": "1.1.6",
      "model": "AudioInterface",
      "params": [],
      "leftModuleId": 92,
      "data": {
        "audio": {
          "driver": 5,
          "deviceName": "Apple Inc.: External Headphones",
          "offset": 0,
          "maxChannels": 8,
          "sampleRate": 44100,
          "blockSize": 256
        }
      },
      "pos": [
        72,
        0
      ]
    },
    {
      "id": 79,
      "plugin": "AudibleInstruments",
      "version": "1.3.1",
      "model": "Kinks",
      "params": [],
      "leftModuleId": 82,
      "rightModuleId": 84,
      "pos": [
        7,
        0
      ]
    },
    {
      "id": 80,
      "plugin": "JW-Modules",
      "version": "1.0.11",
      "model": "SimpleClock",
      "params": [
        {
          "id": 0,
          "value": 1.98399949
        },
        {
          "id": 1,
          "value": 0.0
        },
        {
          "id": 2,
          "value": -2.0
        },
        {
          "id": 3,
          "value": 0.0
        }
      ],
      "rightModuleId": 82,
      "data": {
        "running": true
      },
      "pos": [
        0,
        0
      ]
    },
    {
      "id": 82,
      "plugin": "Autodafe",
      "version": "1.0.1",
      "model": "Multiple18",
      "params": [],
      "leftModuleId": 80,
      "rightModuleId": 79,
      "pos": [
        4,
        0
      ]
    },
    {
      "id": 84,
      "plugin": "AudibleInstruments",
      "version": "1.3.1",
      "model": "Kinks",
      "params": [],
      "leftModuleId": 79,
      "rightModuleId": 85,
      "pos": [
        11,
        0
      ]
    },
    {
      "id": 85,
      "plugin": "Befaco",
      "version": "1.0.1",
      "model": "DualAtenuverter",
      "params": [
        {
          "id": 0,
          "value": 0.278999954
        },
        {
          "id": 1,
          "value": -1.01999962
        },
        {
          "id": 2,
          "value": 0.29700008
        },
        {
          "id": 3,
          "value": 0.959999561
        }
      ],
      "leftModuleId": 84,
      "rightModuleId": 86,
      "pos": [
        15,
        0
      ]
    },
    {
      "id": 86,
      "plugin": "JW-Modules",
      "version": "1.0.11",
      "model": "Quantizer",
      "params": [
        {
          "id": 0,
          "value": 4.0
        },
        {
          "id": 1,
          "value": 11.0
        }
      ],
      "leftModuleId": 85,
      "rightModuleId": 87,
      "data": {},
      "pos": [
        20,
        0
      ]
    },
    {
      "id": 87,
      "plugin": "JW-Modules",
      "version": "1.0.11",
      "model": "Quantizer",
      "params": [
        {
          "id": 0,
          "value": 4.0
        },
        {
          "id": 1,
          "value": 11.0
        }
      ],
      "leftModuleId": 86,
      "rightModuleId": 88,
      "data": {},
      "pos": [
        24,
        0
      ]
    },
    {
      "id": 88,
      "plugin": "AudibleInstruments",
      "version": "1.3.1",
      "model": "Braids",
      "params": [
        {
          "id": 0,
          "value": 0.0
        },
        {
          "id": 1,
          "value": -1.0
        },
        {
          "id": 2,
          "value": 0.0599999949
        },
        {
          "id": 3,
          "value": 0.509000063
        },
        {
          "id": 4,
          "value": 0.047999993
        },
        {
          "id": 5,
          "value": 0.53150022
        },
        {
          "id": 6,
          "value": 0.325500101
        }
      ],
      "leftModuleId": 87,
      "rightModuleId": 89,
      "data": {
        "settings": [
          15,
          0,
          0,
          0,
          0,
          0,
          0,
          0,
          0,
          0,
          0,
          0,
          0,
          0,
          0,
          0,
          0,
          0,
          0,
          0
        ],
        "lowCpu": false
      },
      "pos": [
        28,
        0
      ]
    },
    {
      "id": 89,
      "plugin": "AudibleInstruments",
      "version": "1.3.1",
      "model": "Braids",
      "params": [
        {
          "id": 0,
          "value": 0.0
        },
        {
          "id": 1,
          "value": -1.0
        },
        {
          "id": 2,
          "value": 0.0929999873
        },
        {
          "id": 3,
          "value": 0.527000189
        },
        {
          "id": 4,
          "value": 0.0540000014
        },
        {
          "id": 5,
          "value": 0.522500098
        },
        {
          "id": 6,
          "value": 0.308999985
        }
      ],
      "leftModuleId": 88,
      "rightModuleId": 90,
      "data": {
        "settings": [
          14,
          0,
          0,
          0,
          0,
          0,
          0,
          0,
          0,
          0,
          0,
          0,
          0,
          0,
          0,
          0,
          0,
          0,
          0,
          0
        ],
        "lowCpu": false
      },
      "pos": [
        44,
        0
      ]
    },
    {
      "id": 90,
      "plugin": "AS",
      "version": "1.0.4",
      "model": "ReverbStereoFx",
      "params": [
        {
          "id": 0,
          "value": 0.5
        },
        {
          "id": 1,
          "value": 0.5
        },
        {
          "id": 2,
          "value": 0.5
        },
        {
          "id": 3,
          "value": 0.0
        }
      ],
      "leftModuleId": 89,
      "rightModuleId": 92,
      "data": {
        "as_FxBypass": [
          false
        ]
      },
      "pos": [
        60,
        0
      ]
    },
    {
      "id": 92,
      "plugin": "GlueTheGiant",
      "version": "1.1.2",
      "model": "BusDepot",
      "params": [
        {
          "id": 0,
          "value": 0.0
        },
        {
          "id": 1,
          "value": 1.0
        },
        {
          "id": 2,
          "value": 1.0
        },
        {
          "id": 3,
          "value": 3277.31226
        },
        {
          "id": 4,
          "value": 1819.82727
        }
      ],
      "leftModuleId": 90,
      "rightModuleId": 1,
      "data": {
        "input_on": 1,
        "level_cv_filter": 1,
        "color_theme": 1,
        "fade_cv_mode": 0,
        "audition_depot": 0,
        "auditioned": 0,
        "temped": 0,
        "audition_mode": 0
      },
      "pos": [
        66,
        0
      ]
    }
  ],
  "cables": [
    {
      "id": 188,
      "outputModuleId": 80,
      "outputId": 0,
      "inputModuleId": 82,
      "inputId": 0,
      "color": "#c91847"
    },
    {
      "id": 189,
      "outputModuleId": 82,
      "outputId": 0,
      "inputModuleId": 79,
      "inputId": 4,
      "color": "#0986ad"
    },
    {
      "id": 190,
      "outputModuleId": 82,
      "outputId": 1,
      "inputModuleId": 84,
      "inputId": 4,
      "color": "#c9b70e"
    },
    {
      "id": 191,
      "outputModuleId": 79,
      "outputId": 6,
      "inputModuleId": 85,
      "inputId": 0,
      "color": "#0c8e15"
    },
    {
      "id": 192,
      "outputModuleId": 84,
      "outputId": 6,
      "inputModuleId": 85,
      "inputId": 1,
      "color": "#c91847"
    },
    {
      "id": 193,
      "outputModuleId": 85,
      "outputId": 0,
      "inputModuleId": 86,
      "inputId": 2,
      "color": "#0986ad"
    },
    {
      "id": 194,
      "outputModuleId": 85,
      "outputId": 1,
      "inputModuleId": 87,
      "inputId": 2,
      "color": "#c9b70e"
    },
    {
      "id": 195,
      "outputModuleId": 86,
      "outputId": 0,
      "inputModuleId": 88,
      "inputId": 1,
      "color": "#0c8e15"
    },
    {
      "id": 196,
      "outputModuleId": 87,
      "outputId": 0,
      "inputModuleId": 89,
      "inputId": 1,
      "color": "#c91847"
    },
    {
      "id": 197,
      "outputModuleId": 82,
      "outputId": 2,
      "inputModuleId": 88,
      "inputId": 0,
      "color": "#0986ad"
    },
    {
      "id": 198,
      "outputModuleId": 82,
      "outputId": 3,
      "inputModuleId": 89,
      "inputId": 0,
      "color": "#c9b70e"
    },
    {
      "id": 200,
      "outputModuleId": 89,
      "outputId": 0,
      "inputModuleId": 90,
      "inputId": 1,
      "color": "#c91847"
    },
    {
      "id": 205,
      "outputModuleId": 88,
      "outputId": 0,
      "inputModuleId": 90,
      "inputId": 0,
      "color": "#0986ad"
    },
    {
      "id": 203,
      "outputModuleId": 90,
      "outputId": 0,
      "inputModuleId": 92,
      "inputId": 2,
      "color": "#0c8e15"
    },
    {
      "id": 204,
      "outputModuleId": 90,
      "outputId": 1,
      "inputModuleId": 92,
      "inputId": 3,
      "color": "#c91847"
    },
    {
      "id": 206,
      "outputModuleId": 92,
      "outputId": 0,
      "inputModuleId": 1,
      "inputId": 0,
      "color": "#c9b70e"
    },
    {
      "id": 207,
      "outputModuleId": 92,
      "outputId": 1,
      "inputModuleId": 1,
      "inputId": 1,
      "color": "#0c8e15"
    }
  ]
}