{
  "version": "1.1.6",
  "modules": [
    {
      "id": 1,
      "plugin": "Core",
      "version": "1.1.6",
      "model": "AudioInterface",
      "params": [],
      "leftModuleId": 77,
      "data": {
        "audio": {
          "driver": 5,
          "deviceName": "Apple Inc.: MacBook Pro Speakers",
          "offset": 0,
          "maxChannels": 8,
          "sampleRate": 44100,
          "blockSize": 256
        }
      },
      "pos": [
        78,
        0
      ]
    },
    {
      "id": 77,
      "plugin": "Fundamental",
      "version": "1.4.0",
      "model": "VCMixer",
      "params": [
        {
          "id": 0,
          "value": 1.01300025
        },
        {
          "id": 1,
          "value": 1.04793239
        },
        {
          "id": 2,
          "value": 0.809082091
        },
        {
          "id": 3,
          "value": 1.0042423
        },
        {
          "id": 4,
          "value": 0.8133232
        }
      ],
      "rightModuleId": 1,
      "pos": [
        68,
        0
      ]
    },
    {
      "id": 84,
      "plugin": "Fundamental",
      "version": "1.4.0",
      "model": "VCO",
      "params": [
        {
          "id": 0,
          "value": 1.0
        },
        {
          "id": 1,
          "value": 1.0
        },
        {
          "id": 2,
          "value": -6.80399561
        },
        {
          "id": 3,
          "value": 0.0
        },
        {
          "id": 4,
          "value": 0.250499934
        },
        {
          "id": 5,
          "value": 0.5
        },
        {
          "id": 6,
          "value": 0.0
        }
      ],
      "leftModuleId": 86,
      "rightModuleId": 85,
      "pos": [
        8,
        0
      ]
    },
    {
      "id": 85,
      "plugin": "Fundamental",
      "version": "1.4.0",
      "model": "ADSR",
      "params": [
        {
          "id": 0,
          "value": 0.0
        },
        {
          "id": 1,
          "value": 0.384499431
        },
        {
          "id": 2,
          "value": 0.0
        },
        {
          "id": 3,
          "value": 0.5
        }
      ],
      "leftModuleId": 84,
      "rightModuleId": 87,
      "pos": [
        18,
        0
      ]
    },
    {
      "id": 86,
      "plugin": "Core",
      "version": "1.1.6",
      "model": "MIDIToCVInterface",
      "params": [],
      "rightModuleId": 84,
      "data": {
        "channels": 1,
        "polyMode": 0,
        "clockDivision": 24,
        "lastPitch": 8192,
        "lastMod": 0,
        "midi": {
          "driver": -11,
          "deviceName": "QWERTY keyboard (US)",
          "channel": -1
        }
      },
      "pos": [
        0,
        0
      ]
    },
    {
      "id": 87,
      "plugin": "Fundamental",
      "version": "1.4.0",
      "model": "ADSR",
      "params": [
        {
          "id": 0,
          "value": 0.0
        },
        {
          "id": 1,
          "value": 0.308000058
        },
        {
          "id": 2,
          "value": 0.0
        },
        {
          "id": 3,
          "value": 0.280999541
        }
      ],
      "leftModuleId": 85,
      "rightModuleId": 88,
      "pos": [
        26,
        0
      ]
    },
    {
      "id": 88,
      "plugin": "Fundamental",
      "version": "1.4.0",
      "model": "Noise",
      "params": [],
      "leftModuleId": 87,
      "rightModuleId": 89,
      "pos": [
        34,
        0
      ]
    },
    {
      "id": 89,
      "plugin": "Fundamental",
      "version": "1.4.0",
      "model": "ADSR",
      "params": [
        {
          "id": 0,
          "value": 0.0
        },
        {
          "id": 1,
          "value": 0.360500067
        },
        {
          "id": 2,
          "value": 0.0
        },
        {
          "id": 3,
          "value": 0.417500019
        }
      ],
      "leftModuleId": 88,
      "rightModuleId": 90,
      "pos": [
        37,
        0
      ]
    },
    {
      "id": 90,
      "plugin": "Fundamental",
      "version": "1.4.0",
      "model": "VCF",
      "params": [
        {
          "id": 0,
          "value": 0.681000531
        },
        {
          "id": 1,
          "value": 0.5
        },
        {
          "id": 2,
          "value": 0.239999875
        },
        {
          "id": 3,
          "value": 0.0
        },
        {
          "id": 4,
          "value": 0.0
        }
      ],
      "leftModuleId": 89,
      "pos": [
        45,
        0
      ]
    }
  ],
  "cables": [
    {
      "id": 181,
      "outputModuleId": 77,
      "outputId": 0,
      "inputModuleId": 1,
      "inputId": 1,
      "color": "#c91847"
    },
    {
      "id": 182,
      "outputModuleId": 77,
      "outputId": 0,
      "inputModuleId": 1,
      "inputId": 0,
      "color": "#c91847"
    },
    {
      "id": 196,
      "outputModuleId": 85,
      "outputId": 0,
      "inputModuleId": 77,
      "inputId": 5,
      "color": "#0c8e15"
    },
    {
      "id": 195,
      "outputModuleId": 86,
      "outputId": 1,
      "inputModuleId": 85,
      "inputId": 4,
      "color": "#0986ad"
    },
    {
      "id": 197,
      "outputModuleId": 86,
      "outputId": 1,
      "inputModuleId": 87,
      "inputId": 4,
      "color": "#0986ad"
    },
    {
      "id": 199,
      "outputModuleId": 87,
      "outputId": 0,
      "inputModuleId": 84,
      "inputId": 1,
      "color": "#0c8e15"
    },
    {
      "id": 200,
      "outputModuleId": 89,
      "outputId": 0,
      "inputModuleId": 77,
      "inputId": 6,
      "color": "#0c8e15"
    },
    {
      "id": 202,
      "outputModuleId": 86,
      "outputId": 1,
      "inputModuleId": 89,
      "inputId": 4,
      "color": "#0986ad"
    },
    {
      "id": 203,
      "outputModuleId": 84,
      "outputId": 1,
      "inputModuleId": 77,
      "inputId": 1,
      "color": "#c91847"
    },
    {
      "id": 201,
      "outputModuleId": 88,
      "outputId": 1,
      "inputModuleId": 90,
      "inputId": 3,
      "color": "#c91847"
    },
    {
      "id": 204,
      "outputModuleId": 90,
      "outputId": 1,
      "inputModuleId": 77,
      "inputId": 2,
      "color": "#c91847"
    }
  ]
}