{
  "version": "1.1.6",
  "modules": [
    {
      "id": 1,
      "plugin": "Core",
      "version": "1.1.6",
      "model": "AudioInterface",
      "params": [],
      "leftModuleId": 26,
      "data": {
        "audio": {
          "driver": 5,
          "deviceName": "Apple Inc.: External Headphones",
          "offset": 0,
          "maxChannels": 8,
          "sampleRate": 44100,
          "blockSize": 1024
        }
      },
      "pos": [
        69,
        1
      ]
    },
    {
      "id": 2,
      "plugin": "dBiz",
      "version": "1.1.2",
      "model": "FourSeq",
      "params": [
        {
          "id": 0,
          "value": 0.0
        },
        {
          "id": 1,
          "value": 0.0
        },
        {
          "id": 2,
          "value": 0.0
        },
        {
          "id": 3,
          "value": 0.0
        },
        {
          "id": 4,
          "value": 0.0
        },
        {
          "id": 5,
          "value": 0.0
        },
        {
          "id": 6,
          "value": 0.0
        },
        {
          "id": 7,
          "value": 0.0
        },
        {
          "id": 8,
          "value": 0.0
        },
        {
          "id": 9,
          "value": 0.0
        },
        {
          "id": 10,
          "value": 0.0
        },
        {
          "id": 11,
          "value": 0.365995705
        },
        {
          "id": 12,
          "value": 0.836999536
        },
        {
          "id": 13,
          "value": 1.35899997
        },
        {
          "id": 14,
          "value": 1.59300017
        },
        {
          "id": 15,
          "value": -0.450000048
        },
        {
          "id": 16,
          "value": -0.837000072
        },
        {
          "id": 17,
          "value": -0.531000018
        },
        {
          "id": 18,
          "value": -0.837000132
        }
      ],
      "leftModuleId": 8,
      "rightModuleId": 24,
      "data": {
        "gatesA": [
          1,
          1,
          1,
          1
        ],
        "gatesB": [
          1,
          1,
          1,
          1
        ]
      },
      "pos": [
        38,
        0
      ]
    },
    {
      "id": 3,
      "plugin": "JW-Modules",
      "version": "1.0.11",
      "model": "SimpleClock",
      "params": [
        {
          "id": 0,
          "value": 1.0
        },
        {
          "id": 1,
          "value": 0.0
        },
        {
          "id": 2,
          "value": -2.0
        },
        {
          "id": 3,
          "value": 0.0
        }
      ],
      "rightModuleId": 4,
      "data": {
        "running": false
      },
      "pos": [
        0,
        0
      ]
    },
    {
      "id": 4,
      "plugin": "CountModula",
      "version": "1.11.0",
      "model": "VCFrequencyDividerMkII",
      "params": [
        {
          "id": 0,
          "value": 0.0
        },
        {
          "id": 1,
          "value": 1.0
        }
      ],
      "leftModuleId": 3,
      "rightModuleId": 5,
      "data": {
        "moduleVersion": 2,
        "antiAlias": false,
        "legacyMode": false,
        "theme": 1
      },
      "pos": [
        4,
        0
      ]
    },
    {
      "id": 5,
      "plugin": "CountModula",
      "version": "1.11.0",
      "model": "VCFrequencyDividerMkII",
      "params": [
        {
          "id": 0,
          "value": 0.0
        },
        {
          "id": 1,
          "value": 7.0
        }
      ],
      "leftModuleId": 4,
      "rightModuleId": 6,
      "data": {
        "moduleVersion": 2,
        "antiAlias": false,
        "legacyMode": false,
        "theme": 1
      },
      "pos": [
        8,
        0
      ]
    },
    {
      "id": 6,
      "plugin": "CountModula",
      "version": "1.11.0",
      "model": "VCFrequencyDividerMkII",
      "params": [
        {
          "id": 0,
          "value": 0.0
        },
        {
          "id": 1,
          "value": 4.0
        }
      ],
      "leftModuleId": 5,
      "rightModuleId": 7,
      "data": {
        "moduleVersion": 2,
        "antiAlias": false,
        "legacyMode": false,
        "theme": 1
      },
      "pos": [
        12,
        0
      ]
    },
    {
      "id": 7,
      "plugin": "CountModula",
      "version": "1.11.0",
      "model": "VCFrequencyDividerMkII",
      "params": [
        {
          "id": 0,
          "value": 0.0
        },
        {
          "id": 1,
          "value": 3.0
        }
      ],
      "leftModuleId": 6,
      "rightModuleId": 9,
      "data": {
        "moduleVersion": 2,
        "antiAlias": false,
        "legacyMode": false,
        "theme": 1
      },
      "pos": [
        16,
        0
      ]
    },
    {
      "id": 8,
      "plugin": "CountModula",
      "version": "1.11.0",
      "model": "BusRoute2",
      "params": [
        {
          "id": 0,
          "value": 1.0
        },
        {
          "id": 1,
          "value": 1.0
        },
        {
          "id": 2,
          "value": 0.0
        },
        {
          "id": 3,
          "value": 0.0
        },
        {
          "id": 4,
          "value": 0.0
        },
        {
          "id": 5,
          "value": 0.0
        },
        {
          "id": 6,
          "value": 0.0
        },
        {
          "id": 7,
          "value": 0.0
        },
        {
          "id": 8,
          "value": 1.0
        },
        {
          "id": 9,
          "value": 1.0
        },
        {
          "id": 10,
          "value": 0.0
        },
        {
          "id": 11,
          "value": 0.0
        },
        {
          "id": 12,
          "value": 0.0
        },
        {
          "id": 13,
          "value": 0.0
        }
      ],
      "leftModuleId": 9,
      "rightModuleId": 2,
      "data": {
        "moduleVersion": 1,
        "theme": 1
      },
      "pos": [
        30,
        0
      ]
    },
    {
      "id": 9,
      "plugin": "ML_modules",
      "version": "1.1.2",
      "model": "OctaTrig",
      "params": [
        {
          "id": 0,
          "value": 0.0
        }
      ],
      "leftModuleId": 7,
      "rightModuleId": 8,
      "pos": [
        20,
        0
      ]
    },
    {
      "id": 11,
      "plugin": "Befaco",
      "version": "1.0.1",
      "model": "EvenVCO",
      "params": [
        {
          "id": 0,
          "value": -2.0
        },
        {
          "id": 1,
          "value": 0.0
        },
        {
          "id": 2,
          "value": 0.0
        }
      ],
      "rightModuleId": 13,
      "pos": [
        3,
        1
      ]
    },
    {
      "id": 12,
      "plugin": "Befaco",
      "version": "1.0.1",
      "model": "EvenVCO",
      "params": [
        {
          "id": 0,
          "value": 0.0
        },
        {
          "id": 1,
          "value": 0.0
        },
        {
          "id": 2,
          "value": 0.0
        }
      ],
      "leftModuleId": 22,
      "rightModuleId": 14,
      "pos": [
        33,
        1
      ]
    },
    {
      "id": 13,
      "plugin": "Bogaudio",
      "version": "1.1.33",
      "model": "Bogaudio-Switch",
      "params": [
        {
          "id": 0,
          "value": 0.0
        },
        {
          "id": 1,
          "value": 1.0
        }
      ],
      "leftModuleId": 11,
      "rightModuleId": 15,
      "data": {
        "save_latched_to_patch": false
      },
      "pos": [
        11,
        1
      ]
    },
    {
      "id": 14,
      "plugin": "Bogaudio",
      "version": "1.1.33",
      "model": "Bogaudio-Switch",
      "params": [
        {
          "id": 0,
          "value": 0.0
        },
        {
          "id": 1,
          "value": 1.0
        }
      ],
      "leftModuleId": 12,
      "rightModuleId": 18,
      "data": {
        "save_latched_to_patch": false
      },
      "pos": [
        41,
        1
      ]
    },
    {
      "id": 15,
      "plugin": "CountModula",
      "version": "1.11.0",
      "model": "VCFrequencyDividerMkII",
      "params": [
        {
          "id": 0,
          "value": 2.0
        },
        {
          "id": 1,
          "value": 3.0
        }
      ],
      "leftModuleId": 13,
      "rightModuleId": 16,
      "data": {
        "moduleVersion": 2,
        "antiAlias": false,
        "legacyMode": false,
        "theme": 1
      },
      "pos": [
        14,
        1
      ]
    },
    {
      "id": 16,
      "plugin": "CountModula",
      "version": "1.11.0",
      "model": "VCFrequencyDividerMkII",
      "params": [
        {
          "id": 0,
          "value": 2.0
        },
        {
          "id": 1,
          "value": 1.0
        }
      ],
      "leftModuleId": 15,
      "rightModuleId": 19,
      "data": {
        "moduleVersion": 2,
        "antiAlias": false,
        "legacyMode": false,
        "theme": 1
      },
      "pos": [
        18,
        1
      ]
    },
    {
      "id": 17,
      "plugin": "CountModula",
      "version": "1.11.0",
      "model": "VCFrequencyDividerMkII",
      "params": [
        {
          "id": 0,
          "value": 2.0
        },
        {
          "id": 1,
          "value": 1.0
        }
      ],
      "leftModuleId": 18,
      "rightModuleId": 21,
      "data": {
        "moduleVersion": 2,
        "antiAlias": false,
        "legacyMode": false,
        "theme": 1
      },
      "pos": [
        48,
        1
      ]
    },
    {
      "id": 18,
      "plugin": "CountModula",
      "version": "1.11.0",
      "model": "VCFrequencyDividerMkII",
      "params": [
        {
          "id": 0,
          "value": 2.0
        },
        {
          "id": 1,
          "value": 5.0
        }
      ],
      "leftModuleId": 14,
      "rightModuleId": 17,
      "data": {
        "moduleVersion": 2,
        "antiAlias": false,
        "legacyMode": false,
        "theme": 1
      },
      "pos": [
        44,
        1
      ]
    },
    {
      "id": 19,
      "plugin": "CountModula",
      "version": "1.11.0",
      "model": "Mixer",
      "params": [
        {
          "id": 0,
          "value": 0.611500204
        },
        {
          "id": 1,
          "value": 0.403499961
        },
        {
          "id": 2,
          "value": 0.5
        },
        {
          "id": 3,
          "value": 0.5
        },
        {
          "id": 4,
          "value": 1.0
        },
        {
          "id": 5,
          "value": 1.0
        }
      ],
      "leftModuleId": 16,
      "rightModuleId": 22,
      "data": {
        "moduleVersion": 1,
        "theme": 1
      },
      "pos": [
        22,
        1
      ]
    },
    {
      "id": 21,
      "plugin": "CountModula",
      "version": "1.11.0",
      "model": "Mixer",
      "params": [
        {
          "id": 0,
          "value": 0.596000135
        },
        {
          "id": 1,
          "value": 0.399499983
        },
        {
          "id": 2,
          "value": 0.5
        },
        {
          "id": 3,
          "value": 0.5
        },
        {
          "id": 4,
          "value": 1.0
        },
        {
          "id": 5,
          "value": 1.0
        }
      ],
      "leftModuleId": 17,
      "data": {
        "moduleVersion": 1,
        "theme": 1
      },
      "pos": [
        52,
        1
      ]
    },
    {
      "id": 22,
      "plugin": "Bogaudio",
      "version": "1.1.33",
      "model": "Bogaudio-XFade",
      "params": [
        {
          "id": 0,
          "value": -0.348000079
        },
        {
          "id": 1,
          "value": 0.5
        },
        {
          "id": 2,
          "value": 1.0
        }
      ],
      "leftModuleId": 19,
      "rightModuleId": 12,
      "pos": [
        30,
        1
      ]
    },
    {
      "id": 23,
      "plugin": "Bogaudio",
      "version": "1.1.33",
      "model": "Bogaudio-Switch88",
      "params": [
        {
          "id": 0,
          "value": 1.0
        },
        {
          "id": 1,
          "value": 0.0
        },
        {
          "id": 2,
          "value": 0.0
        },
        {
          "id": 3,
          "value": 0.0
        },
        {
          "id": 4,
          "value": 0.0
        },
        {
          "id": 5,
          "value": 0.0
        },
        {
          "id": 6,
          "value": 0.0
        },
        {
          "id": 7,
          "value": 0.0
        },
        {
          "id": 8,
          "value": 0.0
        },
        {
          "id": 9,
          "value": 0.0
        },
        {
          "id": 10,
          "value": 0.0
        },
        {
          "id": 11,
          "value": 0.0
        },
        {
          "id": 12,
          "value": 0.0
        },
        {
          "id": 13,
          "value": 0.0
        },
        {
          "id": 14,
          "value": 0.0
        },
        {
          "id": 15,
          "value": 0.0
        },
        {
          "id": 16,
          "value": 0.0
        },
        {
          "id": 17,
          "value": 0.0
        },
        {
          "id": 18,
          "value": 0.0
        },
        {
          "id": 19,
          "value": 0.0
        },
        {
          "id": 20,
          "value": 0.0
        },
        {
          "id": 21,
          "value": 0.0
        },
        {
          "id": 22,
          "value": 0.0
        },
        {
          "id": 23,
          "value": 0.0
        },
        {
          "id": 24,
          "value": 0.0
        },
        {
          "id": 25,
          "value": 0.0
        },
        {
          "id": 26,
          "value": 0.0
        },
        {
          "id": 27,
          "value": 0.0
        },
        {
          "id": 28,
          "value": 0.0
        },
        {
          "id": 29,
          "value": 0.0
        },
        {
          "id": 30,
          "value": 0.0
        },
        {
          "id": 31,
          "value": 0.0
        },
        {
          "id": 32,
          "value": 0.0
        },
        {
          "id": 33,
          "value": 0.0
        },
        {
          "id": 34,
          "value": 0.0
        },
        {
          "id": 35,
          "value": 0.0
        },
        {
          "id": 36,
          "value": 0.0
        },
        {
          "id": 37,
          "value": 0.0
        },
        {
          "id": 38,
          "value": 0.0
        },
        {
          "id": 39,
          "value": 0.0
        },
        {
          "id": 40,
          "value": 0.0
        },
        {
          "id": 41,
          "value": 0.0
        },
        {
          "id": 42,
          "value": 0.0
        },
        {
          "id": 43,
          "value": 0.0
        },
        {
          "id": 44,
          "value": 0.0
        },
        {
          "id": 45,
          "value": 0.0
        },
        {
          "id": 46,
          "value": 0.0
        },
        {
          "id": 47,
          "value": 0.0
        },
        {
          "id": 48,
          "value": 0.0
        },
        {
          "id": 49,
          "value": 0.0
        },
        {
          "id": 50,
          "value": 0.0
        },
        {
          "id": 51,
          "value": 0.0
        },
        {
          "id": 52,
          "value": 0.0
        },
        {
          "id": 53,
          "value": 0.0
        },
        {
          "id": 54,
          "value": 0.0
        },
        {
          "id": 55,
          "value": 0.0
        },
        {
          "id": 56,
          "value": 0.0
        },
        {
          "id": 57,
          "value": 0.0
        },
        {
          "id": 58,
          "value": 0.0
        },
        {
          "id": 59,
          "value": 0.0
        },
        {
          "id": 60,
          "value": 0.0
        },
        {
          "id": 61,
          "value": 0.0
        },
        {
          "id": 62,
          "value": 0.0
        },
        {
          "id": 63,
          "value": 0.0
        }
      ],
      "data": {
        "clipping_mode": 0,
        "input_gain_db": 0.0,
        "inverting": "disabled",
        "row_exclusive": false,
        "column_exclusive": false
      },
      "pos": [
        57,
        0
      ]
    },
    {
      "id": 24,
      "plugin": "repelzen",
      "version": "1.1.0",
      "model": "rewin",
      "params": [
        {
          "id": 0,
          "value": 0.0
        },
        {
          "id": 1,
          "value": 0.0
        },
        {
          "id": 2,
          "value": 0.0
        },
        {
          "id": 3,
          "value": 0.0
        },
        {
          "id": 4,
          "value": 0.0
        },
        {
          "id": 5,
          "value": 0.0
        },
        {
          "id": 6,
          "value": 0.0
        },
        {
          "id": 7,
          "value": 0.0
        },
        {
          "id": 8,
          "value": 0.0
        },
        {
          "id": 9,
          "value": 0.0
        },
        {
          "id": 10,
          "value": 0.0
        },
        {
          "id": 11,
          "value": 0.0
        },
        {
          "id": 12,
          "value": 0.0
        },
        {
          "id": 13,
          "value": 0.0
        },
        {
          "id": 14,
          "value": 0.0
        },
        {
          "id": 15,
          "value": 0.0
        },
        {
          "id": 16,
          "value": 0.0
        }
      ],
      "leftModuleId": 2,
      "data": {
        "notes": [
          true,
          false,
          true,
          true,
          false,
          true,
          false,
          true,
          false,
          false,
          true,
          false,
          false,
          false,
          false,
          false,
          false,
          false,
          false,
          false,
          false,
          false,
          false,
          false,
          false,
          false,
          false,
          false,
          false,
          false,
          false,
          false,
          false,
          false,
          false,
          false,
          false,
          false,
          false,
          false,
          false,
          false,
          false,
          false,
          false,
          false,
          false,
          false,
          false,
          false,
          false,
          false,
          false,
          false,
          false,
          false,
          false,
          false,
          false,
          false,
          false,
          false,
          false,
          false,
          false,
          false,
          false,
          false,
          false,
          false,
          false,
          false,
          false,
          false,
          false,
          false,
          false,
          false,
          false,
          false,
          false,
          false,
          false,
          false,
          false,
          false,
          false,
          false,
          false,
          false,
          false,
          false,
          false,
          false,
          false,
          false,
          false,
          false,
          false,
          false,
          false,
          false,
          false,
          false,
          false,
          false,
          false,
          false,
          false,
          false,
          false,
          false,
          false,
          false,
          false,
          false,
          false,
          false,
          false,
          false,
          false,
          false,
          false,
          false,
          false,
          false,
          false,
          false,
          false,
          false,
          false,
          false,
          false,
          false,
          false,
          false,
          false,
          false,
          false,
          false,
          false,
          false,
          false,
          false,
          false,
          false,
          false,
          false,
          false,
          false,
          false,
          false,
          false,
          false,
          false,
          false,
          false,
          false,
          false,
          false,
          false,
          false,
          false,
          false,
          false,
          false,
          false,
          false,
          false,
          false,
          false,
          false,
          false,
          false,
          false,
          false,
          false,
          false,
          false,
          false,
          false,
          false,
          false,
          false,
          false,
          false,
          false,
          false,
          false,
          false,
          false,
          false
        ],
        "mode": 0
      },
      "pos": [
        46,
        0
      ]
    },
    {
      "id": 26,
      "plugin": "GlueTheGiant",
      "version": "1.1.2",
      "model": "BusDepot",
      "params": [
        {
          "id": 0,
          "value": 0.0
        },
        {
          "id": 1,
          "value": 1.0
        },
        {
          "id": 2,
          "value": 1.0
        },
        {
          "id": 3,
          "value": 26.0
        },
        {
          "id": 4,
          "value": 26.0
        }
      ],
      "rightModuleId": 1,
      "data": {
        "input_on": 0,
        "level_cv_filter": 1,
        "color_theme": 1,
        "fade_cv_mode": 0,
        "audition_depot": 0,
        "auditioned": 0,
        "temped": 0,
        "audition_mode": 0
      },
      "pos": [
        63,
        1
      ]
    }
  ],
  "cables": [
    {
      "id": 0,
      "outputModuleId": 3,
      "outputId": 0,
      "inputModuleId": 4,
      "inputId": 1,
      "color": "#0986ad"
    },
    {
      "id": 1,
      "outputModuleId": 3,
      "outputId": 0,
      "inputModuleId": 5,
      "inputId": 1,
      "color": "#0986ad"
    },
    {
      "id": 2,
      "outputModuleId": 3,
      "outputId": 0,
      "inputModuleId": 6,
      "inputId": 1,
      "color": "#0986ad"
    },
    {
      "id": 3,
      "outputModuleId": 3,
      "outputId": 0,
      "inputModuleId": 7,
      "inputId": 1,
      "color": "#0986ad"
    },
    {
      "id": 5,
      "outputModuleId": 4,
      "outputId": 1,
      "inputModuleId": 9,
      "inputId": 0,
      "color": "#0986ad"
    },
    {
      "id": 6,
      "outputModuleId": 5,
      "outputId": 1,
      "inputModuleId": 9,
      "inputId": 1,
      "color": "#0986ad"
    },
    {
      "id": 7,
      "outputModuleId": 6,
      "outputId": 1,
      "inputModuleId": 9,
      "inputId": 2,
      "color": "#0986ad"
    },
    {
      "id": 8,
      "outputModuleId": 7,
      "outputId": 1,
      "inputModuleId": 9,
      "inputId": 3,
      "color": "#0986ad"
    },
    {
      "id": 10,
      "outputModuleId": 9,
      "outputId": 0,
      "inputModuleId": 8,
      "inputId": 0,
      "color": "#0986ad"
    },
    {
      "id": 11,
      "outputModuleId": 9,
      "outputId": 1,
      "inputModuleId": 8,
      "inputId": 1,
      "color": "#0986ad"
    },
    {
      "id": 12,
      "outputModuleId": 9,
      "outputId": 2,
      "inputModuleId": 8,
      "inputId": 2,
      "color": "#0986ad"
    },
    {
      "id": 13,
      "outputModuleId": 9,
      "outputId": 3,
      "inputModuleId": 8,
      "inputId": 3,
      "color": "#0986ad"
    },
    {
      "id": 14,
      "outputModuleId": 8,
      "outputId": 1,
      "inputModuleId": 2,
      "inputId": 1,
      "color": "#0986ad"
    },
    {
      "id": 15,
      "outputModuleId": 8,
      "outputId": 0,
      "inputModuleId": 2,
      "inputId": 2,
      "color": "#0986ad"
    },
    {
      "id": 17,
      "outputModuleId": 3,
      "outputId": 1,
      "inputModuleId": 2,
      "inputId": 0,
      "color": "#0986ad"
    },
    {
      "id": 18,
      "outputModuleId": 11,
      "outputId": 4,
      "inputModuleId": 13,
      "inputId": 2,
      "color": "#c91847"
    },
    {
      "id": 19,
      "outputModuleId": 11,
      "outputId": 3,
      "inputModuleId": 13,
      "inputId": 1,
      "color": "#c91847"
    },
    {
      "id": 20,
      "outputModuleId": 12,
      "outputId": 3,
      "inputModuleId": 14,
      "inputId": 1,
      "color": "#c91847"
    },
    {
      "id": 21,
      "outputModuleId": 12,
      "outputId": 4,
      "inputModuleId": 14,
      "inputId": 2,
      "color": "#c91847"
    },
    {
      "id": 23,
      "outputModuleId": 13,
      "outputId": 0,
      "inputModuleId": 15,
      "inputId": 1,
      "color": "#c91847"
    },
    {
      "id": 24,
      "outputModuleId": 15,
      "outputId": 0,
      "inputModuleId": 19,
      "inputId": 0,
      "color": "#c91847"
    },
    {
      "id": 25,
      "outputModuleId": 16,
      "outputId": 0,
      "inputModuleId": 19,
      "inputId": 1,
      "color": "#c91847"
    },
    {
      "id": 26,
      "outputModuleId": 13,
      "outputId": 0,
      "inputModuleId": 16,
      "inputId": 1,
      "color": "#c91847"
    },
    {
      "id": 27,
      "outputModuleId": 14,
      "outputId": 0,
      "inputModuleId": 18,
      "inputId": 1,
      "color": "#c91847"
    },
    {
      "id": 28,
      "outputModuleId": 14,
      "outputId": 0,
      "inputModuleId": 17,
      "inputId": 1,
      "color": "#c91847"
    },
    {
      "id": 29,
      "outputModuleId": 18,
      "outputId": 0,
      "inputModuleId": 21,
      "inputId": 0,
      "color": "#c91847"
    },
    {
      "id": 30,
      "outputModuleId": 17,
      "outputId": 0,
      "inputModuleId": 21,
      "inputId": 1,
      "color": "#c91847"
    },
    {
      "id": 31,
      "outputModuleId": 19,
      "outputId": 0,
      "inputModuleId": 22,
      "inputId": 1,
      "color": "#c91847"
    },
    {
      "id": 32,
      "outputModuleId": 21,
      "outputId": 0,
      "inputModuleId": 22,
      "inputId": 2,
      "color": "#c91847"
    },
    {
      "id": 33,
      "outputModuleId": 2,
      "outputId": 0,
      "inputModuleId": 24,
      "inputId": 2,
      "color": "#c9b70e"
    },
    {
      "id": 34,
      "outputModuleId": 2,
      "outputId": 1,
      "inputModuleId": 24,
      "inputId": 3,
      "color": "#c9b70e"
    },
    {
      "id": 35,
      "outputModuleId": 24,
      "outputId": 0,
      "inputModuleId": 23,
      "inputId": 0,
      "color": "#c9b70e"
    },
    {
      "id": 36,
      "outputModuleId": 24,
      "outputId": 1,
      "inputModuleId": 23,
      "inputId": 1,
      "color": "#c9b70e"
    },
    {
      "id": 37,
      "outputModuleId": 23,
      "outputId": 0,
      "inputModuleId": 11,
      "inputId": 1,
      "color": "#c9b70e"
    },
    {
      "id": 38,
      "outputModuleId": 23,
      "outputId": 1,
      "inputModuleId": 15,
      "inputId": 0,
      "color": "#0c8e15"
    },
    {
      "id": 39,
      "outputModuleId": 23,
      "outputId": 2,
      "inputModuleId": 16,
      "inputId": 0,
      "color": "#0c8e15"
    },
    {
      "id": 40,
      "outputModuleId": 23,
      "outputId": 3,
      "inputModuleId": 12,
      "inputId": 1,
      "color": "#c9b70e"
    },
    {
      "id": 41,
      "outputModuleId": 23,
      "outputId": 4,
      "inputModuleId": 18,
      "inputId": 0,
      "color": "#0c8e15"
    },
    {
      "id": 42,
      "outputModuleId": 23,
      "outputId": 5,
      "inputModuleId": 17,
      "inputId": 0,
      "color": "#0c8e15"
    },
    {
      "id": 43,
      "outputModuleId": 22,
      "outputId": 0,
      "inputModuleId": 26,
      "inputId": 2,
      "color": "#c91847"
    },
    {
      "id": 44,
      "outputModuleId": 26,
      "outputId": 0,
      "inputModuleId": 1,
      "inputId": 0,
      "color": "#c91847"
    },
    {
      "id": 45,
      "outputModuleId": 26,
      "outputId": 1,
      "inputModuleId": 1,
      "inputId": 1,
      "color": "#c91847"
    }
  ]
}