{
  "version": "1.1.6",
  "modules": [
    {
      "id": 1,
      "plugin": "Core",
      "version": "1.1.6",
      "model": "AudioInterface",
      "params": [],
      "leftModuleId": 128,
      "data": {
        "audio": {
          "driver": 5,
          "deviceName": "Apple Inc.: MacBook Pro Speakers",
          "offset": 0,
          "maxChannels": 8,
          "sampleRate": 44100,
          "blockSize": 256
        }
      },
      "pos": [
        87,
        0
      ]
    },
    {
      "id": 120,
      "plugin": "AudibleInstruments",
      "version": "1.3.1",
      "model": "Tides2",
      "params": [
        {
          "id": 0,
          "value": 0.0
        },
        {
          "id": 1,
          "value": 0.0
        },
        {
          "id": 2,
          "value": 0.0
        },
        {
          "id": 3,
          "value": 17.136013
        },
        {
          "id": 4,
          "value": 0.31949994
        },
        {
          "id": 5,
          "value": 1.0
        },
        {
          "id": 6,
          "value": 0.0
        },
        {
          "id": 7,
          "value": 1.0
        },
        {
          "id": 8,
          "value": 0.0
        },
        {
          "id": 9,
          "value": 0.0
        },
        {
          "id": 10,
          "value": 0.0
        },
        {
          "id": 11,
          "value": 0.0
        },
        {
          "id": 12,
          "value": 0.0
        }
      ],
      "leftModuleId": 123,
      "rightModuleId": 122,
      "data": {
        "range": 1,
        "output": 0,
        "ramp": 0
      },
      "pos": [
        18,
        0
      ]
    },
    {
      "id": 122,
      "plugin": "Fundamental",
      "version": "1.4.0",
      "model": "Scope",
      "params": [
        {
          "id": 0,
          "value": 0.0
        },
        {
          "id": 1,
          "value": 0.0
        },
        {
          "id": 2,
          "value": 0.0
        },
        {
          "id": 3,
          "value": 0.0
        },
        {
          "id": 4,
          "value": 8.26500702
        },
        {
          "id": 5,
          "value": 0.0
        },
        {
          "id": 6,
          "value": 0.0
        },
        {
          "id": 7,
          "value": 0.0
        }
      ],
      "leftModuleId": 120,
      "rightModuleId": 125,
      "data": {
        "lissajous": 0,
        "external": 0
      },
      "pos": [
        32,
        0
      ]
    },
    {
      "id": 123,
      "plugin": "AudibleInstruments",
      "version": "1.3.1",
      "model": "Marbles",
      "params": [
        {
          "id": 0,
          "value": 0.0
        },
        {
          "id": 1,
          "value": 0.0
        },
        {
          "id": 2,
          "value": 0.5
        },
        {
          "id": 3,
          "value": 0.248999909
        },
        {
          "id": 4,
          "value": 0.0934997275
        },
        {
          "id": 5,
          "value": 0.0
        },
        {
          "id": 6,
          "value": 0.0
        },
        {
          "id": 7,
          "value": 0.00150000001
        },
        {
          "id": 8,
          "value": 0.5
        },
        {
          "id": 9,
          "value": 0.627998173
        },
        {
          "id": 10,
          "value": 0.0
        },
        {
          "id": 11,
          "value": 0.0
        },
        {
          "id": 12,
          "value": 0.0
        },
        {
          "id": 13,
          "value": 0.0
        },
        {
          "id": 14,
          "value": 0.886000037
        }
      ],
      "rightModuleId": 120,
      "data": {
        "t_deja_vu": false,
        "x_deja_vu": false,
        "t_mode": 0,
        "x_mode": 0,
        "t_range": 1,
        "x_range": 1,
        "external": false,
        "x_scale": 0,
        "y_divider_index": 8,
        "x_clock_source_internal": 0
      },
      "pos": [
        0,
        0
      ]
    },
    {
      "id": 125,
      "plugin": "AudibleInstruments",
      "version": "1.3.1",
      "model": "Plaits",
      "params": [
        {
          "id": 0,
          "value": 0.0
        },
        {
          "id": 1,
          "value": 0.0
        },
        {
          "id": 2,
          "value": -2.47600007
        },
        {
          "id": 3,
          "value": 0.240999565
        },
        {
          "id": 4,
          "value": 0.237000152
        },
        {
          "id": 5,
          "value": 0.5
        },
        {
          "id": 6,
          "value": 0.0
        },
        {
          "id": 7,
          "value": 0.0
        },
        {
          "id": 8,
          "value": 0.0
        },
        {
          "id": 9,
          "value": 0.5
        },
        {
          "id": 10,
          "value": 0.5
        }
      ],
      "leftModuleId": 122,
      "rightModuleId": 126,
      "data": {
        "lowCpu": false,
        "model": 0
      },
      "pos": [
        45,
        0
      ]
    },
    {
      "id": 126,
      "plugin": "AlrightDevices",
      "version": "1.0.3",
      "model": "Chronoblob2",
      "params": [
        {
          "id": 0,
          "value": 0.366499037
        },
        {
          "id": 1,
          "value": 0.5
        },
        {
          "id": 2,
          "value": 0.199999958
        },
        {
          "id": 3,
          "value": 0.0
        },
        {
          "id": 4,
          "value": 0.0
        },
        {
          "id": 5,
          "value": 0.237000018
        },
        {
          "id": 6,
          "value": 0.0
        },
        {
          "id": 7,
          "value": 0.0
        },
        {
          "id": 8,
          "value": 0.0
        },
        {
          "id": 9,
          "value": 0.0
        }
      ],
      "leftModuleId": 125,
      "rightModuleId": 127,
      "data": {
        "delay_mode": 0,
        "hold_behavior": 0,
        "sync_prescaler": 6
      },
      "pos": [
        57,
        0
      ]
    },
    {
      "id": 127,
      "plugin": "Valley",
      "version": "1.0.1",
      "model": "Plateau",
      "params": [
        {
          "id": 0,
          "value": 1.0
        },
        {
          "id": 1,
          "value": 0.0
        },
        {
          "id": 2,
          "value": 0.0
        },
        {
          "id": 3,
          "value": 8.9950037
        },
        {
          "id": 4,
          "value": 10.0
        },
        {
          "id": 5,
          "value": 0.5
        },
        {
          "id": 6,
          "value": 10.0
        },
        {
          "id": 7,
          "value": 0.440612495
        },
        {
          "id": 8,
          "value": 10.0
        },
        {
          "id": 9,
          "value": 10.0
        },
        {
          "id": 10,
          "value": 0.0
        },
        {
          "id": 11,
          "value": 0.5
        },
        {
          "id": 12,
          "value": 3.57200193
        },
        {
          "id": 13,
          "value": 0.0
        },
        {
          "id": 14,
          "value": 0.0
        },
        {
          "id": 15,
          "value": 0.0
        },
        {
          "id": 16,
          "value": 0.0
        },
        {
          "id": 17,
          "value": 0.0
        },
        {
          "id": 18,
          "value": 0.0
        },
        {
          "id": 19,
          "value": 0.0
        },
        {
          "id": 20,
          "value": 0.0
        },
        {
          "id": 21,
          "value": 0.0
        },
        {
          "id": 22,
          "value": 0.0
        },
        {
          "id": 23,
          "value": 0.0
        },
        {
          "id": 24,
          "value": 0.0
        },
        {
          "id": 25,
          "value": 0.0
        },
        {
          "id": 26,
          "value": 0.0
        },
        {
          "id": 27,
          "value": 0.0
        },
        {
          "id": 28,
          "value": 0.0
        },
        {
          "id": 29,
          "value": 0.0
        },
        {
          "id": 30,
          "value": 1.0
        }
      ],
      "leftModuleId": 126,
      "rightModuleId": 128,
      "data": {
        "frozen": false,
        "freezeToggle": false,
        "panelStyle": 0,
        "tuned": 0,
        "diffuseInput": 1,
        "preDelayCVSens": 0,
        "inputSensitivity": 0,
        "outputSaturation": 0
      },
      "pos": [
        69,
        0
      ]
    },
    {
      "id": 128,
      "plugin": "GlueTheGiant",
      "version": "1.1.2",
      "model": "BusDepot",
      "params": [
        {
          "id": 0,
          "value": 0.0
        },
        {
          "id": 1,
          "value": 1.0
        },
        {
          "id": 2,
          "value": 1.0
        },
        {
          "id": 3,
          "value": 4286.3418
        },
        {
          "id": 4,
          "value": 1819.82715
        }
      ],
      "leftModuleId": 127,
      "rightModuleId": 1,
      "data": {
        "input_on": 0,
        "level_cv_filter": 1,
        "color_theme": 1,
        "fade_cv_mode": 0,
        "audition_depot": 0,
        "auditioned": 0,
        "temped": 0,
        "audition_mode": 0
      },
      "pos": [
        81,
        0
      ]
    }
  ],
  "cables": [
    {
      "id": 272,
      "outputModuleId": 120,
      "outputId": 0,
      "inputModuleId": 122,
      "inputId": 0,
      "color": "#0c8e15"
    },
    {
      "id": 274,
      "outputModuleId": 120,
      "outputId": 0,
      "inputModuleId": 125,
      "inputId": 6,
      "color": "#c9b70e"
    },
    {
      "id": 275,
      "outputModuleId": 125,
      "outputId": 0,
      "inputModuleId": 126,
      "inputId": 5,
      "color": "#0c8e15"
    },
    {
      "id": 276,
      "outputModuleId": 126,
      "outputId": 0,
      "inputModuleId": 127,
      "inputId": 0,
      "color": "#c91847"
    },
    {
      "id": 277,
      "outputModuleId": 126,
      "outputId": 1,
      "inputModuleId": 127,
      "inputId": 1,
      "color": "#c91847"
    },
    {
      "id": 278,
      "outputModuleId": 127,
      "outputId": 0,
      "inputModuleId": 128,
      "inputId": 2,
      "color": "#c91847"
    },
    {
      "id": 279,
      "outputModuleId": 127,
      "outputId": 1,
      "inputModuleId": 128,
      "inputId": 3,
      "color": "#c91847"
    },
    {
      "id": 281,
      "outputModuleId": 128,
      "outputId": 0,
      "inputModuleId": 1,
      "inputId": 0,
      "color": "#c91847"
    },
    {
      "id": 282,
      "outputModuleId": 128,
      "outputId": 1,
      "inputModuleId": 1,
      "inputId": 1,
      "color": "#c91847"
    },
    {
      "id": 283,
      "outputModuleId": 123,
      "outputId": 0,
      "inputModuleId": 120,
      "inputId": 6,
      "color": "#0986ad"
    },
    {
      "id": 284,
      "outputModuleId": 123,
      "outputId": 1,
      "inputModuleId": 126,
      "inputId": 7,
      "color": "#0986ad"
    },
    {
      "id": 287,
      "outputModuleId": 123,
      "outputId": 4,
      "inputModuleId": 125,
      "inputId": 7,
      "color": "#c9b70e"
    },
    {
      "id": 289,
      "outputModuleId": 123,
      "outputId": 1,
      "inputModuleId": 120,
      "inputId": 7,
      "color": "#c91847"
    }
  ]
}